<svg version="1.2" xmlns="http://www.w3.org/2000/svg" viewBox="0 0 1543 1243" width="1543" height="1243">
	<title>insee_logo_en-svg</title>
	<style>
		.s0 { fill: #ed1c24 } 
	</style>
	<g id="#ed1c24ff">
		<path id="Layer" class="s0" d="m806.2 22.5c119.1-17.3 239.8-24.1 360.1-21.7 125.7 3.3 251.4 10.2 376.3 25 0.1 34.5 0.1 69 0 103.5-212.4-31.3-428.4-44.1-642.6-23.9-93.7 9.1-188.3 21.6-277.8 52.1-31.2 11.9-64.2 25.1-86.5 51.1-18.7 23.2-18.5 55.6-10.7 83.1-115.3-1.5-235.4 21.5-331.8 87.8-46.7 31.5-87.4 78.2-94.9 135.9-9.6 72.7 25.1 143 69 198.8 7.7-39.8 21.3-81 52.6-108.7 43.1-37.8 101.1-53.4 157.1-58.8 113.8-6.6 227.7-15.1 341.7-17.9 42.1 4.8 75.9 34 106 61.4-35.3 17.9-72.6 33.1-112.6 35.5-65.2 4.1-130.6 0.3-195.6-6-53.4-5.1-107.3-7.1-160.7-1.9 42.1 14.8 80.8 38.1 123.9 50.4 83 24.8 168.1 51.7 255.8 46.1 64.1-3.8 131.2-16.9 183.5-56.4 25.4-18.5 43.8-45.1 55-74.1 28.3 20.1 26 64.1 7 89.9 24.3 1.9 47.8-5.8 71.3-10.8 45.6-10.3 92.1-21.6 139.2-18.2 41.4 3.2 82.5 20.6 110 52.4 23.2 27.3 37.6 61.8 41.6 97.4-81.5-70.2-198.9-86.4-300.5-57.2-13.1 20.9-35.5 34.6-59.6 38.7-41.5 6.8-84.2-4.9-119.6-26.5-15.8-10.7-41.8-8-50.9 10.2-3.4 12.2 5.4 23.3 13.5 31.5 24 22.9 56 33.7 85.1 48.2 209.7 97.8 419.3 195.8 631.6 287.6-0.1 38.4 0.1 76.8-0.1 115.1-339.4-151.6-675.8-309.8-1014.4-463.1-64.3-29.2-131.5-60-203.6-57.4-36 8.7-71.9 29.1-90 62.6-11.8 21.8-12.4 47.6-7.3 71.4-65.1-18.2-116.2-67.6-155.6-120.5-50.8-69.2-81.5-156.7-68.9-243 9.7-68.9 49-130.7 100.4-176.4 37.4-34.7 82.7-60 130.2-78.1 62.4-23.8 128.4-37.4 194.9-42.6 3-45.5 46.6-72.1 82.7-91.6 92.3-45.1 194.4-65.1 295.2-80.9z"/>
		<path id="Layer" fill-rule="evenodd" class="s0" d="m833.2 248.2c60.4-12.8 121.2-24 182.5-31.9 44-5.1 90.4-2.9 130.9 16.3 23.8 12 46.8 30.7 53.9 57.4-16-8.9-32.3-17.8-50.5-21.3-36.2-8.4-73.5-0.8-109 7.3 25.8 3.7 51.8 6.8 77.6 11.1-66.8 39.7-133.6 89.3-213.9 94.2-52.2 4.3-101.7-19.9-140-53.7-41.3 1.6-82.8-2-123.1-10.9q36.4-37.6 72.8-75.3c38.3 11.5 79.4 15 118.8 6.8zm113.3 47.2c-2.8 12.9-6.9 27.1-19 34.4-22.5 13.7-54.7 5.3-66.4-18.7-19.5 2.2-38.9 5.4-58.4 7.9 32.6 23.9 71.4 46.1 113.5 40.9 43.4-5.8 75.8-42.7 89.8-82.3-20.7 2.9-40.4 9.8-59.5 17.8z"/>
	</g>
</svg>