<svg version="1.2" xmlns="http://www.w3.org/2000/svg" viewBox="0 0 1542 294" width="1542" height="294">
	<title>spotlight-dec-3-pdf-svg</title>
	<defs>
		<clipPath clipPathUnits="userSpaceOnUse" id="cp1">
			<path d="m-1280.34-5022.05h4103.68v6219.53h-4103.68z"/>
		</clipPath>
	</defs>
	<style>
		.s0 { fill: #929e9c } 
		.s1 { fill: #78c346 } 
		.s2 { fill: #78c246 } 
		.s3 { fill: #0646a5 } 
	</style>
	<g id="Clip-Path: Page 1" clip-path="url(#cp1)">
		<g id="Page 1">
			<path id="Path 34" fill-rule="evenodd" class="s0" d="m754 148.9c0-40.2 22.7-74.1 64-74.1 46.5 0 61.5 37.8 61.5 65.7 0 4.9-0.3 10.5-0.7 12.6h-104.9c1.4 31.8 18.2 51 46.5 51 17.2 0 29-4.5 41.6-17.8l13.3 11.5c-16.1 16.4-32.1 23.4-54.9 23.4-42.6 0-66.4-31.8-66.4-72.3zm107-9.8c0-2.8 0-5.9-0.4-8.7-1.7-19.2-14.6-39.5-42.6-39.5-25.9 0-41.6 19.9-44.1 48.2zm57.7-61.8h18.2v24.8c7.7-18.5 23.8-27.3 42.6-27.3 21 0 37.4 9.8 43.7 31.5 8.4-20.6 25.9-31.5 46.9-31.5 34.2 0 48.9 24.8 48.9 61.2v83.1h-18.5v-80.7c0-29.3-9.5-45.8-33.6-45.8-23.7 0-38.8 17.9-38.8 42.3v84.2h-18.5v-85.9c0-25.2-10.1-40.6-33.6-40.6-23.7 0-38.4 17.9-38.4 42.3v84.2h-18.9zm236.3 71.7c0-40.2 22.4-74.1 64-74.1 46.1 0 61.5 37.7 61.5 65.7 0 4.9-0.7 10.5-1 12.6h-104.6c1.4 31.7 17.9 51 46.2 51 17.1 0 29-4.6 41.9-17.9l13 11.6c-16.1 16.4-31.8 23.4-54.9 23.4-42.7 0-66.1-31.8-66.1-72.3zm106.6-9.8c0-2.8 0-6-0.3-8.8-1.8-19.2-14.4-39.4-42.7-39.4-25.8 0-41.6 19.9-43.7 48.2zm57.4-61.9h18.5v24.1c9.1-17.4 25.9-26.5 44.7-26.5 32.9 0 48.6 23.7 49.3 54.5v89.8h-18.9v-85.6c0-25.9-12.2-41.2-35.6-41.2-23.8 0-39.5 15.3-39.5 42.9v83.9h-18.5zm164.3 102v-86.3h-23.8v-15.7h24.1v-41.2l18.2-13.7v54.9h39.8v15.7h-39.8v83.5c0 19.9 8 28.3 23 28.3 6.3 0 12.6-2.1 16.8-3.5l0.4 17.2c-4.6 1.4-12.3 2.7-20.3 2.7-25.2 0-38.4-14.6-38.4-41.9z"/>
			<path id="Path 35" class="s1" d="m599.2 74.1h-38.8l-67.5 72.4v-72.4h-28.7v146.1h28.7v-38.1l27.3-28.7 43.3 66.1 0.4 0.7h35.6l-59.4-86zm108.4 94l-0.4 1.4c-7 17.5-18.9 25.5-37.7 25.5-27 0-42.3-17.8-42.3-48.9 0-29.3 15.7-46.8 41.9-46.8q30.4 0 37.8 25.1l0.3 1.4 26.9-10.4-0.7-1.4c-11.9-27.3-34.6-42.3-63.9-42.3-52.1 0-70.7 40.9-70.7 75.4 0 34.6 18.6 75.2 70.7 75.2 29.3 0 52.7-15.4 64.3-42.3l0.3-1.1zm-303.7-68.4v66.7c0 17.8-3.5 28.3-21.4 28.3-17.1 0-20.9-15.4-21.6-24.5v-1.4l-28 3.2v1.4c1.8 23.7 17.8 47.9 49.6 47.9 32.2 0 49.7-19.6 49.7-55.3v-92.5h-28.3z"/>
			<path id="Path 36" class="s2" d="m21.4 70.6q33.2 19.2 70.6 33.9 30.7 11.6 51.4 10.5 19.9-1 48.6-15.7 32.1-16.1 38.8-19.6 20.2-10.5 35.6-17.8c-26.6-37.4-70.3-61.9-119.5-61.9-53.2 0-99.7 28.4-125.5 70.6z"/>
			<path id="Path 37" class="s3" d="m146.9 293.6c81.1 0 146.8-65.7 146.8-146.8 0-24.5-6-47.2-16.5-67.4q-7.7 5.2-13.2 8.7-28.7 21.3-38.1 30.4-19.3 18.9-47.9 48.6-14 15-26.6 34.9-3.5 5.6-21.3 36.3-6 10.5-6 25.6 0 21.6 15.4 29.7 3.5 0 7.4 0z"/>
			<path id="Path 38" class="s0" d="m44.4 252q3.5-21 23.8-45.8 11.2-13.6 23.8-27.6 6.3-6.6 6.3-11.9 0-10.5-24.8-25.8-41.3-25.9-45.5-29-10.5-8.8-18.5-16.5c-6.3 16.1-9.5 33.6-9.5 51.4 0 41.2 17.2 78.3 44.4 105.2z"/>
		</g>
	</g>
</svg>