<svg version="1.2" xmlns="http://www.w3.org/2000/svg" viewBox="0 0 1555 289" width="1555" height="289">
	<title>insee_logo_en-svg</title>
	<style>
		.s0 { fill: #ed1c24 } 
		.s1 { fill: #808184 } 
	</style>
	<g id="#ed1c24ff">
		<path id="Layer" class="s0" d="m182.9 6c27-3.9 54.2-5.5 81.4-4.9 28.3 0.7 56.7 2.3 84.9 5.6q0.1 11.7 0 23.4c-47.9-7.1-96.7-10-145.1-5.4-21.1 2.1-42.5 4.9-62.7 11.8-7 2.7-14.5 5.6-19.5 11.5-4.3 5.3-4.2 12.6-2.4 18.8-26.1-0.4-53.2 4.8-75 19.8-10.5 7.1-19.7 17.6-21.4 30.7-2.2 16.4 5.7 32.3 15.6 44.8 1.7-8.9 4.8-18.2 11.8-24.5 9.8-8.5 22.9-12 35.5-13.3 25.7-1.5 51.4-3.4 77.2-4 9.5 1.1 17.1 7.7 23.9 13.9-7.9 4-16.4 7.4-25.4 8-14.7 0.9-29.5 0-44.2-1.4-12-1.1-24.2-1.6-36.3-0.4 9.5 3.3 18.3 8.6 28 11.4 18.8 5.6 38 11.6 57.8 10.4 14.5-0.9 29.6-3.8 41.4-12.8 5.7-4.1 9.9-10.1 12.4-16.7 6.4 4.6 5.9 14.5 1.6 20.3 5.5 0.4 10.8-1.3 16.1-2.4 10.3-2.4 20.8-4.9 31.5-4.1 9.3 0.7 18.6 4.6 24.8 11.8 5.2 6.1 8.5 14 9.4 22-18.4-15.9-44.9-19.5-67.9-12.9-2.9 4.7-8 7.8-13.4 8.7-9.4 1.5-19-1.1-27-6-3.6-2.4-9.5-1.8-11.5 2.3-0.8 2.8 1.2 5.3 3 7.1 5.4 5.2 12.7 7.6 19.2 10.9 47.4 22.1 94.7 44.2 142.7 65-0.1 8.6 0 17.3-0.1 26-76.6-34.3-152.6-70-229-104.6-14.5-6.6-29.7-13.6-46-13-8.1 2-16.2 6.6-20.3 14.2-2.7 4.9-2.8 10.7-1.7 16.1-14.7-4.1-26.2-15.3-35.1-27.2-11.5-15.6-18.4-35.4-15.6-54.9 2.2-15.6 11.1-29.5 22.7-39.8 8.5-7.9 18.7-13.6 29.4-17.6 14.1-5.4 29-8.5 44-9.7 0.7-10.2 10.5-16.2 18.7-20.6 20.8-10.2 43.9-14.7 66.6-18.3z"/>
		<path id="Layer" class="s0" d="m942.5 7.4c19.8-6 40.8-6.4 61.2-3.7 15.1 2.1 30.3 6.6 42.5 16 9.6 7.3 16.3 17.9 19.2 29.5 3.6 13.6 2.3 27.9-0.7 41.5-28.1 0.2-56.2-0.3-84.3 0.3 3.4-0.6 7-1.5 9.5-4.2 3.9-3.8 4.6-10.5 1.4-15-4.2-6.9-13-8.7-20.4-9.2-8.5-0.3-17.4 0.2-25 4.3-5.8 3-9.8 9.3-9.7 15.9 0 4.7 3 8.7 6.5 11.6 5.1 4 11.2 6.5 17.3 8.5 20.6 6.3 41.4 12.2 61.1 20.9 16.5 7 28.6 23 31 40.7 2.4 17.1-1.8 34.6-8.3 50.4-7.7 18.1-20.5 33.9-36.4 45.4-31.4 22.9-71.8 31.3-110.1 27-16.8-2-33.7-7.6-46.8-18.6-9.8-8.1-17.5-18.8-21.2-30.9-4.8-15.7-3.6-32.5 0-48.3 29.2-0.1 58.4 0.3 87.6-0.2-4.2 0.6-8.5 2.1-11 5.6-3.8 5.3-2.9 12.3-0.9 18 2.1 6.5 7.9 11.1 14.2 13 16.3 5 35.1 0.5 47.6-11.1 4.6-4.3 7.2-11 5.5-17.3-1.7-6.1-6.8-10.5-12-13.8-10.3-6.5-22.4-9.2-33.8-13.2-14.4-4.9-28.9-9.9-42.6-16.5-12.2-7.2-21.4-19.4-24.4-33.3-3-14.1-0.4-28.8 4.1-42.2 5.1-15.2 14.2-29 25.8-40.2 15.1-14 33.3-24.9 53.1-30.9zm-429.9 0.9c31.5-0.2 63 0.2 94.5-0.2-10.1 0.6-20.1 7.2-22.3 17.5-19.6 85.2-39.3 170.4-59 255.6-25.4 0.1-50.8 0-76.2 0.1 20.9-91 42-182 63-273zm113.2-0.1c26.1 0.1 52.2 0 78.3 0.1 12.8 48.7 25.6 97.5 38.5 146.3 11.4-48.8 22.6-97.6 33.8-146.3 30.3-0.2 60.7 0.3 91-0.3-10 0.7-19.9 7.2-22.3 17.4-19.7 85.2-39.4 170.6-59.1 255.8q-37.3 0-74.7 0.1c-13.9-49.6-27.6-99.3-41.8-148.8-11.5 49.6-22.9 99.1-34.4 148.8q-36.1-0.1-72.3-0.1c21-91 42-182 63-273zm488.8 0c58.5 0.1 117.1 0 175.6 0 6.9 0 13.8 3 18.1 8.4 4.3 5.4 6 12.9 4.3 19.6-5.4 23.4-10.8 46.9-16.1 70.3 1.4-7.5-0.5-15.6-5.9-21.1-4.1-4.1-9.8-6.7-15.6-6.7q-50.2 0.1-100.4 0-3.8 16.7-7.6 33.3 58.1 0 116.4 0c-5 21.7-10 43.3-15 65q-58.2 0-116.5 0c-2.5 11.3-5.2 22.6-7.8 34 36.3 0 72.6 0 108.9 0 7.6 0.3 15.3-3.3 19.5-9.7 1.9-2.6 2.9-5.8 3.9-8.8-5.4 23.8-11 47.6-16.5 71.4-2 9.9-11.7 17.7-21.8 17.4-62.2-0.1-124.3 0-186.5-0.1 21-91 42.1-181.9 63-273zm241.7 0.1c57.5-0.1 115.1 0 172.7-0.1 4.5-0.1 9.2 0.3 13.4 2.4 8.9 4.2 14.2 14.7 12.2 24.4-5.4 23.8-11.1 47.6-16.3 71.5 0.5-5.6 0.4-11.4-2.5-16.3-3.9-7-11.7-11.7-19.7-11.5-33.3 0.1-66.6 0-99.8 0-2.5 11.1-5.1 22.2-7.6 33.3q58.1 0 116.3 0-7.5 32.5-14.9 65c-38.9 0-77.7 0-116.5 0-2.6 11.4-5.2 22.7-7.8 34 36.7 0 73.5 0 110.3 0 10.6 0.1 19.6-8.2 22.1-18.3-5.8 23.9-11.2 48-16.8 71.9-2.3 9.5-11.5 16.8-21.4 16.7q-93.3-0.1-186.7 0c20.9-91 42.1-182 63-273z"/>
		<path id="Layer" fill-rule="evenodd" class="s0" d="m189.1 56.9c13.6-2.8 27.3-5.4 41.2-7.2 9.9-1.1 20.4-0.6 29.5 3.7 5.4 2.7 10.6 6.9 12.2 13-3.6-2-7.3-4-11.4-4.8-8.2-1.9-16.6-0.2-24.6 1.6 5.8 0.9 11.7 1.6 17.5 2.5-15.1 9-30.2 20.2-48.3 21.3-11.8 1-23-4.5-31.6-12.1-9.3 0.3-18.7-0.5-27.8-2.5q8.2-8.5 16.4-17c8.7 2.6 17.9 3.4 26.9 1.5zm25.5 10.7c-0.6 2.9-1.5 6.1-4.3 7.8-5 3.1-12.3 1.2-15-4.3-4.4 0.5-8.7 1.3-13.1 1.8 7.3 5.4 16.1 10.4 25.6 9.3 9.8-1.3 17.1-9.7 20.3-18.6-4.7 0.6-9.2 2.2-13.5 4z"/>
	</g>
	<g id="#808184fd">
		<path id="Layer" class="s1" d="m395.2 281q0-137.3 0.1-274.5 3.7 0 7.5 0 0 137.3 0 274.5-3.8 0-7.6 0z"/>
	</g>
</svg>