<?xml version="1.0" encoding="iso-8859-1"?>
<!-- Uploaded to: SVG Repo, www.svgrepo.com, Generator: SVG Repo Mixer Tools -->
<svg height="800px" width="800px" version="1.1" id="Layer_1" xmlns="http://www.w3.org/2000/svg" xmlns:xlink="http://www.w3.org/1999/xlink" 
	 viewBox="0 0 512.001 512.001" xml:space="preserve">
<path style="fill:#ECE5DD;" d="M462.173,153.062h-76.29c-0.29-29.768-24.595-53.895-54.432-53.895H180.546
	c-29.835,0-54.142,24.127-54.432,53.895H49.827c-23.314,0-42.282,18.968-42.282,42.281v239.884c0,23.313,18.968,42.28,42.282,42.28
	h412.348c23.313,0,42.28-18.968,42.28-42.282V195.343C504.455,172.029,485.487,153.062,462.173,153.062z M315.284,196.177H196.716
	c-14.561,0-26.408-11.846-26.408-26.408c0-13.713,10.706-25.273,24.371-26.32l115.139-0.575l7.503,0.575
	c13.667,1.047,24.372,12.607,24.372,26.32C341.693,184.331,329.845,196.177,315.284,196.177z"/>
<path style="fill:#D9CBBD;" d="M462.173,153.062h-32.921c23.314,0,42.282,18.968,42.282,42.281v239.884
	c0,23.314-18.968,42.282-42.282,42.282h32.921c23.314-0.001,42.281-18.969,42.281-42.283V195.343
	C504.455,172.029,485.487,153.062,462.173,153.062z"/>
<path style="fill:#ED8800;" d="M201.566,157.366V55.958c0-11.855,9.611-21.465,21.465-21.465h66.255
	c11.679,0,21.147,9.468,21.147,21.147v101.724c0,4.171-3.381,7.553-7.553,7.553H209.12
	C204.948,164.918,201.566,161.537,201.566,157.366z"/>
<path style="fill:#CC7400;" d="M289.286,34.493h-31.259c11.679,0,21.147,9.468,21.147,21.147v101.724
	c0,4.171-3.381,7.554-7.554,7.554h31.259c4.171,0,7.554-3.381,7.554-7.554V55.64C310.434,43.961,300.965,34.493,289.286,34.493z"/>
<g>
	<path style="fill:#FFB656;" d="M140.999,315.634c-20.923,2.216-38.472-15.335-36.254-36.258
		c1.617-15.245,13.873-27.5,29.118-29.115c20.923-2.216,38.472,15.335,36.254,36.258
		C168.501,301.765,156.244,314.019,140.999,315.634z"/>
	<path style="fill:#FFB656;" d="M137.432,391.276c-19.093,0-37.361-7.143-51.44-20.112l-3.145-2.897l0.404-4.259
		c2.662-28.085,25.956-49.262,54.181-49.262s51.519,21.177,54.183,49.261l0.404,4.259l-3.145,2.897
		C174.792,384.133,156.524,391.276,137.432,391.276z"/>
</g>
<g>
	<path style="fill:#BABABA;" d="M256,247.916h129.009c4.427,0,8.287-3.412,8.419-7.836c0.137-4.578-3.533-8.332-8.081-8.332H256.338
		c-4.427,0-8.287,3.412-8.419,7.836C247.783,244.163,251.453,247.916,256,247.916z"/>
	<path style="fill:#BABABA;" d="M450.021,231.748h-21.219c-4.427,0-8.287,3.412-8.419,7.836c-0.137,4.578,3.533,8.332,8.081,8.332
		h21.219c4.427,0,8.287-3.412,8.419-7.836C458.238,235.501,454.568,231.748,450.021,231.748z"/>
	<path style="fill:#BABABA;" d="M256,312.59h64.335c4.427,0,8.287-3.412,8.419-7.836c0.137-4.578-3.533-8.332-8.081-8.332h-64.335
		c-4.427,0-8.287,3.412-8.419,7.836C247.783,308.837,251.453,312.59,256,312.59z"/>
	<path style="fill:#BABABA;" d="M450.021,296.422h-85.893c-4.427,0-8.287,3.412-8.419,7.836c-0.137,4.578,3.533,8.332,8.081,8.332
		h85.893c4.427,0,8.287-3.412,8.419-7.836C458.238,300.175,454.568,296.422,450.021,296.422z"/>
	<path style="fill:#BABABA;" d="M450.021,361.095H256.338c-4.427,0-8.287,3.412-8.419,7.836c-0.137,4.578,3.533,8.332,8.081,8.332
		h193.683c4.427,0,8.287-3.412,8.419-7.836C458.238,364.849,454.568,361.095,450.021,361.095z"/>
</g>
<path d="M257.858,60.021c-11.523-1.141-21.127,8.464-19.985,19.986c0.844,8.526,7.741,15.424,16.268,16.268
	c11.523,1.141,21.127-8.464,19.985-19.986C273.282,67.762,266.385,60.865,257.858,60.021z"/>
<path d="M141.351,231.837c-49.151-2.258-89.626,38.219-87.366,87.37c1.971,42.853,36.675,77.555,79.527,79.524
	c49.151,2.258,89.626-38.219,87.366-87.37C218.907,268.51,184.203,233.807,141.351,231.837z M113.304,280.462
	c1.134-11.339,10.307-20.51,21.646-21.643c15.319-1.53,28.142,11.295,26.609,26.613c-1.134,11.339-10.307,20.51-21.646,21.643
	C124.594,308.606,111.771,295.781,113.304,280.462z M70.063,315.285c0-27.006,15.98-50.337,38.973-61.07
	c-7.419,7.332-12.026,17.503-12.026,28.733c0,12.059,5.315,22.896,13.719,30.308c-14.761,7.076-26.293,19.831-31.774,35.414
	C73.31,338.822,70.063,327.428,70.063,315.285z M137.432,382.653c-17.574,0-33.59-6.77-45.598-17.832
	c2.203-23.222,21.808-41.453,45.598-41.453s43.395,18.23,45.598,41.453C171.022,375.883,155.006,382.653,137.432,382.653z
	 M195.908,348.671c-5.481-15.583-17.013-28.339-31.774-35.414c8.403-7.414,13.718-18.25,13.718-30.309
	c0-11.231-4.607-21.402-12.026-28.733c22.994,10.734,38.973,34.065,38.973,61.07C204.8,327.428,201.553,338.822,195.908,348.671z"/>
<path d="M462.173,145.516h-69.267c-3.973-30.371-30.018-53.895-61.454-53.895h-13.474V55.64c0-15.846-12.846-28.692-28.692-28.692
	h-66.573c-15.846,0-28.693,12.846-28.693,28.692v35.981h-13.474c-31.437,0-57.482,23.524-61.454,53.895H49.827
	C22.308,145.516,0,167.824,0,195.343v239.884c0,27.518,22.308,49.826,49.827,49.826h412.348c27.519,0,49.827-22.308,49.827-49.827
	V195.343C512,167.824,489.692,145.516,462.173,145.516z M210.189,55.64c0-6.917,5.607-12.524,12.524-12.524h66.573
	c6.917,0,12.524,5.607,12.524,12.524v100.655h-91.621V55.64z M495.832,435.226c0,18.589-15.069,33.658-33.658,33.658H49.827
	c-18.589,0-33.658-15.069-33.658-33.658V195.343c0-18.589,15.069-33.658,33.658-33.658h76.826c4.46,0,8.082-3.651,8.084-8.111
	c0.015-25.248,20.56-45.784,45.811-45.784h13.474v27.062c-18.197,1.393-32.552,16.738-32.335,35.336
	c0.226,19.307,16.466,34.613,35.774,34.613h69.067c4.465,0,8.084-3.62,8.084-8.084c0-4.465-3.62-8.084-8.084-8.084h-69.284
	c-10.232,0-18.999-7.926-19.378-18.151c-0.363-9.801,6.802-18.014,16.155-19.361v13.258c0,4.465,3.62,8.084,8.084,8.084h107.789
	c4.465,0,8.084-3.62,8.084-8.084V151.12c9.353,1.347,16.519,9.56,16.155,19.361c-0.379,10.225-9.147,18.151-19.378,18.151h-12.582
	c-4.465,0-8.084,3.62-8.084,8.084c0,4.465,3.62,8.084,8.084,8.084h12.366c19.308,0,35.548-15.306,35.774-34.613
	c0.218-18.598-14.138-33.943-32.335-35.336V107.79h13.474c25.251,0,45.795,20.536,45.811,45.784c0.002,4.46,3.624,8.111,8.084,8.111
	h76.826c18.589,0,33.658,15.069,33.658,33.658V435.226z"/>
</svg>