<?xml version="1.0" encoding="iso-8859-1"?>
<!-- Uploaded to: SVG Repo, www.svgrepo.com, Generator: SVG Repo Mixer Tools -->
<svg height="800px" width="800px" version="1.1" id="Layer_1" xmlns="http://www.w3.org/2000/svg" xmlns:xlink="http://www.w3.org/1999/xlink" 
	 viewBox="0 0 511.997 511.997" xml:space="preserve">
<g>
	<circle style="fill:#CFF09E;" cx="106.096" cy="362.77" r="48.194"/>
	<path style="fill:#CFF09E;" d="M261.273,109.444v246.443h70.463c3.342-23.352,23.415-41.305,47.692-41.305
		c24.277,0,44.35,17.953,47.692,41.305h70.711V109.444H261.273z"/>
</g>
<path style="fill:#507C5C;" d="M497.834,95.279H261.275c-7.824,0-14.166,6.344-14.166,14.166v232.276h-34.543v-71.723
	c0-7.823-6.342-14.166-14.166-14.166c-7.824,0-14.166,6.344-14.166,14.166v71.723h-19.447
	c-8.654-24.054-31.693-41.305-58.691-41.305s-50.035,17.25-58.691,41.305h-9.479c-5.29,0-9.595-4.304-9.595-9.593v-47.5
	c0-2.842,1.248-5.519,3.425-7.349c0.262-0.22,0.516-0.449,0.761-0.687l34.277-33.308h51.895c7.824,0,14.166-6.344,14.166-14.166
	c0-7.823-6.342-14.166-14.166-14.166H79.841l25.752-67.875c8.77-19.307,28.085-31.805,49.224-31.874l29.416,0.093v57.416
	c0,7.823,6.342,14.166,14.166,14.166c7.824,0,14.166-6.344,14.166-14.166v-71.537c0-7.807-6.315-14.141-14.121-14.166l-43.628-0.139
	c-32.486,0.105-62.026,19.344-75.256,49.015c-0.109,0.245-0.211,0.493-0.306,0.744l-33.078,87.185l-33.075,32.142
	C4.767,263.17,0,273.586,0,284.629v47.498c0,20.914,17.014,37.926,37.927,37.926h6.252c3.619,30.962,29.999,55.074,61.917,55.074
	s58.297-24.112,61.917-55.074h149.5c3.619,30.962,29.999,55.074,61.917,55.074c7.824,0,14.166-6.344,14.166-14.166
	s-6.342-14.166-14.166-14.166c-18.76,0-34.023-15.261-34.023-34.023c0-1.66,0.126-3.292,0.357-4.89
	c0.14-0.98,0.33-1.945,0.552-2.894c0.021-0.091,0.041-0.181,0.062-0.272c0.222-0.914,0.483-1.812,0.778-2.693
	c0.033-0.099,0.067-0.2,0.101-0.297c0.307-0.891,0.647-1.768,1.026-2.624c0.023-0.052,0.048-0.105,0.071-0.157
	c4.529-10.112,13.862-17.556,24.872-19.62c0.021-0.003,0.043-0.007,0.064-0.011c0.97-0.18,1.952-0.317,2.947-0.411
	c0.074-0.007,0.147-0.011,0.221-0.017c0.982-0.086,1.973-0.137,2.974-0.137c1,0,1.992,0.051,2.973,0.137
	c0.074,0.006,0.147,0.01,0.221,0.017c0.993,0.093,1.976,0.231,2.947,0.411c0.021,0.003,0.042,0.007,0.064,0.011
	c11.009,2.064,20.343,9.508,24.872,19.622c0.023,0.051,0.047,0.102,0.069,0.154c0.378,0.856,0.718,1.733,1.026,2.625
	c0.034,0.099,0.068,0.198,0.101,0.297c0.295,0.883,0.555,1.779,0.778,2.693c0.023,0.089,0.041,0.181,0.062,0.272
	c0.222,0.949,0.412,1.914,0.552,2.894c0.231,1.597,0.357,3.229,0.357,4.89c0,7.823,6.342,14.166,14.166,14.166
	c5.158,0,9.657-2.765,12.135-6.885h58.079c7.824,0,14.166-6.344,14.166-14.166V109.445C512,101.621,505.658,95.279,497.834,95.279z
	 M106.096,396.796c-18.76,0-34.023-15.261-34.023-34.023s15.263-34.025,34.023-34.025s34.023,15.263,34.023,34.025
	S124.856,396.796,106.096,396.796z M483.667,341.722h-45.546c-0.251-0.696-0.521-1.381-0.795-2.065
	c-0.034-0.084-0.065-0.167-0.099-0.251c-0.288-0.71-0.591-1.411-0.904-2.107c-0.01-0.024-0.021-0.047-0.031-0.071
	c-8.715-19.323-26.987-33.43-48.762-36.269c-0.356-0.047-0.711-0.095-1.068-0.136c-0.472-0.054-0.945-0.099-1.419-0.143
	c-0.554-0.051-1.111-0.091-1.669-0.128c-0.361-0.023-0.72-0.048-1.082-0.065c-0.949-0.044-1.902-0.072-2.86-0.072
	c-0.958,0-1.911,0.028-2.86,0.072c-0.363,0.017-0.722,0.042-1.082,0.065c-0.558,0.035-1.115,0.077-1.669,0.128
	c-0.475,0.043-0.948,0.089-1.419,0.143c-0.357,0.041-0.713,0.089-1.068,0.136c-21.767,2.838-40.031,16.934-48.752,36.245
	c-0.017,0.038-0.034,0.076-0.052,0.115c-0.307,0.683-0.603,1.371-0.887,2.067c-0.044,0.106-0.084,0.214-0.126,0.32
	c-0.266,0.667-0.531,1.336-0.775,2.013h-45.29h-0.009V123.612h208.226v218.11H483.667z"/>
</svg>