<?xml version="1.0" encoding="iso-8859-1"?>
<!-- Uploaded to: SVG Repo, www.svgrepo.com, Generator: SVG Repo Mixer Tools -->
<svg height="800px" width="800px" version="1.1" id="Layer_1" xmlns="http://www.w3.org/2000/svg" xmlns:xlink="http://www.w3.org/1999/xlink" 
	 viewBox="0 0 508 508" xml:space="preserve">
<path style="fill:#CDD6E0;" d="M294.3,78.9H21.2C9.5,78.9,0,88.4,0,100.1v255.3c0,11.7,9.5,21.2,21.2,21.2h294.3V100.1
	C315.5,88.4,306,78.9,294.3,78.9z"/>
<path style="fill:#FFD15C;" d="M425.9,149.4H315.5v227.1h171.3c11.7,0,21.2-9.5,21.2-21.2v-108L425.9,149.4z"/>
<g>
	<polygon style="fill:#FFFFFF;" points="477.2,243.6 416,170.6 336.7,170.6 336.7,243.6 	"/>
	<path style="fill:#FFFFFF;" d="M375.3,289.5h-36.8c-0.3,0-0.5-0.2-0.5-0.5v-9.2c0-0.3,0.2-0.5,0.5-0.5h36.8c0.3,0,0.5,0.2,0.5,0.5
		v9.2C375.8,289.3,375.6,289.5,375.3,289.5z"/>
</g>
<g>
	<circle style="fill:#40596B;" cx="113.6" cy="376.6" r="52.5"/>
	<circle style="fill:#40596B;" cx="411.7" cy="376.6" r="52.5"/>
</g>
<g>
	<circle style="fill:#FFFFFF;" cx="411.7" cy="376.6" r="31.1"/>
	<circle style="fill:#FFFFFF;" cx="113.6" cy="376.6" r="31.1"/>
</g>
</svg>