<?xml version="1.0" encoding="iso-8859-1"?>
<!-- Uploaded to: SVG Repo, www.svgrepo.com, Generator: SVG Repo Mixer Tools -->
<svg version="1.1" id="Layer_1" xmlns="http://www.w3.org/2000/svg" xmlns:xlink="http://www.w3.org/1999/xlink" 
	 viewBox="0 0 512 512" xml:space="preserve">
<rect x="12.8" y="256" style="fill:#6FB0B6;" width="307.2" height="102.4"/>
<g>
	<rect x="192" y="204.8" style="fill:#FF877F;" width="76.8" height="51.2"/>
	<rect x="38.4" y="204.8" style="fill:#FF877F;" width="76.8" height="51.2"/>
</g>
<rect x="76.8" y="153.6" style="fill:#FF9F99;" width="76.8" height="51.2"/>
<rect x="115.2" y="204.8" style="fill:#FF877F;" width="76.8" height="51.2"/>
<rect x="153.6" y="153.6" style="fill:#FF9F99;" width="76.8" height="51.2"/>
<rect x="115.2" y="102.4" style="fill:#FFB7B2;" width="76.8" height="51.2"/>
<path style="fill:#BFA779;" d="M115.2,409.6c-28.237,0-51.2-22.963-51.2-51.2s22.963-51.2,51.2-51.2s51.2,22.963,51.2,51.2
	S143.437,409.6,115.2,409.6z"/>
<rect x="320" y="243.209" style="fill:#FEDEA1;" width="179.2" height="115.2"/>
<path style="fill:#BFA779;" d="M396.8,409.6c-28.237,0-51.2-22.963-51.2-51.2s22.963-51.2,51.2-51.2s51.2,22.963,51.2,51.2
	S425.037,409.6,396.8,409.6z"/>
<polygon style="fill:#C5DFE2;" points="320,243.2 320,153.6 442.052,153.6 501.786,243.217 "/>
<path style="fill:#573A32;" d="M456.499,152.201c-4.745-7.125-12.74-11.401-21.299-11.401H332.8c-14.14,0-25.6,11.46-25.6,25.6v76.8
	h-25.6v-25.6c0-14.14-11.46-25.6-25.6-25.6h-12.8v-25.6c0-14.14-11.46-25.6-25.6-25.6h-12.8v-25.6c0-14.14-11.46-25.6-25.6-25.6H128
	c-14.14,0-25.6,11.46-25.6,25.6v25.6H89.6c-14.14,0-25.6,11.46-25.6,25.6V192H51.2c-14.14,0-25.6,11.46-25.6,25.6v25.6
	C11.46,243.2,0,254.66,0,268.8v76.8c0,14.14,11.46,25.6,25.6,25.6h26.889c5.931,29.21,31.744,51.2,62.711,51.2
	s56.781-21.99,62.711-51.2H307.2h26.897c5.948,29.175,31.804,51.2,62.703,51.2s56.755-22.025,62.703-51.2H486.4
	c14.14,0,25.6-11.46,25.6-25.6V243.209c0-5.052-1.493-9.993-4.301-14.199L456.499,152.201z M256,217.6v25.6h-51.2v-25.6H256z
	 M217.6,166.4V192h-51.2v-25.6H217.6z M179.2,217.6v25.6H128v-25.6H179.2z M128,115.2h51.2v25.6H128V115.2z M89.6,166.4h51.2V192
	H89.6V166.4z M51.2,217.6h51.2v25.6H51.2V217.6z M115.2,396.8c-21.171,0-38.4-17.229-38.4-38.4c0-21.171,17.229-38.4,38.4-38.4
	s38.4,17.229,38.4,38.4C153.6,379.571,136.371,396.8,115.2,396.8z M307.2,345.6H177.911c-5.931-29.21-31.744-51.2-62.711-51.2
	s-56.781,21.99-62.711,51.2H25.6v-76.8h281.6V345.6z M332.8,166.4h102.4l42.667,64.009L332.8,230.4V166.4z M396.8,396.8
	c-21.205,0-38.4-17.195-38.4-38.4c0-21.205,17.195-38.4,38.4-38.4c21.205,0,38.4,17.195,38.4,38.4
	C435.2,379.605,418.005,396.8,396.8,396.8z M486.4,281.6h-25.6v25.6h25.6v38.4h-26.897c-5.948-29.175-31.804-51.2-62.703-51.2
	s-56.755,22.025-62.703,51.2H332.8V256l153.6,0.009V281.6z"/>
</svg>