<?xml version="1.0" encoding="iso-8859-1"?>
<!-- Uploaded to: SVG Repo, www.svgrepo.com, Generator: SVG Repo Mixer Tools -->
<svg version="1.1" id="Layer_1" xmlns="http://www.w3.org/2000/svg" xmlns:xlink="http://www.w3.org/1999/xlink" 
	 viewBox="0 0 512 512" xml:space="preserve">
<polygon style="fill:#797781;" points="419.629,298.227 29.031,298.227 29.031,351.01 461.856,351.01 "/>
<g>
	<polygon style="fill:#58575D;" points="419.629,298.227 292.948,298.227 240.164,351.01 461.856,351.01 	"/>
	<rect x="166.268" y="277.113" style="fill:#58575D;" width="95.01" height="31.67"/>
</g>
<g>
	<path style="fill:#2E2D31;" d="M308.784,369.485c-7.277,0-13.196-5.919-13.196-13.196s5.919-13.196,13.196-13.196
		s13.196,5.919,13.196,13.196S316.06,369.485,308.784,369.485z M308.784,353.65c-1.456,0-2.639,1.184-2.639,2.639
		c0,1.455,1.183,2.639,2.639,2.639c1.456,0,2.639-1.184,2.639-2.639C311.423,354.834,310.239,353.65,308.784,353.65z"/>
	<path style="fill:#2E2D31;" d="M403.794,369.485c-7.277,0-13.196-5.919-13.196-13.196s5.919-13.196,13.196-13.196
		s13.196,5.919,13.196,13.196S411.071,369.485,403.794,369.485z M403.794,353.65c-1.456,0-2.639,1.184-2.639,2.639
		c0,1.455,1.183,2.639,2.639,2.639c1.456,0,2.639-1.184,2.639-2.639C406.433,354.834,405.25,353.65,403.794,353.65z"/>
</g>
<rect x="303.505" y="108.206" style="fill:#CCCCCE;" width="95.01" height="42.227"/>
<path style="fill:#EDEDED;" d="M271.835,139.876h147.794c46.643,0,84.454,37.811,84.454,84.454s-37.811,84.454-84.454,84.454
	H271.835c-46.643,0-84.454-37.811-84.454-84.454S225.192,139.876,271.835,139.876z"/>
<g>
	<rect x="124.041" y="245.443" style="fill:#88888F;" width="52.784" height="63.34"/>
	<circle style="fill:#88888F;" cx="87.093" cy="356.289" r="47.505"/>
</g>
<path style="fill:#EDEDED;" d="M87.093,369.485c-7.277,0-13.196-5.919-13.196-13.196s5.919-13.196,13.196-13.196
	s13.196,5.919,13.196,13.196S94.37,369.485,87.093,369.485z"/>
<polygon style="fill:#E07188;" points="92.371,129.32 7.919,213.772 7.918,351.01 29.031,351.01 60.701,308.784 134.599,308.784 
	134.599,129.32 "/>
<polygon style="fill:#D1E5F5;" points="92.371,129.32 60.701,129.32 7.919,182.102 7.919,213.773 92.371,213.773 "/>
<path style="fill:#88888F;" d="M92.371,253.361h-31.67c-4.373,0-7.918-3.545-7.918-7.918c0-4.373,3.545-7.918,7.918-7.918h31.67
	c4.373,0,7.918,3.545,7.918,7.918C100.289,249.816,96.744,253.361,92.371,253.361z"/>
<polygon style="fill:#B4D8F1;" points="7.919,213.773 92.371,213.773 92.371,129.32 7.919,213.772 "/>
<path style="fill:#88888F;" d="M73.897,316.701H7.918c-4.373,0-7.918-3.545-7.918-7.918s3.545-7.918,7.918-7.918h65.979
	c4.373,0,7.918,3.545,7.918,7.918S78.269,316.701,73.897,316.701z"/>
<path style="fill:#DBDBDB;" d="M419.629,139.876H271.835c-3.579,0-7.096,0.248-10.558,0.681v167.546
	c3.462,0.432,6.979,0.681,10.558,0.681h147.794c46.643,0,84.454-37.811,84.454-84.454S466.272,139.876,419.629,139.876z"/>
<circle style="fill:#797781;" cx="308.784" cy="356.289" r="47.505"/>
<path style="fill:#DBDBDB;" d="M308.784,369.485c-7.277,0-13.196-5.919-13.196-13.196s5.919-13.196,13.196-13.196
	s13.196,5.919,13.196,13.196S316.06,369.485,308.784,369.485z"/>
<circle style="fill:#797781;" cx="403.794" cy="356.289" r="47.505"/>
<path style="fill:#DBDBDB;" d="M403.794,369.485c-7.277,0-13.196-5.919-13.196-13.196s5.919-13.196,13.196-13.196
	s13.196,5.919,13.196,13.196S411.071,369.485,403.794,369.485z"/>
<path style="fill:#58575D;" d="M472.412,358.928c-2.026,0-4.053-0.773-5.599-2.319l-39.906-39.908H285.671l-39.908,39.908
	c-3.092,3.092-8.105,3.092-11.196,0c-3.092-3.092-3.092-8.105,0-11.196l42.226-42.227c1.485-1.485,3.498-2.319,5.599-2.319h147.794
	c2.1,0,4.114,0.834,5.599,2.319l42.227,42.227c3.092,3.092,3.092,8.105,0,11.196C476.465,358.155,474.438,358.928,472.412,358.928z"
	/>
<path style="fill:#49484C;" d="M478.012,345.412l-42.227-42.227c-1.485-1.485-3.499-2.319-5.599-2.319H282.392
	c-2.1,0-4.114,0.834-5.599,2.319l-15.514,15.514v22.394l24.392-24.392h141.235l39.908,39.908c1.547,1.546,3.573,2.319,5.599,2.319
	c2.026,0,4.053-0.773,5.599-2.319C481.103,353.518,481.103,348.503,478.012,345.412z"/>
<g>
	<path style="fill:#2E2D31;" d="M92.371,237.526h-31.67c-4.373,0-7.918,3.545-7.918,7.918c0,4.373,3.545,7.918,7.918,7.918h31.67
		c4.373,0,7.918-3.545,7.918-7.918C100.289,241.071,96.744,237.526,92.371,237.526z"/>
	<path style="fill:#2E2D31;" d="M512,224.33c0-50.934-41.437-92.371-92.371-92.371h-13.196v-23.753c0-4.373-3.544-7.918-7.918-7.918
		h-95.01c-4.374,0-7.918,3.545-7.918,7.918v23.753h-23.753c-50.934,0-92.371,41.437-92.371,92.371c0,4.801,0.369,9.519,1.079,14.125
		c-1.108-0.591-2.374-0.929-3.718-0.929h-34.309V129.321c0-4.373-3.545-7.918-7.918-7.918H92.382c-0.004,0-0.006-0.001-0.011-0.001
		c-0.004,0-0.006,0.001-0.011,0.001h-31.66c-2.1,0-4.113,0.834-5.598,2.319L2.319,176.505C0.834,177.988,0,180.002,0,182.102V351.01
		c0,4.373,3.545,7.918,7.918,7.918h21.113c0.931,0,1.841-0.165,2.694-0.473c0.566,14.634,6.828,27.825,16.633,37.421h-8.771
		c-4.373,0-7.918,3.545-7.918,7.918s3.545,7.918,7.918,7.918h411.711c4.374,0,7.918-3.545,7.918-7.918s-3.544-7.918-7.918-7.918
		h-8.771c9.699-9.493,15.941-22.503,16.62-36.948h13.263c4.374,0,7.918-3.545,7.918-7.918c0-1.858-0.644-3.563-1.717-4.914
		c-0.172-0.221-0.364-0.447-0.602-0.684l-32.428-32.428C483.921,301.741,512,266.255,512,224.33z M311.423,116.124h79.175v15.835
		h-79.175V116.124z M191.117,269.196h-6.375v-14.09C186.479,260.005,188.617,264.715,191.117,269.196z M348.371,356.289
		c0,21.829-17.758,39.588-39.588,39.588s-39.588-17.758-39.588-39.588s17.758-39.588,39.588-39.588S348.371,334.46,348.371,356.289z
		 M347.518,316.701h17.54c-3.369,3.298-6.323,7.015-8.771,11.075C353.843,323.716,350.888,319.999,347.518,316.701z
		 M140.915,343.093c-2.499-10.189-7.819-19.278-15.088-26.392h137.449l-26.392,26.392H140.915z M184.742,300.866v-15.835h17.526
		c5.254,6.014,11.271,11.344,17.902,15.835H184.742z M168.907,253.361v47.505h-26.392v-47.505H168.907z M126.68,245.443v55.423
		H15.835v-79.175h76.536c4.373,0,7.918-3.545,7.918-7.918v-76.535h26.392V245.443z M63.98,137.238h20.474v68.618H15.835v-20.474
		L63.98,137.238z M25.072,343.093h-9.237v-26.392h29.031L25.072,343.093z M47.505,356.289c0-21.822,17.748-39.576,39.567-39.588
		h0.041c21.82,0.011,39.567,17.765,39.567,39.588c0,21.829-17.758,39.588-39.588,39.588S47.505,378.118,47.505,356.289z
		 M125.827,395.876c9.699-9.493,15.94-22.503,16.62-36.948h110.979c0.681,14.446,6.922,27.456,16.62,36.948H125.827z
		 M347.518,395.876c3.369-3.298,6.323-7.015,8.771-11.075c2.446,4.06,5.401,7.778,8.771,11.075H347.518z M403.794,395.876
		c-21.829,0-39.588-17.758-39.588-39.588s17.758-39.588,39.588-39.588s39.588,17.758,39.588,39.588S425.623,395.876,403.794,395.876
		z M419.629,300.866H282.392h-10.557c-42.203,0-76.536-34.334-76.536-76.536s34.334-76.536,76.536-76.536h147.794
		c42.203,0,76.536,34.334,76.536,76.536S461.831,300.866,419.629,300.866z"/>
</g>
</svg>