<?xml version="1.0" encoding="iso-8859-1"?>
<!-- Uploaded to: SVG Repo, www.svgrepo.com, Generator: SVG Repo Mixer Tools -->
<svg height="800px" width="800px" version="1.1" id="Layer_1" xmlns="http://www.w3.org/2000/svg" xmlns:xlink="http://www.w3.org/1999/xlink" 
	 viewBox="0 0 512 512" xml:space="preserve">
<path style="fill:#E4EAF8;" d="M273.102,127.733c0-20.29,10.169-38.223,25.653-49.054v-2.253L187.591,110.63v76.96h111.165v-10.804
	C283.272,165.955,273.102,148.023,273.102,127.733z"/>
<path style="fill:#FF5050;" d="M486.447,211.416c-4.232-9.244-13.331-15.274-23.499-15.274H49.052
	c-10.167,0-19.267,6.03-23.499,15.274C14.599,235.342,8.017,265.67,8.017,298.756s6.582,63.414,17.536,87.339
	c4.232,9.244,13.331,15.275,23.499,15.275h413.897c10.167,0,19.267-6.03,23.499-15.275c10.954-23.925,17.536-54.254,17.536-87.339
	S497.401,235.342,486.447,211.416z"/>
<path style="fill:#C84146;" d="M375.716,213.244H136.284c-4.722,0-8.551-3.829-8.551-8.551v-17.102c0-4.722,3.829-8.551,8.551-8.551
	h239.432c4.722,0,8.551,3.829,8.551,8.551v17.102C384.267,209.415,380.438,213.244,375.716,213.244z"/>
<path style="fill:#AFB9D2;" d="M350.063,110.63h-34.205c-4.722,0-8.551,3.829-8.551,8.551v59.858h51.307v-59.858
	C358.614,114.459,354.785,110.63,350.063,110.63z"/>
<path style="fill:#C84146;" d="M444.682,196.142v162.472c0,4.722-3.829,8.551-8.551,8.551H84.409
	c-9.446,0-17.102-7.656-17.102-17.102V196.142H49.052c-10.167,0-19.266,6.03-23.499,15.273
	c-10.954,23.926-17.536,54.254-17.536,87.34c0,33.085,6.582,63.414,17.536,87.34c4.233,9.244,13.331,15.273,23.499,15.273h411.607
	V196.142H444.682z"/>
<g>
	<path style="fill:#FF5050;" d="M128.868,384.267h-10.82c-4.255,0-7.864,3.129-8.466,7.342l-7.503,52.516h42.756l-7.503-52.516
		C136.731,387.396,133.123,384.267,128.868,384.267z"/>
	<path style="fill:#FF5050;" d="M393.954,384.267h-10.82c-4.255,0-7.864,3.129-8.466,7.342l-7.503,52.516h42.756l-7.503-52.516
		C401.816,387.396,398.209,384.267,393.954,384.267z"/>
</g>
<path style="fill:#959CB5;" d="M341.511,110.63h-25.653c-4.722,0-8.551,3.829-8.551,8.551v59.858h25.653v-59.858
	C332.96,114.459,336.789,110.63,341.511,110.63z"/>
<path style="fill:#91282D;" d="M170.489,110.63c-18.862,0-34.205,15.343-34.205,34.205c0,18.862,15.343,34.205,34.205,34.205
	s34.205-15.343,34.205-34.205C204.693,125.973,189.35,110.63,170.489,110.63z"/>
<path d="M493.736,208.078c-5.55-12.12-17.635-19.953-30.788-19.953h-70.663v-0.534c0-6.31-3.547-11.803-8.75-14.6
	c11.049-12.244,17.301-28.175,17.301-45.258c0-37.426-30.448-67.875-67.875-67.875c-8.952,0-16.948,2.142-16.954,2.143
	l-154.782,41.649c-18.837,4.235-32.957,21.087-32.957,41.184c0,9.887,3.426,18.985,9.14,26.188h-1.123
	c-9.136,0-16.568,7.432-16.568,16.568v0.534H49.052c-13.154,0-25.239,7.833-30.788,19.954C6.315,234.177,0,265.532,0,298.756
	s6.316,64.579,18.264,90.677c5.55,12.12,17.635,19.953,30.788,19.953h49.892l-3.817,26.722h-1.599c-4.427,0-8.017,3.589-8.017,8.017
	c0,4.427,3.589,8.017,8.017,8.017h59.858c4.427,0,8.017-3.589,8.017-8.017c0-4.427-3.589-8.017-8.017-8.017h-1.598l-3.818-26.722
	h216.059l-3.817,26.722h-1.598c-4.427,0-8.017,3.589-8.017,8.017c0,4.427,3.589,8.017,8.017,8.017h59.858
	c4.427,0,8.017-3.589,8.017-8.017c0-4.427-3.589-8.017-8.017-8.017h-1.598l-3.818-26.722h49.893
	c13.154,0,25.239-7.833,30.788-19.954C505.685,363.334,512,331.979,512,298.756S505.684,234.176,493.736,208.078z M195.682,110.976
	l81.564-21.943c-7.655,10.987-12.161,24.324-12.161,38.7c0,16.182,5.613,31.329,15.596,43.29h-77.111
	c5.714-7.203,9.14-16.301,9.14-26.188C212.71,130.99,206.01,118.68,195.682,110.976z M350.597,136.818h-35.273v-17.637
	c0-0.295,0.239-0.534,0.534-0.534h34.205c0.295,0,0.534,0.239,0.534,0.534V136.818z M315.324,152.852h35.273v18.171h-35.273V152.852
	z M384.802,127.733c0,15.396-6.675,29.559-18.171,39.326v-47.877c0-9.136-7.432-16.568-16.568-16.568h-34.205
	c-9.136,0-16.568,7.432-16.568,16.568v47.877c-11.496-9.768-18.171-23.929-18.171-39.326c0-28.585,23.256-51.841,51.841-51.841
	C361.546,75.891,384.802,99.147,384.802,127.733z M144.301,144.835c0-14.44,11.748-26.188,26.188-26.188
	c14.44,0,26.188,11.748,26.188,26.188c0,14.44-11.748,26.188-26.188,26.188C156.049,171.023,144.301,159.275,144.301,144.835z
	 M135.749,187.591c0-0.295,0.239-0.534,0.534-0.534h239.432c0.295,0,0.534,0.239,0.534,0.534v17.102
	c0,0.295-0.239,0.534-0.534,0.534H136.284c-0.295,0-0.534-0.239-0.534-0.534V187.591z M111.323,436.109l6.195-43.366
	c0.037-0.262,0.265-0.459,0.529-0.459h10.821c0.264,0,0.492,0.198,0.529,0.459l6.193,43.366H111.323z M376.409,436.109l6.195-43.366
	c0.037-0.262,0.265-0.459,0.529-0.459h10.821c0.264,0,0.492,0.198,0.529,0.459l6.193,43.366H376.409z M479.158,382.758
	c-2.946,6.436-9.309,10.595-16.21,10.595h-2.255V264.551c0-4.427-3.589-8.017-8.017-8.017c-4.427,0-8.017,3.589-8.017,8.017v128.802
	h-33.895l-0.412-2.877c-1.159-8.11-8.209-14.225-16.401-14.225h-10.821c-8.192,0-15.242,6.115-16.401,14.225l-0.41,2.877h-220.64
	l-0.412-2.877c-1.159-8.11-8.209-14.225-16.401-14.225h-10.821c-8.192,0-15.242,6.115-16.401,14.225l-0.41,2.877H67.34V264.551
	c0-4.427-3.589-8.017-8.017-8.017s-8.017,3.589-8.017,8.017v128.802h-2.254c-6.901,0-13.264-4.159-16.21-10.595
	c-10.84-23.675-16.809-53.508-16.809-84.002c0-30.494,5.969-60.326,16.808-84.002c2.946-6.436,9.309-10.595,16.21-10.595h2.255
	v26.188c0,4.427,3.589,8.017,8.017,8.017s8.017-3.589,8.017-8.017v-26.188h52.376v0.534c0,9.136,7.432,16.568,16.568,16.568h17.637
	v0.534c0,4.427,3.589,8.017,8.017,8.017s8.017-3.589,8.017-8.017v-0.534h172.092v0.534c0,4.427,3.589,8.017,8.017,8.017
	c4.427,0,8.017-3.589,8.017-8.017v-0.534h17.637c9.136,0,16.568-7.432,16.568-16.568v-0.534h52.376v26.188
	c0,4.427,3.589,8.017,8.017,8.017c4.427,0,8.017-3.589,8.017-8.017v-26.188h2.254c6.901,0,13.264,4.159,16.21,10.595
	c10.84,23.675,16.809,53.508,16.809,84.002S489.998,359.082,479.158,382.758z"/>
</svg>