<?xml version="1.0" encoding="utf-8"?>
<!-- Uploaded to: SVG Repo, www.svgrepo.com, Generator: SVG Repo Mixer Tools -->
<svg version="1.1" id="Uploaded to svgrepo.com" xmlns="http://www.w3.org/2000/svg" xmlns:xlink="http://www.w3.org/1999/xlink" 
	 width="800px" height="800px" viewBox="0 0 32 32" xml:space="preserve">
<style type="text/css">
	.hatch_een{fill:#265AA5;}
	.hatch_twee{fill:#FFC5BB;}
</style>
<g>
	<path class="hatch_twee" d="M25,19.811v1.414l-4,4v-1.414L25,19.811z M13,29v-1.189l-2.952,2.952C10.33,30.915,10.657,31,11,31
		c0.086,0,0.158-0.005,0.241-0.015l1.746-1.746C12.997,29.156,13,29.086,13,29z M21,27.811V29c0,0.07,0.008,0.142,0.015,0.211
		L25,25.225v-1.414L21,27.811z M22.049,30.762C22.331,30.914,22.657,31,23,31c0.086,0,0.16-0.007,0.243-0.018l1.739-1.739
		C24.993,29.16,25,29.086,25,29v-1.189L22.049,30.762z M12.225,14h-1.414L9,15.811v1.414L12.225,14z M13,23.811l-4,4V29
		c0,0.07,0.004,0.146,0.011,0.214L13,25.225V23.811z M13,21.225v-1.414l-4,4v1.414L13,21.225z M21,21.225L23.225,19h-1.414
		L21,19.811V21.225z M13,17.225v-1.414l-4,4v1.414L13,17.225z"/>
	<path class="hatch_een" d="M15,0H7C6.448,0,6,0.448,6,1v7c0,1.078,1.171,2.878,2,3.707V29c0,1.654,1.346,3,3,3s3-1.346,3-3V11.68
		c0.721-0.776,2-2.595,2-3.68V1C16,0.448,15.552,0,15,0z M13,29c0,1.105-0.895,2-2,2s-2-0.895-2-2V14h4V29z M15,8
		c0,0.667-0.798,2.244-1.5,3c-0.542,0.583-0.458,1.458-0.5,2H9c0,0,0.078-1.391-0.5-2C7.79,10.252,7,8.708,7,8c0-0.708,0-7,0-7h2
		v5.5C9,6.776,9.224,7,9.5,7S10,6.776,10,6.5V1h2v5.5C12,6.776,12.224,7,12.5,7S13,6.776,13,6.5V1h2C15,1,15,7.333,15,8z M24.395,0
		c-0.377,0-0.742,0.137-1.031,0.386C21.948,1.608,19,4.153,19,13.488c0,2.478,1.044,4.824,1.088,4.922
		c0.026,0.059,0.066,0.108,0.102,0.16C20.08,18.664,20,18.79,20,19v10c0,1.654,1.346,3,3,3s3-1.346,3-3V1.607
		C26,0.721,25.28,0,24.395,0z M20,13.488C20,4.84,22.561,2.4,24.018,1.143C24.132,1.044,24.264,1,24.395,1
		C24.704,1,25,1.249,25,1.607V18h-4C21,18,20,15.78,20,13.488z M25,29c0,1.105-0.895,2-2,2s-2-0.895-2-2V19h4V29z"/>
</g>
</svg>