<?xml version="1.0" encoding="iso-8859-1"?>
<!-- Uploaded to: SVG Repo, www.svgrepo.com, Generator: SVG Repo Mixer Tools -->
<!DOCTYPE svg PUBLIC "-//W3C//DTD SVG 1.1//EN" "http://www.w3.org/Graphics/SVG/1.1/DTD/svg11.dtd">
<svg height="800px" width="800px" version="1.1" id="Capa_1" xmlns="http://www.w3.org/2000/svg" xmlns:xlink="http://www.w3.org/1999/xlink" 
	 viewBox="0 0 297.5 297.5" xml:space="preserve">
<g id="XMLID_17_">
	<g>
		<path style="fill:#FCBF31;" d="M204.55,78.32v61.98H92.95V78.32h19.53v16.34c0,20,16.27,36.27,36.27,36.27
			s36.27-16.27,36.27-36.27V78.32H204.55z"/>
		<path style="fill:#0B77A5;" d="M94.13,154.25h109.25c-3.69,12.98-15.64,22.52-29.78,22.52h-49.69
			C109.76,176.77,97.81,167.23,94.13,154.25z"/>
		<path d="M224.48,68.35v77.46c0,28.06-22.82,50.89-50.88,50.89h-14.88v14.74c19.19,4.51,33.52,21.78,33.52,42.33
			c0,23.97-19.51,43.48-43.49,43.48c-23.97,0-43.48-19.51-43.48-43.48c0-5.51,4.46-9.97,9.96-9.97c5.51,0,9.97,4.46,9.97,9.97
			c0,12.98,10.57,23.55,23.55,23.55c12.99,0,23.56-10.57,23.56-23.55c0-12.99-10.57-23.56-23.56-23.56c-5.5,0-9.96-4.46-9.96-9.96
			V196.7h-14.88c-28.06,0-50.89-22.83-50.89-50.89V68.35c0-5.5,4.46-9.96,9.97-9.96h9.83l31.38-23.54
			c-0.94-2.69-1.46-5.58-1.46-8.59c0-14.34,11.67-26.01,26.01-26.01c14.35,0,26.01,11.67,26.01,26.01c0,3.01-0.52,5.9-1.46,8.59
			l31.39,23.54h9.83C220.02,58.39,224.48,62.85,224.48,68.35z M204.55,140.3V78.32h-19.53v16.34c0,20-16.27,36.27-36.27,36.27
			s-36.27-16.27-36.27-36.27V78.32H92.95v61.98H204.55z M203.38,154.25H94.13c3.68,12.98,15.63,22.52,29.78,22.52h49.69
			C187.74,176.77,199.69,167.23,203.38,154.25z M172.08,58.84l-12.14-9.1c-3.39,1.62-7.18,2.53-11.19,2.53
			c-4,0-7.79-0.91-11.19-2.53l-12.13,9.1c4.04,1.27,6.98,5.05,6.98,9.51v26.31c0,9.01,7.33,16.34,16.34,16.34
			s16.35-7.33,16.35-16.34V68.35C165.1,63.89,168.03,60.11,172.08,58.84z M154.83,26.26c0-3.35-2.72-6.08-6.08-6.08
			c-3.35,0-6.08,2.73-6.08,6.08c0,3.36,2.73,6.08,6.08,6.08C152.11,32.34,154.83,29.62,154.83,26.26z"/>
	</g>
	<g>
	</g>
</g>
</svg>