<?xml version="1.0" encoding="utf-8"?>
<!-- Uploaded to: SVG Repo, www.svgrepo.com, Generator: SVG Repo Mixer Tools -->
<svg width="800px" height="800px" viewBox="-4.11 0 315.812 315.812" xmlns="http://www.w3.org/2000/svg"><defs><style>.a{fill:#ffffff;}.b{fill:#85807f;}.c{fill:#211715;}.d{fill:#d9d9d9;}.e{fill:#7a7473;}</style></defs><path class="a" d="M210.558,97.375a9.126,9.126,0,0,1,6.6-2.415c4.729.167,6.741,2.724,7.607,4.226,2.585,4.483,2.475,12.743.74,17.853-1.228,3.62-3.241,9.156-8.093,13.127a10.058,10.058,0,0,1-7.756,2.238l-.745-.126a58.983,58.983,0,0,1-2.668,7.244c-1.865,5.063-11.72,22.137-24.453,30.161a65.514,65.514,0,0,0,1.144,9.309c.7,3.654,1.863,7.095,6.087,8.75.27.09,9.07,3.885,13.83,5.921-9.472,7.21-29.866,14.683-47.824,14.635-19.82-.04-37.955-8.088-49.333-15.518,5.358-2.245,11.783-4.965,12-5.038,4.079-1.672,5.372-5.1,6.087-8.75a62.938,62.938,0,0,0,1.092-8.1c-5.9-3.038-11.247-7.674-16.35-13.782a69.4,69.4,0,0,1-13.167-24.838,9.908,9.908,0,0,1-8.39-2.1c-4.86-3.97-6.87-9.51-8.1-13.13-1.73-5.11-1.84-13.37.74-17.85.87-1.5,2.88-4.06,7.61-4.23a9.184,9.184,0,0,1,6.6,2.42S79.768,46.652,154.879,46.652C219.123,46.652,210.558,97.375,210.558,97.375Z"/><path class="b" d="M205.227,28.954c18.082,14.351,21.2,43.632,15.183,66.594a10.7,10.7,0,0,0-3.255-.588,9.1,9.1,0,0,0-6.659,2.48c-5.431-6.368-6.252-18.619-8.062-25.27-1.726-6.348-8.629-9.73-20.629-12.363a52.05,52.05,0,0,0-10.037-1.094,86.924,86.924,0,0,0-12.334.512c-3.8.561-11.4,1.936-11.4,1.936-7.6-5.213-21.173-5.213-30.829-.538l5.523,3.482c-12.824,5.841-20.2,16.771-24.041,30.948,0,0-2.44,2.693-5,2.207a9.211,9.211,0,0,0-6.475-2.3,11.036,11.036,0,0,0-2.573.378c-9.03-26.373.395-58.378,18.566-74.013,9.711-8.593,27.775-19.658,50.423-18.45,20.485.828,35.716,8.259,44.379,18.321Z"/><path class="c" d="M99.289,198.411c1.421-.456,2.8-1.119,4.175-1.691q3.783-1.572,7.557-3.166,3.122-1.314,6.245-2.628c2.53-1.059,4.8-2.206,6.5-4.469,2.906-3.868,3.347-9.466,3.793-14.113a2.82,2.82,0,0,0-2.8-2.8,2.862,2.862,0,0,0-2.8,2.8,56.418,56.418,0,0,1-.984,6.4,11.17,11.17,0,0,1-1.66,4.362,6.272,6.272,0,0,1-1.222,1.243,9.429,9.429,0,0,1-1.105.653c-1.036.556.16-.05-.123.072-.445.192-.9.371-1.345.559-4.38,1.837-8.753,3.691-13.137,5.517-1.511.629-3.024,1.361-4.585,1.861-3.418,1.1-1.957,6.5,1.489,5.4Z"/><path class="c" d="M179.2,172.586c.411,4.124.819,8.68,2.753,12.427a11.38,11.38,0,0,0,3.786,4.178c.908.613,2.032.828,2.928,1.412-.261-.17-.695-.3-.217-.091l.405.172,1.242.531q1.539.658,3.077,1.32l6.978,3c1.637.7,3.266,1.464,4.931,2.1a2.824,2.824,0,0,0,3.445-1.956,2.862,2.862,0,0,0-1.956-3.444c-.1-.037-.194-.08-.291-.119-.494-.2.623.265.256.108-.146-.063-.292-.124-.439-.186q-1.174-.5-2.348-1-3.222-1.381-6.444-2.767-2.78-1.2-5.562-2.386c-1.648-.7-3.166-1.242-4.243-2.53.073.087.237.348-.108-.143-.113-.161-.218-.329-.318-.5-.166-.279-.471-.884-.516-.991a18.347,18.347,0,0,1-.67-2.257,53.313,53.313,0,0,1-1.089-6.87,2.88,2.88,0,0,0-2.8-2.8,2.819,2.819,0,0,0-2.8,2.8Z"/><path class="c" d="M212.538,99.355a7.017,7.017,0,0,1,8.345-.442c.379.25-.065-.125.335.279.191.193.383.381.568.58.1.1.185.218.275.329-.063-.078-.3-.486-.085-.088.11.2.253.387.368.586a13.115,13.115,0,0,1,1.37,4.34c1.039,6.388-.8,13.183-4.132,18.52-1.877,3.009-5.195,6.814-9.185,6.245a2.894,2.894,0,0,0-3.444,1.956c-.361,1.313.449,3.229,1.955,3.444,10.494,1.5,16.555-8.9,19.343-17.47a30.3,30.3,0,0,0,.919-13.827c-.581-3.749-2.095-7.311-5.242-9.575-4.573-3.289-11.295-2.54-15.35,1.163-2.667,2.436,1.3,6.387,3.96,3.96Z"/><path class="c" d="M93.97,129.708c-3.462.488-6.518-2.452-8.359-5.01a29.632,29.632,0,0,1-4.047-8.4,25.219,25.219,0,0,1-1.04-10.285,15.467,15.467,0,0,1,1.11-4.685c-.1.227.261-.493.315-.591.108-.192.224-.377.34-.564.372-.6-.149.083.151-.229.21-.219.406-.449.622-.662.115-.115.242-.224.366-.327-.228.189-.112.078.058-.035a7.342,7.342,0,0,1,1.122-.636,8.68,8.68,0,0,1,2.184-.5,6.547,6.547,0,0,1,5.042,1.578c2.661,2.421,6.632-1.528,3.96-3.96a12.709,12.709,0,0,0-14.281-1.823c-3.328,1.713-5.208,5.124-6.017,8.659a32.588,32.588,0,0,0,5.064,24.983c3.488,5.059,8.492,8.794,14.9,7.891,1.5-.212,2.319-2.121,1.955-3.445a2.874,2.874,0,0,0-3.444-1.955Z"/><path class="c" d="M207.31,127.249a56.067,56.067,0,0,1-2.171,7.534c-.692,1.946-1.208,2.764-1.847,4.624-.115.336.326-.694.09-.217-.056.113-.1.231-.155.346-.1.224-.206.447-.312.669-.3.629-.617,1.25-.943,1.866-.733,1.382-1.517,2.738-2.334,4.073a71.534,71.534,0,0,1-15.612,18.507,29.29,29.29,0,0,1-11.7,6.08c-3.511.805-2.025,6.206,1.489,5.4,8.866-2.033,16.245-8.551,22.018-15.282A79.041,79.041,0,0,0,208.1,142.292c.285-.633.538-1.279.805-1.919-.358.858-.032.107.038-.05.167-.381.328-.766.488-1.149q.357-.861.685-1.733a57.337,57.337,0,0,0,2.6-8.7,2.87,2.87,0,0,0-1.955-3.445,2.828,2.828,0,0,0-3.445,1.956Z"/><path class="c" d="M91.492,128.53a72.889,72.889,0,0,0,10.366,24.318c5.285,7.913,12.226,15.325,20.633,19.948a40.577,40.577,0,0,0,13.646,4.62,2.892,2.892,0,0,0,3.444-1.955c.362-1.318-.45-3.224-1.956-3.445a39.023,39.023,0,0,1-20.866-10.272,66.346,66.346,0,0,1-16.032-22.712,69.317,69.317,0,0,1-3.835-11.991c-.794-3.513-6.195-2.026-5.4,1.489Z"/><path class="c" d="M141.435,146.526a23.606,23.606,0,0,0,11.367,2.628c4.063-.026,8.18-.821,11.436-3.358,1.194-.93.976-2.983,0-3.96a2.872,2.872,0,0,0-3.96,0c.839-.653.15-.127-.066.011s-.466.284-.708.41c-.184.1-1.037.444-.3.168-.325.122-.646.249-.977.355a16.731,16.731,0,0,1-2.734.624c.389-.056-.177.016-.307.029-.269.027-.537.049-.806.067q-.97.061-1.944.054c-.58,0-1.161-.023-1.74-.063-.266-.018-.532-.039-.8-.066,0,0-.931-.125-.432-.048a19.092,19.092,0,0,1-2.554-.567c-.358-.107-.707-.235-1.06-.356-.115-.039-.225-.1-.342-.133.7.2.247.11.051.018q-.657-.31-1.3-.648a2.861,2.861,0,0,0-3.831,1,2.83,2.83,0,0,0,1,3.831Z"/><path class="c" d="M151.459,119.644a53.6,53.6,0,0,1,1.265,5.788l-.1-.744a3.5,3.5,0,0,1,.022.8l.1-.744a1.94,1.94,0,0,1-.088.359l.282-.669a1.435,1.435,0,0,1-.126.231l.437-.566a1.232,1.232,0,0,1-.189.186l.567-.438a3.784,3.784,0,0,1-.458.243l.669-.283a3.326,3.326,0,0,1-.773.226l.744-.1a3.084,3.084,0,0,1-.725,0l.744.1c-.273-.039-.542-.105-.815-.142a3.1,3.1,0,0,0-2.158.282,2.8,2.8,0,0,0-1,3.831,2.677,2.677,0,0,0,1.673,1.287c.608.082,1.2.237,1.815.264a5.77,5.77,0,0,0,2.656-.629,3.8,3.8,0,0,0,2.116-2.507,6.382,6.382,0,0,0-.028-2.72c-.315-1.864-.746-3.713-1.226-5.542a2.8,2.8,0,0,0-5.4,1.489Z"/><path class="c" d="M120.691,103.3c-.966,3.142-.336,10.368,5.615,10.983,7.865-.047,8.284-8.784,5.636-12.892C129.774,98.024,123.4,96.626,120.691,103.3Z"/><path class="c" d="M183.678,103.3c.967,3.141.337,10.367-5.614,10.982-7.866-.048-8.285-8.784-5.637-12.892C174.6,98.024,180.969,96.626,183.678,103.3Z"/><path class="c" d="M203.247,30.934c14.1,11.294,18.049,30.695,16.994,48.013a82.275,82.275,0,0,1-2.313,15.006c-.868,3.5,4.531,4.99,5.4,1.489a88.478,88.478,0,0,0,2.346-29.095c-.863-9.592-3.319-19.193-8.281-27.519a44.037,44.037,0,0,0-10.186-11.854,2.887,2.887,0,0,0-3.96,0,2.821,2.821,0,0,0,0,3.96Z"/><path class="c" d="M87.1,93.862a68.332,68.332,0,0,1-1.418-35.741c2.434-11,7.3-21.822,14.8-30.188a58.529,58.529,0,0,1,5.494-5.314,60.432,60.432,0,0,1,5.094-3.964,75.02,75.02,0,0,1,14.268-7.963,69.136,69.136,0,0,1,38.639-3.961c12.142,2.1,23.982,7.133,32.057,16.443a2.827,2.827,0,0,0,3.96,0,2.855,2.855,0,0,0,0-3.96c-7.634-8.8-18.615-14.231-29.809-16.913-13.828-3.313-28.59-3.218-42.1,1.394A78.625,78.625,0,0,0,99.289,21.1C90.5,29.527,84.573,40.831,81.318,52.476A76,76,0,0,0,80.4,90.811c.377,1.529.814,3.042,1.3,4.54,1.109,3.413,6.518,1.952,5.4-1.489Z"/><path class="c" d="M166.093,57.3c-3.782-8.354-13.155-13.172-22.035-13.448a2.8,2.8,0,0,0,0,5.6c7.055.219,14.2,4.055,17.2,10.675a2.822,2.822,0,0,0,3.831,1,2.867,2.867,0,0,0,1-3.831Z"/><path class="c" d="M149.451,58.744c-4.664-3.134-10.516-4.291-16.058-4.36a39.86,39.86,0,0,0-17.6,3.821c-1.99.949-1.645,3.8,0,4.836l5.523,3.482V61.688A42.783,42.783,0,0,0,105.029,74.9a57.083,57.083,0,0,0-9.038,19.405l.72-1.236a3.625,3.625,0,0,1-2.527,1.45c-3.6.044-3.61,5.644,0,5.6,2.8-.035,6.438-1.854,7.308-4.7a70.229,70.229,0,0,1,3.229-9.038,41.16,41.16,0,0,1,10.641-14.4,38.4,38.4,0,0,1,8.783-5.47c2.01-.925,1.628-3.809,0-4.835l-5.523-3.483v4.836a33.616,33.616,0,0,1,14.771-3.057c4.681.055,9.375,1,13.232,3.595a2.8,2.8,0,1,0,2.826-4.835Z"/><path class="c" d="M181.06,62.507a63.6,63.6,0,0,1,10.9,3.209,23.688,23.688,0,0,1,3.915,2.115c.259.176.518.355.765.548-.355-.276.3.273.429.386a12.627,12.627,0,0,1,1.353,1.422c-.326-.4.1.147.194.3.151.228.294.462.427.7q.228.409.419.838c-.23-.517.075.239.138.434a38,38,0,0,1,.969,4.125c.7,3.477,1.284,6.977,2.17,10.414,1.014,3.934,2.391,7.979,4.854,11.258a2.889,2.889,0,0,0,3.831,1,2.819,2.819,0,0,0,1-3.831c-4.3-5.722-5.081-13.451-6.46-20.334-.566-2.826-1.182-5.653-2.929-8.015a19.21,19.21,0,0,0-7.247-5.733,60.3,60.3,0,0,0-13.243-4.236,2.863,2.863,0,0,0-3.444,1.956,2.829,2.829,0,0,0,1.955,3.444Z"/><path class="a" d="M34.538,245.6c-5.268,11.874-8.691,24.837-11.824,38.817,39.44-6.48,90.637-9.615,131.078-9.615,40.189,0,91,3.1,130.337,9.494-3.517-15.674-7.4-30.068-13.856-43.082a99.4,99.4,0,0,0-6.439-11.158c-12.919-19.305-33.8-28.736-55.147-35.588L203.7,193c-9.052,7.4-30.163,15.353-48.672,15.3-20.148-.048-38.541-8.36-49.891-15.882l-6.954,2.047c-21.346,6.852-42.227,16.283-55.146,35.588A102.656,102.656,0,0,0,34.538,245.6Z"/><path class="a" d="M209.9,258.221c-3.938-1.738-8.236.028-9.69,1.745-1.644,1.94-2.5,5.866-2.137,8.384a35.754,35.754,0,0,0,4.026,11.471,10.782,10.782,0,0,0,8.4,5.429s5.289.38,6.623-1.62S209.9,258.221,209.9,258.221Z"/><path class="a" d="M96.969,258.221c3.938-1.738,8.235.028,9.69,1.745,1.644,1.94,2.5,5.866,2.137,8.384a35.778,35.778,0,0,1-4.026,11.471,10.783,10.783,0,0,1-8.4,5.429s-5.289.38-6.623-1.62S96.969,258.221,96.969,258.221Z"/><path class="c" d="M103.731,194.835a98.366,98.366,0,0,0,38.8,15.232c15.188,2.342,30.566.161,44.891-5.267,6.467-2.45,12.859-5.452,18.258-9.832a2.819,2.819,0,0,0,0-3.96,2.865,2.865,0,0,0-3.96,0c-.1.079-.6.474-.262.217-.218.168-.44.331-.662.492q-.821.6-1.671,1.149c-1.1.722-2.24,1.395-3.394,2.034a72.188,72.188,0,0,1-7.983,3.791,98.635,98.635,0,0,1-20.16,5.724c-14.483,2.481-29.128.33-42.761-4.949A96.126,96.126,0,0,1,106.558,190c-3.015-1.994-5.823,2.854-2.827,4.835Z"/><path class="c" d="M26.134,281.99c4.283-18.546,9.661-37.625,21.161-53.138,10.416-14.05,26.332-22.6,42.428-28.531,5.766-2.122,11.62-3.866,17.508-5.6,3.45-1.016,1.982-6.422-1.488-5.4-13.76,4.051-27.478,8.574-39.873,15.949a79.546,79.546,0,0,0-20.783,17.392c-6.23,7.541-10.853,16.251-14.563,25.266-4.322,10.505-7.238,21.524-9.79,32.573-.81,3.507,4.588,5,5.4,1.488Z"/><path class="c" d="M286.134,280.5c-4.405-19.077-10.034-38.9-21.962-54.794-11.214-14.939-27.586-24.1-44.808-30.516-6-2.237-12.1-4.063-18.238-5.87-3.464-1.02-4.944,4.383-1.489,5.4,13.19,3.883,26.295,8.166,38.206,15.19a75.33,75.33,0,0,1,19.854,16.56c5.806,6.983,10.17,15.326,13.561,23.715,4.153,10.274,6.987,21.024,9.476,31.8.811,3.51,6.212,2.025,5.4-1.488Z"/><path class="d" d="M159.359,274.823c10.287.071,21.17.334,32.315.8-41.8-35.335-89.984-82.848-139.626-137.656q-8.2-9.055-16.452-18.371L30.9,154.119C69.649,192.4,113.329,238.4,159.359,274.823Z"/><path class="c" d="M33.616,121.573q31.509,35.574,64.594,69.714c19.816,20.371,40.106,40.295,61.065,59.492q15.6,14.292,31.763,27.959a2.877,2.877,0,0,0,3.96,0,2.824,2.824,0,0,0,0-3.96c-19.982-16.828-39.229-34.52-58-52.682q-32.33-31.278-62.921-64.288-18.51-19.86-36.5-40.195a2.8,2.8,0,1,0-3.96,3.96Z"/><path class="c" d="M28.921,156.1c16.236,16.042,32.247,32.309,48.5,48.336,16.96,16.729,34.166,33.226,52.042,48.979,9.946,8.765,20.1,17.293,30.544,25.463a2.892,2.892,0,0,0,3.96,0c.969-.969,1.2-3.023,0-3.96-18.727-14.653-36.536-30.446-53.863-46.719-17.178-16.133-33.881-32.761-50.534-49.433Q46.247,165.43,32.881,152.14c-2.566-2.536-6.528,1.421-3.96,3.959Z"/><path class="e" d="M229.3,293.451c0-40.5-30.84-74.6-75.067-74.6-44.384,0-75.062,34.376-75.062,74.6L58.3,293.257c0-51.414,39.211-95.351,95.94-95.351,56.529,0,95.947,43.587,95.947,95.351Z"/><path class="c" d="M252.983,293.257a100.052,100.052,0,0,0-17.153-56.3,96.041,96.041,0,0,0-46.325-35.82,105.426,105.426,0,0,0-63.581-2.226,95.662,95.662,0,0,0-48.958,32.3,99.668,99.668,0,0,0-21.2,54.73c-.178,2.437-.262,4.879-.266,7.322-.006,3.6,5.594,3.609,5.6,0a94.486,94.486,0,0,1,16.241-53.193,90.062,90.062,0,0,1,43.353-33.6,100.042,100.042,0,0,1,60.3-2.178,90.358,90.358,0,0,1,46.3,30.489,93.576,93.576,0,0,1,19.826,51.118c.179,2.452.264,4.909.268,7.367.006,3.6,5.606,3.609,5.6,0Z"/><path class="c" d="M232.1,293.451a78.886,78.886,0,0,0-13.526-44.391,75.844,75.844,0,0,0-36.6-28.276,83.062,83.062,0,0,0-50.112-1.721A75.41,75.41,0,0,0,93.39,244.424a78.655,78.655,0,0,0-16.8,43.206c-.144,1.937-.211,3.879-.215,5.821-.008,3.6,5.592,3.609,5.6,0a73.336,73.336,0,0,1,12.538-41.184,69.885,69.885,0,0,1,33.565-26.109A77.665,77.665,0,0,1,174.9,224.4a70.09,70.09,0,0,1,36.078,23.748A72.656,72.656,0,0,1,226.3,287.76c.137,1.894.2,3.792.2,5.691.008,3.6,5.608,3.61,5.6,0Z"/><path class="c" d="M97.713,260.921a6.766,6.766,0,0,1,4.658-.323,4.985,4.985,0,0,1,2.235,1.262c1.565,2.079,1.677,5.134,1.191,7.392-1.1,5.11-3.41,12.532-9.431,13.2a2.883,2.883,0,0,0-2.8,2.8,2.819,2.819,0,0,0,2.8,2.8,13.993,13.993,0,0,0,10.631-6.5,33.669,33.669,0,0,0,4.414-11.92c.656-3.894-.06-8.6-2.772-11.645-2.932-3.286-8.474-4.076-12.414-2.465a2.889,2.889,0,0,0-1.956,3.444c.364,1.325,2.036,2.531,3.444,1.956Z"/><path class="a" d="M63.289,241.309c11.434-4.08,27.425,1.231,33.605,12.06,2.375,4.162,2.325,10.983-4.159,12.636,4.1,3.735,4.512,8.518,2.21,12.188-1.088,1.734-3.755,2.553-5.731,2.619a12.894,12.894,0,0,1-3.222-.306l.285.306A7.862,7.862,0,0,1,88.041,288a9.022,9.022,0,0,1-3.668,5.965c-2.7,1.67-7.384.866-9.774-.369l-.472-.244.588.718c2.19,2.671-.448,7.734-2.434,9.049-5.722,3.785-12.372.37-18.851-2.733-5-2.4-9.684-7.317-11.047-12.06-1.1-3.81-1.568-6.648-1.079-13.263.871-11.773,5.714-22.387,16.661-30.871A19.2,19.2,0,0,1,63.289,241.309Z"/><path class="c" d="M91.4,268.613c2.006,2.16,2.809,5,1.483,7.545a3.228,3.228,0,0,1-2.511,1.687,6.406,6.406,0,0,1-2.034.165,10.332,10.332,0,0,1-2.359-.392c-3.417-.937-6.627-2.924-9.81-4.45-3.454-1.657-6.914-3.3-10.32-5.057-3.2-1.648-6.035,3.183-2.826,4.835,3.143,1.619,6.332,3.145,9.52,4.674,3.259,1.563,6.477,3.309,9.827,4.668,6.382,2.586,14.976,1.4,16.509-6.45a12.64,12.64,0,0,0-3.52-11.184c-2.458-2.646-6.411,1.321-3.959,3.959Z"/><path class="c" d="M84.3,282.792a4.747,4.747,0,0,1,1.148,3.428,8.1,8.1,0,0,1-1.1,3.778c-1.429,2.4-3.918,2.437-6.518,1.8a17.128,17.128,0,0,1-3.967-1.694c-1.744-.855-3.505-1.674-5.264-2.5a97.36,97.36,0,0,1-9.787-5.009c-3.08-1.89-5.9,2.951-2.826,4.836a121.955,121.955,0,0,0,12.026,6.058c3.892,1.833,7.487,4.041,11.9,4.214a10.069,10.069,0,0,0,10.095-6.591,11.528,11.528,0,0,0-1.75-12.277,2.8,2.8,0,0,0-3.96,3.96Z"/><path class="c" d="M72.3,295.482s.492.787.287.331c.014.031.2.9.141.388a2.411,2.411,0,0,1-.087,1.237,7.982,7.982,0,0,1-1.332,2.786c.075-.091-1.07.892-.439.475a7.3,7.3,0,0,1-1.81.91,8.772,8.772,0,0,1-4.139.242c-3.4-.567-6.578-2.2-9.653-3.682a22.08,22.08,0,0,1-7.149-5.363,15.491,15.491,0,0,1-3.406-6.585,21.937,21.937,0,0,1-.8-6.2A45.533,45.533,0,0,1,46.6,263.56a37.711,37.711,0,0,1,8.982-13.586,29.082,29.082,0,0,1,6.2-4.941,20.287,20.287,0,0,1,8.784-2.276,29.289,29.289,0,0,1,3.688.1,20.55,20.55,0,0,1,2.96.452,32.6,32.6,0,0,1,3.646.987,26.429,26.429,0,0,1,11.226,7.177c1.463,1.618,3.073,3.874,3.389,6.227.282,2.1-.663,5.4-2.928,5.035a15.172,15.172,0,0,1-4.16-1.8c-1.8-.9-3.622-1.763-5.439-2.63-3.3-1.573-6.618-3.116-9.875-4.776-3.2-1.633-6.042,3.2-2.827,4.835,3.328,1.7,6.716,3.27,10.087,4.878,1.805.861,3.616,1.713,5.4,2.617a25.3,25.3,0,0,0,4.983,2.2,8.021,8.021,0,0,0,9.324-4.462,12.625,12.625,0,0,0-.2-10.557c-2.257-5.137-7.181-9.269-12.049-11.824a34.844,34.844,0,0,0-16.616-4.066,25.514,25.514,0,0,0-15.863,5.6A44.515,44.515,0,0,0,42.647,258.6a49.964,49.964,0,0,0-4.316,19.744c-.17,6.205,1.038,12.383,4.939,17.349a25.5,25.5,0,0,0,8.225,6.852,47.481,47.481,0,0,0,11.315,4.588c3.858.836,8.1.54,11.339-1.935a11.535,11.535,0,0,0,4.17-8.089,6.744,6.744,0,0,0-1.186-4.45,2.887,2.887,0,0,0-3.831-1,2.819,2.819,0,0,0-1,3.831Z"/><path class="c" d="M210.644,255.521c-3.941-1.611-9.482-.821-12.414,2.465-2.712,3.04-3.428,7.751-2.772,11.645a33.648,33.648,0,0,0,4.413,11.92,14,14,0,0,0,10.632,6.5,2.818,2.818,0,0,0,2.8-2.8,2.865,2.865,0,0,0-2.8-2.8c-6.021-.666-8.331-8.088-9.431-13.2a9.669,9.669,0,0,1,1.1-7.26,3.309,3.309,0,0,1,.741-.684,6.124,6.124,0,0,1,1.58-.71,6.752,6.752,0,0,1,4.657.323c1.4.572,3.078-.622,3.445-1.956a2.869,2.869,0,0,0-1.956-3.444Z"/><path class="a" d="M243.58,241.309c-11.434-4.08-27.425,1.231-33.605,12.06-2.376,4.162-2.325,10.983,4.159,12.636-4.1,3.735-4.512,8.518-2.21,12.188,1.088,1.734,3.755,2.553,5.73,2.619a12.9,12.9,0,0,0,3.223-.306l-.285.306A7.856,7.856,0,0,0,218.828,288a9.021,9.021,0,0,0,3.667,5.965c2.7,1.67,7.385.866,9.775-.369l.472-.244-.589.718c-2.189,2.671.448,7.734,2.435,9.049,5.721,3.785,12.372.37,18.851-2.733,5-2.4,9.683-7.317,11.047-12.06,1.1-3.81,1.567-6.648,1.078-13.263-.87-11.773-5.713-22.387-16.661-30.871A19.179,19.179,0,0,0,243.58,241.309Z"/><path class="c" d="M211.507,264.654a12.694,12.694,0,0,0-3.745,9.577c.288,3.327,1.823,6.693,4.97,8.18,7.019,3.316,13.956-1.128,20.194-4.121,3.653-1.753,7.315-3.489,10.918-5.344,3.205-1.65.375-6.484-2.827-4.835-3.406,1.753-6.866,3.4-10.32,5.057-3.182,1.526-6.393,3.513-9.81,4.45a10.269,10.269,0,0,1-2.358.392,6.359,6.359,0,0,1-2.034-.165,3.239,3.239,0,0,1-2.512-1.687c-1.322-2.551-.527-5.381,1.484-7.545,2.451-2.637-1.5-6.606-3.96-3.959Z"/><path class="c" d="M218.612,278.832a11.528,11.528,0,0,0-1.75,12.277,10.069,10.069,0,0,0,10.095,6.591c4.412-.173,8.007-2.381,11.9-4.214a122.066,122.066,0,0,0,12.026-6.058c3.066-1.883.256-6.728-2.826-4.836a95.6,95.6,0,0,1-9.584,4.914c-1.76.825-3.522,1.643-5.269,2.5-.866.423-1.716.9-2.593,1.3.386-.177-.459.17-.451.167-.368.126-.743.233-1.121.327-2.493.616-5,.639-6.417-1.632a7.489,7.489,0,0,1-.905-2.084,10.647,10.647,0,0,1-.237-1.1c.073.453-.043-.487-.048-.6a4.736,4.736,0,0,1,1.141-3.585,2.868,2.868,0,0,0,0-3.96,2.827,2.827,0,0,0-3.96,0Z"/><path class="c" d="M229.736,292.655c-2.04,2.719-1.2,6.56.307,9.311a10.738,10.738,0,0,0,8.049,5.434c4.069.609,7.974-.658,11.674-2.239a40.686,40.686,0,0,0,10.176-5.718,22.856,22.856,0,0,0,6.5-8.379,27.828,27.828,0,0,0,1.98-8.32,48.325,48.325,0,0,0-2.276-19.328A43.744,43.744,0,0,0,255.532,246.3c-4.318-4.322-9.2-7.751-15.335-8.73-11.4-1.819-24.053,2.7-31.066,12.019a15.639,15.639,0,0,0-3.379,8.646c-.186,3.63,1.49,7.648,4.876,9.334,3.662,1.824,7.205-.037,10.506-1.71,3.6-1.825,7.277-3.5,10.915-5.246,1.531-.735,3.058-1.478,4.571-2.249,3.212-1.637.382-6.47-2.826-4.835-2.912,1.484-5.872,2.871-8.823,4.275-3.03,1.442-6.006,3.105-9.085,4.43a4.175,4.175,0,0,1-2.432.5,3.551,3.551,0,0,1-1.968-2.613,8.246,8.246,0,0,1,1.53-6.357,24.108,24.108,0,0,1,10.15-8.346,28.71,28.71,0,0,1,13.134-2.656,20.449,20.449,0,0,1,6.275,1.161,18.22,18.22,0,0,1,5.347,3.045,40.9,40.9,0,0,1,10.919,13.325,40.419,40.419,0,0,1,3.957,15.251c.1,1.49.172,2.985.157,4.479-.006.658-.028,1.316-.074,1.973q-.025.377-.062.753c-.01.107-.13,1.049-.056.537a19.747,19.747,0,0,1-1.781,6.278,19.425,19.425,0,0,1-6.552,7.048,40.833,40.833,0,0,1-10.193,4.684,12.281,12.281,0,0,1-5,.652,7.247,7.247,0,0,1-2.007-.538c-.3-.132-.566-.323-.854-.469q-.666-.451-.153-.06c-.123-.1-.24-.213-.353-.328a7.643,7.643,0,0,1-1.516-2.648c-.363-1.211-.356-1.653.218-2.418a2.818,2.818,0,0,0-1-3.831,2.867,2.867,0,0,0-3.831,1Z"/><path class="a" d="M304.832,288.228c-40.685-9.067-103.343-13.427-151.04-13.427s-110.354,4.36-151.04,13.427v23.584a4,4,0,0,0,4,4h294.08a4,4,0,0,0,4-4Z"/><path class="c" d="M305.576,285.528c-18.439-4.1-37.234-6.6-56.007-8.563-20.828-2.178-41.742-3.564-62.668-4.332q-29.377-1.08-58.772-.246-31.351.912-62.61,3.83a556.983,556.983,0,0,0-57.553,8.048q-2.985.6-5.958,1.263c-3.517.781-2.028,6.181,1.489,5.4a484.77,484.77,0,0,1,55.016-8.415c20.663-2.147,41.411-3.518,62.17-4.28q29.377-1.08,58.772-.246,30.974.9,61.855,3.758a545.341,545.341,0,0,1,56.82,7.92q2.985.6,5.958,1.263c3.511.78,5.01-4.618,1.488-5.4Z"/></svg>