<?xml version="1.0" encoding="utf-8"?>

<!DOCTYPE svg PUBLIC "-//W3C//DTD SVG 1.1//EN" "http://www.w3.org/Graphics/SVG/1.1/DTD/svg11.dtd">
<!-- Uploaded to: SVG Repo, www.svgrepo.com, Generator: SVG Repo Mixer Tools -->
<svg height="800px" width="800px" version="1.1" id="_x32_" xmlns="http://www.w3.org/2000/svg" xmlns:xlink="http://www.w3.org/1999/xlink" 
	 viewBox="0 0 512 512"  xml:space="preserve">
<style type="text/css">
	.st0{fill:#000000;}
</style>
<g>
	<path class="st0" d="M128.786,273.797c-39.318,0-71.198,31.874-71.198,71.204c0,39.318,31.88,71.192,71.198,71.192
		c39.324,0,71.204-31.874,71.204-71.192C199.991,305.671,168.11,273.797,128.786,273.797z M128.786,375.035
		c-16.589,0-30.039-13.45-30.039-30.033c0-16.589,13.45-30.039,30.039-30.039c16.596,0,30.04,13.45,30.04,30.039
		C158.826,361.585,145.382,375.035,128.786,375.035z"/>
	<path class="st0" d="M388.445,273.797c-39.324,0-71.198,31.874-71.198,71.204c0,39.318,31.874,71.192,71.198,71.192
		c39.324,0,71.198-31.874,71.198-71.192C459.643,305.671,427.769,273.797,388.445,273.797z M388.445,375.035
		c-16.589,0-30.039-13.45-30.039-30.033c0-16.589,13.45-30.039,30.039-30.039c16.59,0,30.046,13.45,30.046,30.039
		C418.492,361.585,405.035,375.035,388.445,375.035z"/>
	<path class="st0" d="M499.967,212.99l-36.854-45.184c-10.146-12.437-25.344-19.649-41.397-19.649h-91.893v77.482H308.87v-6.278
		v-83.774v-6.278h90.052V95.807H271.175v33.503v6.278H0v90.052l169.474,32.165c32.808,15.378,55.642,48.629,55.642,87.198
		c0,0.709-0.093,1.384-0.1,2.087h67.205c-0.007-0.702-0.106-1.378-0.106-2.087c0-53.118,43.218-96.336,96.33-96.336
		c48.119,0,87.993,35.502,95.085,81.667h10.662c9.834,0,17.807-7.973,17.807-17.807v-65.774
		C512,234.447,507.749,222.52,499.967,212.99z M73.813,216.811l-17.278-3.066v-53.026h17.278V216.811z M147.634,229.944
		l-17.278-3.08v-66.145h17.278V229.944z M221.448,243.142l-17.278-3.072v-79.35h17.278V243.142z M368.77,220.189v-41.887h54.205
		c4.748,0,9.185,2.106,12.186,5.781l29.45,36.106H368.77z"/>
</g>
</svg>