<?xml version="1.0" encoding="iso-8859-1"?>
<!-- Uploaded to: SVG Repo, www.svgrepo.com, Generator: SVG Repo Mixer Tools -->
<svg height="800px" width="800px" version="1.1" id="Layer_1" xmlns="http://www.w3.org/2000/svg" xmlns:xlink="http://www.w3.org/1999/xlink" 
	 viewBox="0 0 512 512" xml:space="preserve">
<path style="fill:#F4BA48;" d="M503.322,177.898l-8.678-77.234c0-10.414-7.81-18.224-18.224-18.224h-42.522H208.271v90.251
	c0,28.637,19.959,53.803,47.729,59.878l0,0c42.522,9.546,87.647,9.546,130.169,0l47.729-11.281v137.98
	c0,12.149-4.339,23.431-13.017,31.241l-3.471,3.471c-6.075,6.075-9.546,14.753-9.546,23.431v5.207c0,8.678,6.942,15.62,15.62,15.62
	h10.414h52.068h8.678c9.546,0,17.356-7.81,17.356-17.356V308.068L503.322,177.898z"/>
<path style="fill:#C3C7CB;" d="M104.136,160.542H8.678c-5.207,0-8.678-3.471-8.678-8.678s3.471-8.678,8.678-8.678h95.458
	c5.207,0,8.678,3.471,8.678,8.678S109.342,160.542,104.136,160.542"/>
<g>
	<path style="fill:#565656;" d="M173.559,195.254h-43.39c-14.753,0-26.034-11.281-26.034-26.034v-34.712
		c0-14.753,11.281-26.034,26.034-26.034h43.39V195.254z"/>
	<path style="fill:#565656;" d="M173.559,264.678h34.712V73.763h-34.712V264.678z"/>
</g>
<path style="fill:#C3C7CB;" d="M225.627,438.237h-69.424l8.678-17.356V299.39l-17.356-34.712h86.78l-17.356,34.712v121.492
	L225.627,438.237z"/>
<g>
	<path style="fill:#565656;" d="M451.254,125.831h-52.068c-5.207,0-8.678-3.471-8.678-8.678s3.471-8.678,8.678-8.678h52.068
		c5.207,0,8.678,3.471,8.678,8.678S456.461,125.831,451.254,125.831"/>
	<path style="fill:#565656;" d="M451.254,160.542h-52.068c-5.207,0-8.678-3.471-8.678-8.678s3.471-8.678,8.678-8.678h52.068
		c5.207,0,8.678,3.471,8.678,8.678S456.461,160.542,451.254,160.542"/>
	<path style="fill:#565656;" d="M433.898,221.288l-43.39,10.414l17.356,59.01h26.034V221.288z"/>
	<path style="fill:#565656;" d="M251.661,117.153v69.424h69.424C321.085,151.864,286.373,117.153,251.661,117.153"/>
	<path style="fill:#565656;" d="M477.288,342.78c-5.207,0-8.678,3.471-8.678,8.678c0,5.207,3.471,8.678,8.678,8.678H512V342.78
		H477.288z"/>
	<path style="fill:#565656;" d="M477.288,377.492c-5.207,0-8.678,3.471-8.678,8.678s3.471,8.678,8.678,8.678H512v-17.356H477.288z"
		/>
</g>
</svg>