<?xml version="1.0" encoding="utf-8"?>
<!-- Uploaded to: SVG Repo, www.svgrepo.com, Generator: SVG Repo Mixer Tools -->
<svg width="800px" height="800px" viewBox="0 0 1024 1024" class="icon"  version="1.1" xmlns="http://www.w3.org/2000/svg"><path d="M512 512m-69.6 0a69.6 69.6 0 1 0 139.2 0 69.6 69.6 0 1 0-139.2 0Z" fill="#00B36A" /><path d="M512 599.3c-48.2 0-87.3-39.2-87.3-87.3 0-48.2 39.2-87.3 87.3-87.3 48.2 0 87.3 39.2 87.3 87.3 0 48.1-39.1 87.3-87.3 87.3z m0-139.2c-28.6 0-51.9 23.3-51.9 51.9 0 28.6 23.3 51.9 51.9 51.9 28.6 0 51.9-23.3 51.9-51.9 0-28.6-23.3-51.9-51.9-51.9z" fill="#1A1A1A" /><path d="M511.1 954.8c-89.1 0-176-26.9-250.8-78.7C163 808.8 97.7 707.7 76.5 591.4c-43.8-240.1 116-471.1 356.1-514.9 116.3-21.2 233.9 4.2 331.2 71.4 97.2 67.3 162.5 168.4 183.7 284.7 14.3 78.7 7.2 159.7-20.7 234.2-4.3 11.4-17 17.3-28.5 13-11.4-4.3-17.3-17-13-28.5 25.1-67.1 31.5-139.9 18.6-210.8-19.1-104.7-77.8-195.7-165.3-256.2-87.5-60.5-193.4-83.4-298.1-64.3-216.1 39.5-359.8 247.3-320.4 463.5 19.1 104.7 77.8 195.7 165.3 256.2 87.5 60.5 193.4 83.3 298.1 64.3 43.2-7.9 84.4-22.6 122.4-43.8 10.7-5.9 24.2-2.1 30.1 8.6 5.9 10.7 2.1 24.2-8.6 30.1-42.2 23.5-88 39.9-136 48.6-26.8 4.8-53.7 7.3-80.3 7.3z" fill="#1A1A1A" /><path d="M424.9 603.8c13.4 12.1 23 28.2 20.7 37.2l-52.1 110.3c-21 55.4-67.2 77.7-130.5 14.4-53.5-53.5-38.9-100.2 18.7-125.4l104.6-53.6c8.9-2.6 25.5 5.2 38.6 17.1z" fill="#00B36A" /><path d="M263 765.7c63.3 63.3 109.6 41.1 130.5-14.4l22.4-60c-59.4 46.4-50.1 90.9-157.4 69.8 1.5 1.6 3 3.1 4.5 4.6z" fill="#009957" /><path d="M333.9 821.8c-26.4 0-54.5-14.7-83.4-43.5-37.6-37.6-41-69.1-37.3-88.9 3.6-19 17.1-45.7 60.9-65.1l105.6-54.1 1.5-0.5c2.8-0.9 5.9-1.3 9-1.3 16.2 0 34.7 11.4 46.5 22.1 15.7 14.2 30.8 36.1 25.9 54.8l-0.4 1.6-52.5 111.2c-15.3 40.6-43 63.7-75.8 63.7zM391.4 604l-102.6 52.5c-16.6 7.3-37.2 20-40.8 39.4-3.9 20.7 12.8 42.6 27.5 57.3 21.7 21.7 41.9 33.2 58.4 33.2 23.9 0 37.3-25.9 43.1-41.3l0.6-1.3L428 636.9c-1.2-3.8-6.1-12-14.9-20-9-8.1-17.9-12.1-21.7-12.9z" fill="#1A1A1A" /><path d="M593.3 609.6c12.1-13.4 28.2-23 37.2-20.7L740.8 641c55.4 21 77.7 67.2 14.4 130.5-53.5 53.5-100.2 38.9-125.4-18.7l-53.6-104.6c-2.7-8.9 5.1-25.4 17.1-38.6z" fill="#00B36A" /><path d="M755.2 771.6c63.3-63.3 41.1-109.6-14.4-130.5l-60-22.4c46.4 59.4 90.9 50.1 69.8 157.4 1.5-1.6 3.1-3 4.6-4.5z" fill="#009957" /><path d="M691.6 822.5c-32.5 0-60.2-22.1-77.8-62.1l-54.1-105.6-0.5-1.5c-5.4-17.9 7.2-40.4 20.9-55.5 11.7-13 30.4-26.9 47.4-26.9 2.6 0 5.1 0.3 7.4 0.9l1.6 0.4 111.2 52.5c34.3 13.1 56.3 35 62 61.6 6.6 30.4-7.6 63.3-42 97.8-25.5 25.5-51.1 38.4-76.1 38.4z m-98.1-179.4L646 745.7c8.3 18.9 22.9 41.4 45.6 41.4 15 0 32.7-9.7 51.1-28.1 25-25 36.3-47.6 32.5-65.3-4.2-19.7-27.3-31.1-40.6-36.2l-1.3-0.6-106.9-50.5c-3.6 1.2-11.9 6-19.9 14.9-8.2 9.2-12.2 18-13 21.8z" fill="#1A1A1A" /><path d="M599.1 441.3c-13.4-12.1-23-28.2-20.7-37.2l52.1-110.3c21-55.4 67.2-77.7 130.5-14.4 53.5 53.5 38.9 100.2-18.7 125.4l-104.6 53.6c-8.9 2.6-25.4-5.2-38.6-17.1z" fill="#00B36A" /><path d="M761 279.4c-63.3-63.3-109.6-41.1-130.5 14.4l-22.4 60c59.4-46.4 50.1-90.9 157.4-69.8-1.5-1.6-2.9-3.1-4.5-4.6z" fill="#009957" /><path d="M633.7 476.6c-16 0-33.8-10.7-46.5-22.1-15.7-14.2-30.8-36.1-25.9-54.8l0.4-1.6 52.5-111.2c13.1-34.3 35-56.3 61.6-62 30.4-6.6 63.3 7.6 97.8 42l-25 25c-25-25-47.6-36.3-65.3-32.5-19.7 4.2-31.1 27.3-36.2 40.6l-0.6 1.3L596 408.2c1.2 3.8 6.1 12 14.9 20 9 8.1 17.8 12.1 21.6 12.9l101.6-52c8.7-4.5 19.4-1 23.8 7.7 4.5 8.7 1 19.4-7.7 23.8l-106.1 54.3-1.5 0.5c-2.8 0.8-5.8 1.2-8.9 1.2z" fill="#1A1A1A" /><path d="M430.8 435.5c-12.1 13.4-28.2 23-37.2 20.7l-110.3-52.1c-55.4-21-77.7-67.2-14.4-130.5 53.5-53.5 100.2-38.9 125.4 18.7l53.6 104.6c2.6 8.9-5.2 25.4-17.1 38.6z" fill="#00B36A" /><path d="M268.8 273.5c-63.3 63.3-41.1 109.6 14.4 130.5l60 22.4c-46.4-59.4-90.9-50.1-69.8-157.4-1.5 1.5-3 3-4.6 4.5z" fill="#009957" /><path d="M396.5 474.2c-2.6 0-5.1-0.3-7.4-0.9l-1.6-0.4-111.2-52.5c-34.3-13.1-56.3-35-62-61.6-6.5-30.4 7.6-63.3 42-97.8 25.5-25.5 51.1-38.4 76.1-38.4 32.5 0 60.2 22.1 77.8 62.1l54.1 105.6 0.5 1.5c5.4 17.9-7.2 40.4-20.9 55.5-11.7 13-30.3 26.9-47.4 26.9zM332.4 258c-15 0-32.7 9.7-51.1 28.1-25 25-36.3 47.6-32.5 65.3 4.2 19.7 27.3 31.1 40.6 36.2l1.3 0.6 106.9 50.5c3.8-1.2 12-6.1 20-14.9 8.1-9 12.1-17.8 12.9-21.6L378 299.4c-8.2-18.9-22.9-41.4-45.6-41.4z" fill="#1A1A1A" /></svg>