<?xml version="1.0" encoding="iso-8859-1"?>
<!-- Uploaded to: SVG Repo, www.svgrepo.com, Generator: SVG Repo Mixer Tools -->
<svg version="1.1" id="Layer_1" xmlns="http://www.w3.org/2000/svg" xmlns:xlink="http://www.w3.org/1999/xlink" 
	 viewBox="0 0 512 512" xml:space="preserve">
<rect x="61.2" y="137.541" style="fill:#EFEFEF;" width="389.606" height="342.221"/>
<path style="fill:#EB4E49;" d="M456.838,32.239c-133.892,0-267.785,0-401.677,0c-14.877,35.1-29.753,70.2-44.631,105.299
	c163.646,0,327.293,0,490.939,0C486.593,102.439,471.716,67.34,456.838,32.239z"/>
<rect x="108.584" y="179.661" style="fill:#FBA026;" width="294.837" height="42.997"/>
<rect x="108.584" y="265.648" style="fill:#747D8C;" width="294.837" height="42.997"/>
<g>
	<rect x="146.492" y="308.652" style="fill:#FAC51C;" width="219.022" height="42.997"/>
	<polygon style="fill:#FAC51C;" points="146.489,351.647 146.489,394.643 146.489,437.64 365.511,437.64 365.511,394.643 
		365.511,351.647 	"/>
	<rect x="146.492" y="437.643" style="fill:#FAC51C;" width="219.022" height="42.12"/>
</g>
<g>
	<path style="fill:#231F20;" d="M511.165,133.429L466.534,28.131c-1.649-3.892-5.467-6.421-9.695-6.421H55.161
		c-4.228,0-8.046,2.528-9.695,6.421L0.835,133.429c-1.379,3.252-1.034,6.978,0.916,9.923s5.246,4.716,8.779,4.716h40.137v321.162
		h-30.01c-5.815,0-10.53,4.714-10.53,10.53s4.715,10.53,10.53,10.53h470.686c5.815,0,10.53-4.714,10.53-10.53
		s-4.715-10.53-10.53-10.53h-30.01V148.069h40.137c3.532,0,6.829-1.771,8.779-4.716
		C512.199,140.408,512.544,136.681,511.165,133.429z M157.019,405.173h85.468c5.815,0,10.53-4.714,10.53-10.53
		s-4.715-10.53-10.53-10.53h-85.468v-21.937h197.962v21.937h-24.043c-5.815,0-10.53,4.714-10.53,10.53s4.715,10.53,10.53,10.53
		h24.043v21.937H157.019V405.173z M119.111,298.119v-21.937h273.777v21.937H119.111z M354.981,319.179v21.937H157.019v-21.937
		H354.981z M157.019,469.23v-21.06h197.962v21.06H157.019z M440.273,469.23H376.04V319.179h27.378c5.815,0,10.53-4.714,10.53-10.53
		v-42.998c0-5.816-4.715-10.53-10.53-10.53H108.581c-5.815,0-10.53,4.714-10.53,10.53v42.998c0,5.816,4.715,10.53,10.53,10.53
		h27.378V469.23H71.727V148.068h368.546V469.23z M26.43,127.008l35.705-84.239h387.73l35.705,84.239H26.43z"/>
	<path style="fill:#231F20;" d="M108.581,233.185h294.837c5.815,0,10.53-4.714,10.53-10.53v-42.997c0-5.816-4.715-10.53-10.53-10.53
		H108.581c-5.815,0-10.53,4.714-10.53,10.53v42.997C98.051,228.471,102.767,233.185,108.581,233.185z M119.111,190.188h273.777
		v21.937H119.111C119.111,212.125,119.111,190.188,119.111,190.188z"/>
	<path style="fill:#231F20;" d="M285.659,384.113h-1.053c-5.815,0-10.53,4.714-10.53,10.53s4.715,10.53,10.53,10.53h1.053
		c5.815,0,10.53-4.714,10.53-10.53S291.475,384.113,285.659,384.113z"/>
</g>
</svg>