<?xml version="1.0" encoding="iso-8859-1"?>
<!-- Uploaded to: SVG Repo, www.svgrepo.com, Generator: SVG Repo Mixer Tools -->
<svg height="800px" width="800px" version="1.1" id="Layer_1" xmlns="http://www.w3.org/2000/svg" xmlns:xlink="http://www.w3.org/1999/xlink" 
	 viewBox="0 0 512 512" xml:space="preserve">
<path style="fill:#D5DCED;" d="M379.259,464.593h-9.482c-5.241,0-9.481-4.241-9.481-9.481s4.241-9.481,9.481-9.481h9.482
	c49.407,0,89.999-37.056,94.426-86.185l0.398-9.056c0.241-5.231,4.787-9.297,9.899-9.047c5.231,0.231,9.278,4.666,9.047,9.899
	l-0.425,9.482C487.259,420.12,438.546,464.593,379.259,464.593z"/>
<g>
	<path style="fill:#FF5050;" d="M360.296,512H75.852c-10.473,0-18.963-8.489-18.963-18.963v-75.852
		c0-10.473,8.489-18.963,18.963-18.963h284.444c10.473,0,18.963,8.489,18.963,18.963v75.852
		C379.259,503.509,370.769,512,360.296,512z"/>
	<circle style="fill:#FF5050;" cx="218.074" cy="218.074" r="218.074"/>
</g>
<path style="fill:#C84146;" d="M265.481,388.741c-120.439,0-218.074-97.636-218.074-218.074c0-48.122,15.621-92.578,42.021-128.646
	C35.226,81.695,0,145.756,0,218.074c0,120.439,97.634,218.074,218.074,218.074c72.316,0,136.378-35.226,176.052-89.428
	C358.059,373.12,313.602,388.741,265.481,388.741z"/>
<circle style="fill:#E4EAF8;" cx="218.074" cy="218.074" r="66.37"/>
<g>
	<path style="fill:#FF7873;" d="M319.935,81.324c-2.315,0-4.648-0.676-6.703-2.084c-4.065-2.796-8.324-5.445-12.658-7.879
		c-5.703-3.213-7.723-10.444-4.518-16.148c3.213-5.703,10.436-7.713,16.148-4.518c4.935,2.788,9.805,5.815,14.453,9.01
		c5.398,3.704,6.759,11.084,3.055,16.481C327.417,79.527,323.704,81.324,319.935,81.324z"/>
	<path style="fill:#FF7873;" d="M394.028,191.138c-5.445,0-10.351-3.769-11.565-9.306c-6.259-28.51-19.991-55.065-39.704-76.796
		c-4.398-4.852-4.037-12.343,0.815-16.741c4.843-4.379,12.342-4.046,16.741,0.815c22.491,24.787,38.157,55.092,45.297,87.629
		c1.408,6.398-2.639,12.722-9.028,14.12C395.721,191.055,394.871,191.138,394.028,191.138z"/>
</g>
<circle style="fill:#AFB9D2;" cx="218.074" cy="218.074" r="28.444"/>
<g>
	<circle style="fill:#707487;" cx="94.815" cy="436.148" r="9.481"/>
	<circle style="fill:#707487;" cx="94.815" cy="474.074" r="9.481"/>
	<circle style="fill:#707487;" cx="341.333" cy="436.148" r="9.481"/>
	<circle style="fill:#707487;" cx="341.333" cy="474.074" r="9.481"/>
</g>
<path style="fill:#C7CFE2;" d="M483.981,341.343c-5.112-0.25-9.657,3.815-9.899,9.047l-0.398,9.056
	c-0.551,6.116-1.665,12.041-3.284,17.734c4.203,1.221,8.558,2.08,13.154,2.08c2.024,0,3.953-0.348,5.91-0.595
	c1.453-5.813,2.581-11.774,3.136-17.941l0.425-9.482C493.259,346.009,489.212,341.574,483.981,341.343z"/>
<circle style="fill:#5B5D6E;" cx="483.556" cy="331.852" r="28.444"/>
<path style="fill:#464655;" d="M497.778,346.074c-15.71,0-28.444-12.735-28.444-28.444c0-4.168,0.946-8.098,2.558-11.665
	c-9.877,4.46-16.78,14.345-16.78,25.887c0,15.71,12.735,28.444,28.444,28.444c11.541,0,21.427-6.903,25.887-16.78
	C505.875,345.127,501.946,346.074,497.778,346.074z"/>
</svg>