<?xml version="1.0" encoding="iso-8859-1"?>
<!-- Uploaded to: SVG Repo, www.svgrepo.com, Generator: SVG Repo Mixer Tools -->
<svg height="800px" width="800px" version="1.1" id="Layer_1" xmlns="http://www.w3.org/2000/svg" xmlns:xlink="http://www.w3.org/1999/xlink" 
	 viewBox="0 0 290.625 290.625" xml:space="preserve">
<g>
	<g>
		<circle style="fill:#F9BA48;" cx="70.313" cy="112.5" r="28.125"/>
		<path style="fill:#333333;" d="M225,0c-36.188,0-65.625,29.438-65.625,65.625V225c0,36.188,29.438,65.625,65.625,65.625
			s65.625-29.438,65.625-65.625V65.625C290.625,29.438,261.188,0,225,0z M258.117,20.259c0.577,1.669,2.039,2.855,3.844,3.07
			c3.295,2.883,6.248,6.136,8.798,9.708c-2.034,0.511-3.572,2.269-3.572,4.462c0,2.588,2.1,4.688,4.688,4.688
			c1.378,0,2.583-0.614,3.441-1.561c1.781,3.567,3.183,7.345,4.177,11.292c-1.716,0.694-2.93,2.367-2.93,4.331
			c0,2.503,1.978,4.509,4.448,4.641c0.131,1.566,0.239,3.136,0.239,4.734v23.438h-112.5V65.625c0-1.598,0.108-3.169,0.239-4.734
			c2.47-0.131,4.448-2.137,4.448-4.641c0-1.964-1.214-3.638-2.93-4.331c0.994-3.947,2.395-7.725,4.177-11.292
			c0.858,0.947,2.063,1.561,3.441,1.561c2.587,0,4.688-2.1,4.688-4.688c0-2.194-1.537-3.952-3.577-4.462
			c2.55-3.572,5.503-6.825,8.798-9.708c1.805-0.216,3.272-1.402,3.844-3.07c9.31-6.811,20.733-10.885,33.122-10.885
			S248.813,13.449,258.117,20.259z M281.25,117.188v56.25h-112.5v-56.25h98.438v-9.375H168.75v-9.375h112.5v9.375h-4.688v9.375
			H281.25z M281.25,182.813v9.375h-112.5v-9.375H281.25z M191.883,270.366c-0.577-1.669-2.039-2.855-3.844-3.07
			c-3.295-2.883-6.248-6.136-8.798-9.708c2.034-0.511,3.572-2.269,3.572-4.463c0-2.587-2.1-4.688-4.688-4.688
			c-1.378,0-2.583,0.619-3.441,1.561c-1.781-3.567-3.183-7.345-4.177-11.292c1.716-0.694,2.93-2.367,2.93-4.331
			c0-2.503-1.978-4.509-4.448-4.641c-0.131-1.566-0.239-3.136-0.239-4.734v-23.438h112.5V225c0,1.598-0.108,3.169-0.239,4.734
			c-2.47,0.131-4.448,2.137-4.448,4.641c0,1.964,1.214,3.638,2.93,4.331c-0.994,3.947-2.395,7.725-4.177,11.292
			c-0.858-0.942-2.063-1.561-3.441-1.561c-2.587,0-4.688,2.1-4.688,4.688c0,2.194,1.538,3.952,3.577,4.462
			c-2.55,3.572-5.503,6.825-8.798,9.708c-1.805,0.216-3.272,1.402-3.844,3.07c-9.309,6.811-20.733,10.884-33.122,10.884
			C212.611,281.25,201.188,277.177,191.883,270.366z"/>
		<circle style="fill:#333333;" cx="178.125" cy="75" r="4.688"/>
		<circle style="fill:#333333;" cx="196.875" cy="75" r="4.688"/>
		<circle style="fill:#333333;" cx="215.625" cy="75" r="4.688"/>
		<circle style="fill:#333333;" cx="234.375" cy="75" r="4.688"/>
		<circle style="fill:#333333;" cx="253.125" cy="75" r="4.688"/>
		<circle style="fill:#333333;" cx="271.875" cy="75" r="4.688"/>
		<circle style="fill:#333333;" cx="187.5" cy="56.25" r="4.688"/>
		<circle style="fill:#333333;" cx="206.25" cy="56.25" r="4.688"/>
		<circle style="fill:#333333;" cx="225" cy="56.25" r="4.688"/>
		<circle style="fill:#333333;" cx="243.75" cy="56.25" r="4.688"/>
		<circle style="fill:#333333;" cx="262.5" cy="56.25" r="4.688"/>
		<circle style="fill:#333333;" cx="196.875" cy="37.5" r="4.688"/>
		<circle style="fill:#333333;" cx="215.625" cy="37.5" r="4.688"/>
		<circle style="fill:#333333;" cx="234.375" cy="37.5" r="4.688"/>
		<circle style="fill:#333333;" cx="253.125" cy="37.5" r="4.688"/>
		<circle style="fill:#333333;" cx="206.25" cy="18.75" r="4.688"/>
		<circle style="fill:#333333;" cx="225" cy="18.75" r="4.688"/>
		<circle style="fill:#333333;" cx="243.75" cy="18.75" r="4.688"/>
		<circle style="fill:#333333;" cx="178.125" cy="215.625" r="4.688"/>
		<circle style="fill:#333333;" cx="196.875" cy="215.625" r="4.688"/>
		<circle style="fill:#333333;" cx="215.625" cy="215.625" r="4.688"/>
		<circle style="fill:#333333;" cx="234.375" cy="215.625" r="4.688"/>
		<circle style="fill:#333333;" cx="253.125" cy="215.625" r="4.688"/>
		<circle style="fill:#333333;" cx="271.875" cy="215.625" r="4.688"/>
		<circle style="fill:#333333;" cx="187.5" cy="234.375" r="4.688"/>
		<circle style="fill:#333333;" cx="206.25" cy="234.375" r="4.688"/>
		<circle style="fill:#333333;" cx="225" cy="234.375" r="4.688"/>
		<circle style="fill:#333333;" cx="243.75" cy="234.375" r="4.688"/>
		<circle style="fill:#333333;" cx="262.5" cy="234.375" r="4.688"/>
		<circle style="fill:#333333;" cx="196.875" cy="253.125" r="4.688"/>
		<circle style="fill:#333333;" cx="215.625" cy="253.125" r="4.688"/>
		<circle style="fill:#333333;" cx="234.375" cy="253.125" r="4.688"/>
		<circle style="fill:#333333;" cx="253.125" cy="253.125" r="4.688"/>
		<circle style="fill:#333333;" cx="206.25" cy="271.875" r="4.688"/>
		<circle style="fill:#333333;" cx="225" cy="271.875" r="4.688"/>
		<circle style="fill:#333333;" cx="243.75" cy="271.875" r="4.688"/>
		<path style="fill:#333333;" d="M121.852,69.858l-0.084-0.867L112.5,50.456V0H28.125v50.456l-9.272,18.539L0,262.5v28.125h140.625
			l-0.023-28.58L121.852,69.858z M20.372,150l7.317-75h85.242l7.327,75h-12.445v9.375h13.364l9.614,98.438H9.853l9.605-98.438h78.98
			V150H20.372z M31.022,65.625l4.688-9.375h69.206l4.688,9.375H31.022z M37.5,9.375h65.625v37.5H37.5V9.375z M9.37,281.25
			l-0.014-14.063H131.25v14.063H9.37z"/>
		<polygon style="fill:#333333;" points="75,98.438 65.625,98.438 65.625,107.813 56.25,107.813 56.25,117.188 65.625,117.188 
			65.625,126.563 75,126.563 75,117.188 84.375,117.188 84.375,107.813 75,107.813 		"/>
	</g>
</g>
</svg>