<?xml version="1.0" encoding="UTF-8"?>
<svg version="1.1" viewBox="0 0 1600 1234" width="1280" height="1280" xmlns="http://www.w3.org/2000/svg">
<path transform="translate(0)" d="m0 0h1600v1234h-1600z" fill="#CD3F33"/>
<path transform="translate(0)" d="m0 0h1600v1234h-462v-2l19-6 23-5 42-14 20-7 20-8 17-6 10-4 36-18 11-7 15-10 7-8 4-10v-8l-4-13-4-7-3-10v-3h-2v-3h-2l-5-9 2-70 6-98 3-41 1-6 8-1v-2l16-4 22-11h3v-2l21-14 4-4h2v-2l8-7 11-11 7-8 16-23 14-26 10-24 9-28 6-22 6-35 4-33v-36l-4-35-5-33-7-26-11-33-12-26-11-20-13-19-8-10-11-13-13-13-10-8-14-10-15-9-24-10-17-5-23-3-30-1-1-1v-23l-4-10-8-10-8-5h-12l-10 4-8 9-12 23-7 14h-74l-80-1-6-2-3-5v-32h3l-2-8 1-47 1-4-6-1 1 3-3 2h-6l-2-4-4-1-1-4-6-2v-1l6-1h19v-3h-16l-3-1v-12l6-3h8l4 3 1 7 2 1v-15l8-1 21-1 14-2 1-9-11 1v3h3l-1 4-5 1-10 1h-20v-4l2-1-3-3-12 1v9l-14-1-1-4h8v-4h-3l1-4 5-3-2-1v-8h-13l1 10 1 4-1 1v24l1 5v15h-2l2 9-5 3-6 2-1 1h-7l-1-1v-8l3-4v-40l-5-2h-12l-5 7-3 2v3l4 2v10h12l6 4 2 3v3l-11-1-5-5v-2l-5-1-2 10 1 1v12l-1 7 3-2 4 1-1 5-7 2-28 2-23 2-13 2h-9v-29l3-1-2-4v-49l1-2-9 1 2 11v37l-4 1-5-1 1-47 1-3-2-2-8-2-1-3-3-1 3-2 4-1h22v-24l51-1 3-10h-39l1 8h-3v-7h-31l-3-2 2-4 3-1h10v5h6l-1-13-6-1v2h2v5h-12v-6l-16-1 2 7v41l1 4-1 11-1 3h2v5l-11 4-4 5-23 4-23 3-32 4-12 2-13 2-14 2-5-1h-7l-11 6-4 6-3 14-2 11 3 1v36l-2 2-1 7-3 1v2l3 1 1 22-1 1v7h-161l-5-5h-79l-3-6-1-5v-13l3-12 6-9 4-4-7 4-2 4-2 1-2 7-1 1v24l5 10h-23l-18 1-18 2-21 7-5 1v2l-7 3-8 5h-2v2l-5 1v2h-2l-1 3-11 9-8 8-3 4h-2l-2 5-3 1-1 5-5 5-2 5-5 5-6 10-6 9-5 12-3 7-2 5h-2l-1 7h-2l-1 8-2 5h-2l-1 5-7 23-3 19-1 3-23 1h-14l-2-2-2-80-2-29-3-23-4-18-4-10-7-7-9-4-47-1-4-6-1-9-6 1-3 11-3 7h-9l1 14 13 1 1 6 1 43 2 6 5 5 10 9 1 3v8l-6 8h-3l-5-5-6 5-6-6-2-14-3-4-3-1v20l4 8 9 7v7l-3 5-5 5-6 3-3 14-7 3-1 3v24l-5 2h-3l-1 11 1 9 2 1v18l-1 2-5 1-1 2v18l4 2v16l-25 2-8 4-2 3-1 12v68l3 9 5 4 29 1 1 1v9h-5l1 21 8 2 2 14v8h-4v9l1 9 8 4 2 8v5l-1 1v18l9 2 2 17 4 4 5 2 4 5 4 2h18l9-5 9-2 15-1 4-5h8l1-8 3-3 8-1v-13h-10l-2-1 1-7 9-1 3-4 8-1 1-2 24-2 22-1 4 9 5 16 5 11 5 13 7 14 6 11 7 13 10 15 10 13 13 15 12 12 10 8v2l5 2 10 7 10 6 11 5 14 4 6 1 44 1 1 24 1 7 2 34 2 14 1 15v35l-1 14-3 7h-2l-1 4-4 4-11 20-2 5-2 4h-2l-1 5-4 5-6 12-4 5-4 13 1 12 4 9 4 5v2h2l5 5 9 8 13 9 15 8 16 7 17 7 2 4h-537z" fill="#FCFCFC"/>
<path transform="translate(1013,886)" d="m0 0h25v34l-5 1 1 2v12h2v3l5 2v6h-18l1-3 7-2 1-2-7 1-4 4 1 4 3 2-1 4-8 12-1 46 6 1v-46l6-9 2-2 1-6h5l-1 16h11l1-24v-12l-1-6 2-1h11l3 8v29l-1 5 3 28 2 28v15l-3 1 5 5 26 10 25 10 21 8 27 11 20 7 14 6 28 11 27 11 1 3 10 2 17-1 58-7-1-5v-29l3-53h1v19l-1 31 4 6v3h2v3h2l5 15 4 8 3 10v8l-4 10-5 6h-2l-2 4-16 10-9 6-36 18-10 4-17 6-20 8-13 5-10 3-39 13-30 7-12 3v2h-601l-4-4-20-8-16-8-13-7-15-11-9-8v-2h-2l-7-10-2-6-1-12 4-13 5-7 3-6 6-9 2-5h2l1-4 8-16 8-13h2l1-4h2l1-5 1-2 2-33h1l1 26v29l-2 5 5 4 10 6v2h3v2h3v2h3v2h3v2h3v2h3v2h3v2h3v2h3v2h3v2l5 1v2l4 1v2l5 1 10 7 14 9v2l4 1 22 14 15 10v2l5 1v2l6 1 5 3v3h5l1-3 33-5 30-3 23-1 1 2 3-1-2-4-8-6v-12l8-101 5-75 1-1 32-1 5-1-9-2-12-1v-2h-15v-16l3-46 1-7 33-4 32-2 33-3 40-2v7l-8 1-1 5h-2v2h-2l-1-2-7-1v5l-3 4-1 12-1 8 3 6 13 2 1 4 12 1 1-1h13v20l-1 4-10 1v2h-2l-2 5-3 3h-4l-2 4-2 1-1 5-9-3-5-2-6-2-17-5-6-3-9-1v2l-14-1-16-4v3l16 2 2 1v2h-15l3 3 22 4 23 8 11 3 8 1 9 4 10 4 6 9 8 5 15 3 15 6 9-1 10 4 3 4 9 3 10 2 6 2v-2h-2l-5-6 1-9 3-9 3-3 3-2-5-2 1-9h-4l2 5v8l-2 3-3-1-3-11v-10h4l1 3h2l-2-4h-7l-1 5-1 3-5-4v-2l-4-2-7-3-9 1v-15l-6-3v-28l1-1 16-1 2 1 12 1 2-4 11-6 1-7-2-4v-10l-3-5v-5l-6 1-2 7-4-1-4-8v-5l-6-1 1-11 14-2z" fill="#807670"/>
<path transform="translate(557,471)" d="m0 0 2 1v2l4 2 4 6 2 1v2l5 1 10 5 4 4 5-2 6-2 10-1 2 1v-2l19 2 15 4 13-1 6-1h31l10-1h38l12 3v2h9l5 3 14-4h51l19 3 15 1h42l19 1 9 2 21 3 28 2 11 2 8 1 4 1h9l22 3h15l14-1 10 2 4 1v2h2v-2l17-3 1-2h10l7-2 13-3 5 1 13 4 10-1 7-3 11 1 13-1 15 1h7l6 1 14 2 3 2 10 2 12-1 4-1 12-1 2 1v2l7-1 3 2v3l12 2-1 5-3 3h-2l1 6-4-1-4-2v2l-4 1-7-3-2 5-3 1-1 2-4 2v2h-2l5 11 5 12 3 5v3l-3 1-6-2-5-10-6-1v12l-2 2-7-1-2-6-3 6-1 1h-7l-6-11-9-2v13l-1 1h-21l-4-2-9 1v2l-6 1-3-1v-2l-10 2-4 2-5-2-3-3-18 3-4 3h-6l-4 1-5-1h-7l-3-1-7 3h-15l-6 4-13 3-19 8h-8l-1 2-12 2h-10l-6 2h-16l-6 1h-19l-15 3-9 2-2 2-28 7-7 1-3 1-10 1-13 2-17 5-6 1h-26l-13-2h-19l-14 1-5 2h-18l-10 1-10 2-3-1-1 2-16 1h-9l-10 1-27 3h-18l-12 1-7 1-17-2-2-1h-26l-8 2-14 1-4 1h-4v2l-5 2h-3v2l-12 2-4 1v2h-2v3h-4l-2-7-5-10-3-8-2-6-5-27-1-11-1-2-3-38-1-9v-9l2-4 1-11 1-1v-13l3-11 3-1v-3l6 1 7-1 5 4 4 2 3 1 1-4h2l-1-5 1-4h2l2-7z" fill="#EFB5BD"/>
<path transform="translate(1013,886)" d="m0 0h25v34l-5 1 1 2v12h2v3l5 2v6h-18l1-3 7-2 1-2-7 1-4 4 1 4 3 2-1 4-8 12-1 46 6 1v-46l6-9 2-2 1-6h5l-1 16h11l1-24v-12l-1-6 2-1h11l3 8v29l-1 5 2 19v29l-6 2-13 18-7 11-3 6-7 10-6 8-5 6h-2l-2 4-5 2v2h-2v2l-10 5-7 2-6 2-16-1-13-5-8-4-10-6-8-7-10-6-8-4-6-2-10-1-15 5-13 8-1 2h-2v2l-6 4-11 10-5 2v2l-12 8-11 5-16 5-14 1h-12l-12-2-12-4-6-3-7-8-5-4-3-1v8h-1l1-23 6-88 1-1 32-1 5-1-9-2-12-1v-2h-15v-16l3-46 1-7 33-4 32-2 33-3 40-2v7l-8 1-1 5h-2v2h-2l-1-2-7-1v5l-3 4-1 12-1 8 3 6 13 2 1 4 12 1 1-1h13v20l-1 4-10 1v2h-2l-2 5-3 3h-4l-2 4-2 1-1 5-9-3-5-2-6-2-17-5-6-3-9-1v2l-14-1-16-4v3l16 2 2 1v2h-15l3 3 22 4 23 8 11 3 8 1 9 4 10 4 6 9 8 5 15 3 15 6 9-1 10 4 3 4 9 3 10 2 6 2v-2h-2l-5-6 1-9 3-9 3-3 3-2-5-2 1-9h-4l2 5v8l-2 3-3-1-3-11v-10h4l1 3h2l-2-4h-7l-1 5-1 3-5-4v-2l-4-2-7-3-9 1v-15l-6-3v-28l1-1 16-1 2 1 12 1 2-4 11-6 1-7-2-4v-10l-3-5v-5l-6 1-2 7-4-1-4-8v-5l-6-1 1-11 14-2z" fill="#A29992"/>
<path transform="translate(557,471)" d="m0 0 2 1v2l4 2 4 6 2 1v2l5 1 10 5 4 4 5-2 6-2 10-1 2 1v-2l19 2 15 4 13-1 6-1h31l10-1h38l12 3v2h9l5 3 14-4h51l19 3 15 1h42l19 1 9 2 21 3 28 2 11 2 8 1 4 1h9l22 3h15l14-1 10 2 4 1v2h2v-2l17-3 1-2h10l7-2 13-3 5 1 13 4 10-1 7-3 11 1 13-1 15 1h7l6 1 14 2 3 2 10 2 12-1 4-1 12-1 2 1v2l7-1 3 2v3l12 2-1 5-3 3h-2l1 6-4-1-4-2v2l-4 1-7-3-2 5-3 1-1 2-4 2v2h-2l5 11 5 12 3 5v3l-3 1-6-2-5-10-6-1v12l-2 2-7-1-2-6-3 6-1 1h-7l-6-11-9-2v13l-1 1h-21l-4-2-9 1v2l-6 1-3-1v-2l-10 2-4 2-5-2-3-3-18 3-4 3h-6l-4 1-5-1h-7l-3-1-7 3h-15l-6 4-13 3-19 8h-8l-1 2-12 2h-10l-6 2h-16l-6 1h-19l-15 3-9 2-2 2-28 7-7 1-3 1-10 1-13 2-17 5-6 1h-26l-13-2h-19l-14 1-5 2h-18l-10 1-10 2-3-1-1 2-16 1h-9l-10 1-27 3h-18l-12 1-7 1-17-2-2-1h-26l-8 2-14 1-4 1h-4v2l-5 2h-3v2l-12 2-4 1v2h-2v3h-4l-2-7-5-10-3-8-2-6-5-27-1-11-1-2-3-38-1-9v-9l2-4 1-11 1-1v-13l3-11 3-1v-3l6 1 7-1 5 4 4 2 3 1 1-4h2l-1-5 1-4h2l2-7zm4 19-3 3 1 8h-5v2l-5 2-5 1h-4v-2h-2l-1-3-5-1-3 3h-4l-2 4-2 13-3 13v18l1 4v20l1 14 1 2 1 11 5 15 4 13 4 5 7 1 8-2 13-5 3-2h16l4 1 7-2 14-1h21l1 1 16 1 11-1h10l7-1 36-3 12-2 19-1 6-2 9-1 12-2 20-3 7-1 22-1h22l22-2 13-1 10-2 6-2 14-3 13-3 2-4h11l4 1 9-3h8l5 1 9-3h6l1-5-4-19 7 6 4 4v-3h3v-2l5-2 1 14 1 5h7l1-1v-21l-1-3h14 3l4 9 2 5h2l2 5 5 4 9 1 6-3 4-5 4-13v-19l-4-13-4-5-5-3h-8l-5 3-3 3-7 2-3-1-1-6-2-1-22 1v14l-3-1-1-2h-5l-2 2-3 7-3 2-1-11h-2l-1-5-6-4-4-1h-14l-2 1-7-1h-3v-2l-15-3-10-1h-14l-14-2-2-1-24-1-8-1h-22l-8 1-12-1-4 1h-7l-12-2-16-1h-9l-1-2-8 1-8-2-29-1h-40l-7-2-6 2-1-2-7 2h-26l-6-1-6 1-1-3h-7l-7-2-6 2-2 1v-2h-2l-1-4-6-2h-4l-1-5z" fill="#E78B8C"/>
<path transform="translate(1350,908)" d="m0 0h1v16l-2 40 1 9 5 5 6 24 7 21 6 10 5 5 12 11 5 3 5 5 10 8 12 9 11 9 9 11v2h2l6 9 5 8 5 13 3 10 1 19-3 22-4 15-8 16-7 7-11 8-12 8h-2l-1 3h-279v-2l19-6 23-5 42-14 20-7 20-8 17-6 10-4 36-18 11-7 15-10 7-8 4-10v-8l-4-13-4-7-3-10v-3h-2v-3h-2l-5-9 2-70z" fill="#C1B9B3"/>
<path transform="translate(1343,1026)" d="m0 0h1v19l-1 31 4 6v3h2v3h2l5 15 4 8 3 10v8l-4 10-5 6h-2l-2 4-16 10-9 6-36 18-10 4-17 6-20 8-13 5-10 3-39 13-30 7-12 3v2h-247l2-2 15-3 49-5 18-2 23-5 26-4 31-6 12-3 18-4 15-4 12-3 7-3 15-4 20-6 14-5 22-7 23-10 12-5 15-8 6-3 6-4 7-1 2-4 6-3 1-5-1-3 74-9-1-5v-29z" fill="#A39992"/>
<path transform="translate(556,480)" d="m0 0 5 1 7 6v2h2l3 4 7 2v2h2v3l9-1 3 1h15v-2l4-1 5 1v2h4l7-2 9 1 10 2 10 1 4-1 3 1h16l3-1h9l7 1 4-1h9l11-1 15 1 15 4 12 1 19-1 31 1h17l15 2 11 1h11l7 2h8l8 1 5-1 5 1 7-1 17 2 15 2 13 4 13 1h12l6 4v15l-4-1v-2l-6 2-3 7-4 2-1-4v-7h-2l-3-6-8-3h-14l-2 1-10-2v-2l-17-2-6-1h-16l-14-2-2-1-24-1-8-1h-22l-8 1-12-1-4 1h-7l-12-2-25-2-1-1-8 1-8-2-29-1h-40l-7-2-6 1h-2l-6 1h-26l-6-1h-6l-1-2h-7l-7-2-8 2v-2h-2l-1-4-8-1-2-1-2-5-8-3h-2v10l-3 1-2-1v2l-6 4-8-1v-2h-2l-3-3-4 1-4 2-2-1-3 17-3 13v18l1 4v20l1 14 1 2 1 11 5 15 4 13 5 5 11-1 11-5 7-3h16l4 1 7-2 14-1h21l1 1 16 1 11-1h10l7-1 36-3 12-2 19-1 6-2 9-1 12-2 20-3 7-1 22-1h22l22-2 13-1 10-2 6-2 14-3 13-3 4-4h9l4 1 9-3h8l5 1 9-3h6l-1-7-3-17 8 6 3 4 1-2h3v-2l4-2 1-6h1l1 25 7-1v-24l14-1 3-1 4 8 2 8h2l5 7 5 2 9-1 5-4 4-10 1-5v-19l-4-14h2l1-3 1 2 7-1 2 1v-2l4-3 5-1-4 19-7 40 5-1 2-13 2-3 11-1 2 2 5 15v2l2 1-6 4-13 3-19 8h-8l-1 2-12 2h-10l-6 2h-16l-6 1h-19l-15 3-9 2-2 2-28 7-7 1-3 1-10 1-13 2-17 5-6 1h-26l-13-2h-19l-14 1-5 2h-18l-10 1-10 2-3-1-1 2-16 1h-9l-10 1-27 3h-18l-12 1-7 1-17-2-2-1h-26l-8 2-14 1-4 1h-4v2l-5 2h-3v2l-12 2-4 1v2h-2v3h-4l-2-7-5-10-3-8-2-6-5-27-1-20-1-6v-19l-1-11-1-10 2-8 2-7 1-3 1-18 2-3 5 1 2-2 4 1 6 4 5 2 6-1 3-9-1-3h2z" fill="#EA969A"/>
<path transform="translate(493 1e3)" d="m0 0h1l2 25v35l-1 14-3 7h-2l-1 4-4 4-11 20-2 5-2 4h-2l-1 5-4 5-6 12-4 5-4 13 1 12 4 9 4 5v2h2l5 5 9 8 13 9 15 8 16 7 17 7 2 4h-166l-5-10-5-8-4-9-1-5v-15l3-12 5-12 9-12 12-14 11-10h2v-2l8-6 6-4 9-8 10-8 8-8 6-7 4-4 3-5h2l2-4 6-7 8-7 5-5 9-7 8-3 1-1z" fill="#C0B9B3"/>
<path transform="translate(874,898)" d="m0 0h5v7l-8 1-1 5h-2v2h-2l-1-2-7-1v5l-3 4-1 12-1 8 3 6 13 2 1 4 12 1 1-1h13v20l-1 4-10 1v2h-2l-2 5-3 3h-4l-2 4-2 1-1 5-9-3-5-2-6-2-17-5-6-3-9-1v2l-14-1-16-4v3l16 2 2 1v2h-15l3 3 22 4 23 8 7 4v2l-6 5-11 7-6 2v2l-12 6-9 5-12 4h-10l-9-4-11-6-7-6-9-11-6-3-1-3v-12l1-7 31-1 5-1-9-2-12-1v-2h-15v-16l3-46 1-7 33-4 32-2 33-3z" fill="#FCFBFB"/>
<path transform="translate(569,347)" d="m0 0h155l6 18 5 30 1 8v25l-36 1-92 1h-26l-2-7-5-41-6-29z" fill="#FAF9F9"/>
<path transform="translate(872,183)" d="m0 0h10l6 5 1 7 2 1v28h-8l-14 7v2l-7 2-3 3h-5v-3l-5 2-1 2 1 21 3 2 1 7h6l3-7 4 1v28h-79l-31-1-2-8v-6h19l29 1v-9l-47-3v-10l-1-6v-39l2-1v-8l3-3 11-2 10-2 31-3 39-5 3-1z" fill="#FCFCFB"/>
<path transform="translate(1348,964)" d="m0 0h1l1 9 5 5 6 24 7 21 6 10 5 5 12 11 5 3 5 5 10 8 12 9 11 9 9 11v2h2l6 9 5 8 5 13 3 10 1 19-3 22-4 15-8 16-7 7-11 8-12 8h-2l-1 3h-109l5-5 11-4 19-6 16-7 10-4 15-9 6-3 9-6 5-5 9-7 6-10 2-1 6-13 1-7v-11l-2-12-10-19-11-12-1-3-4-2-8-7-5-5-11-9-10-9-8-12-2-6-4-8-2-6h-2l-2-7v-20l1-26z" fill="#DCD8D4"/>
<path transform="translate(496,1041)" d="m0 0h1l1 26v29l-2 5 5 4-1 4-2 7-1 4v21l3 10 7 10 1 3h2l1 2 3 1v2l4 2 12 8 9 5 14 7 14 6 21 7 20 7 17 3 18 4 9 3 16 3 6 1 11 2 9 1 13 4v2h-170l-4-4-20-8-16-8-13-7-15-11-9-8v-2h-2l-7-10-2-6-1-12 4-13 5-7 3-6 6-9 2-5h2l1-4 8-16 8-13h2l1-4h2l1-5 1-2z" fill="#A29992"/>
<path transform="translate(1202,868)" d="m0 0h4l1 10 2 51 5 115 3 50-9-3-23-10-19-8-6-4-6-5-4-9v-3l21-6 1-1 2-23-1-31-2-36-7-30-3-8-8-15v-2h-2l-7-10-7-7 2-3h20l18-4 22-7z" fill="#6A3232"/>
<path transform="translate(1013,886)" d="m0 0h25v34l-5 1 1 2v12h2v3l5 2v6h-18l1-3 7-2 1-2-7 1-4 4 1 4 3 2-1 4-8 12-2 19-1 3-12 2-12 4-10 1h-14l-6-2-7-3-7-2h-7l-1 1h-5l-3-2-1-5-6-3v-28l16-1 2 1 12 1 2-4 11-6 1-7-2-4v-10l-3-5v-5l-6 1-2 7-4-1-4-8v-5l-6-1 1-11 14-2z" fill="#FCFBFB"/>
<path transform="translate(736,985)" d="m0 0h1v19l4 4 5 4 8 10 6 5 12 6 7 3h10l15-5 15-9h3v-2l13-7 6-4 2-3h2l-3-3-3-2 7 1 11 2 9 4 10 4 6 9 9 6-4 2-12 5-14 8-6 5h-2v2l-8 7-1 2h-3v2h-2l-1 3-3 3h-2l-1 3-6 4-3 1v2l-9 5-7 4-13 3-14 1-19-4-8-4v-2l-5-2-8-10-1-3-3-3-3-5-1-4 1-37 2-29z" fill="#C1B9B3"/>
<path transform="translate(1268,802)" d="m0 0h1v103l-1 170-1 39-9-3-17-7-2-6 2-9 2-7 2-22v-162l-1-22-3-8-9-7 1-6 8-8 2-1 3-5 5-6 4-7 8-16 3-8z" fill="#4A3336"/>
<path transform="translate(882,150)" d="m0 0 2 1-1 2h-2l-2 23v4l3 3-29 3-11 2-48 6-14 1-10 2-11 2-2 2v8l-3 1 1 39 1 13-1 3h13l32 2 2 1v9h-29l-19-1 1 13h-28l-1-1v-5l1-5-1-18-2-1v-2l2-1 1-7 2-2v-36l-2-1 2-17 3-9 4-6 11-6h7l5 1 14-2 32-5 25-3 23-3 23-4 4-5z" fill="#CB4236"/>
<path transform="translate(1047,923)" d="m0 0h11l3 8v29l-1 5v25l-5 4-6 2v2l-3 3h-3l-2 4-8 9-1 3-4 1-2 4-10 15-9 11-9 9h-2v2l-14 6-10 1-10-2-11-7-3-2v-2h-2l-5-6-1-4 8 1 13 3 6 2v-2h-2l-5-6 1-9 3-9 3-3 3-2-5-2 1-9h-4l2 5v8l-2 3-3-1-3-11v-10h4l1 3h2l-2-4h-7l-1 5-1 3-5-4v-2l-4-2-7-3-9 1v-15l-6-3v-28h1v27l6 2 1 1v5l8 1 1-1h7l9 3 6 3 5 1h14l14-2 11-4h9l1-16h1v40l6 1v-46l6-9 2-2 1-6h5l-1 16h11l1-24v-12l-1-6z" fill="#C0B9B3"/>
<path transform="translate(1074,565)" d="m0 0 4 2 5 15v2l2 1-6 4-13 3-19 8h-8l-1 2-12 2h-10l-6 2h-16l-6 1h-19l-15 3-9 2-2 2-28 7-7 1-3 1-10 1-13 2-17 5-6 1h-26l-13-2h-19l-14 1-5 2h-18l-10 1-10 2-3-1-1 2-16 1h-9l-10 1-27 3h-18l-12 1-7 1-17-2-2-1h-26l-8 2-14 1-4 1h-4v2l-5 2h-3v2l-12 2-4 1v2h-2v3h-4l-2-7-5-10-3-8-2-6-2-12v-6l2 2 3 13 2 4 4 11 2 1v2h9l7-2 9-2v-2l15-2 18-1 2-1h31l6 1 16 1 5-1 7-1 8 1 3-1 20-1 11-2 32-3h9l16-2 9-2 5-2 14-2h15l7-2 19 2 25 1 16-2 13-3 21-4 17-4 9-3 9-2 18-5 9-2 5-3 8 1 10-2 5-3 6-1 5 2 1-1 12-1 4-3 12 2 8-1 6-2 1-2 5-1v3l9 1 1-15 2-3z" fill="#E7898A"/>
<path transform="translate(493 1e3)" d="m0 0h1l1 10v37l-2 7-3 3h-2l-1 3-4 1-2 4-9 10-1 2h-2l-2 4-5 8h-2v3h-2l-2 6h-2l-1 3h-2v2h-2l-2 5-5 6h-2l-1 3-5 4-5 5-4 2v2h-2v2h-2l-1 3h-2v2l-5 4-2 3h-2l-2 4-6 8-6 12-2 11 1 12 5 12 6 6 3 5 2 1v2l4 2 13 10 5 3v2h-61l-5-10-5-8-4-9-1-5v-15l3-12 5-12 9-12 12-14 11-10h2v-2l8-6 6-4 9-8 10-8 8-8 6-7 4-4 3-5h2l2-4 6-7 8-7 5-5 9-7 8-3 1-1z" fill="#DBD7D3"/>
<path transform="translate(166,325)" d="m0 0h46l2 2 8 28 2 22 1 38v44h-3l-1-6-1-9-1-1-9-1-2-3h-6l-2-1v-2h-3v-2l-23-2-3-4v-9l9-6 5-6 1-3v-10l-3-8-9-10-6-4-1-4-1-18z" fill="#FCFBFB"/>
<path transform="translate(1273,1121)" d="m0 0h21l5 5-4 7-5 3-5 5-11 6-8 4-7 3-12 6-16 7-26 12-45 15-16 5-8 2-13 4-29 8-22 5-21 4-38 6-13 2-9 4h-100l2-2 15-3 49-5 18-2 23-5 26-4 31-6 12-3 18-4 15-4 12-3 7-3 15-4 20-6 14-5 22-7 23-10 12-5 15-8 6-3 6-4 7-1 2-4 6-3 1-5-1-3z" fill="#9B8E87"/>
<path transform="translate(164,457)" d="m0 0 3 3 1 5-1 5v7l-2 3h12l1-9 3 3 4 11-1 4h-8l1 10v12 2h10l1-2h2l2 10 2 6v9l-8 1v5l1-2h6l1 2v10h-6l-1 1v7l6 1 5-1 1 6 1 13v-15h3l5 12-2 7 3 1v7h2l1 15 1 2v18l-1 4 1 2-4 8-3 2-2-3-1-8-1 17-8 1-1 3 5 1 1 1v12l-7 2 1 3-4 1-1-3-10 2 1-8 2-7-1-11-2-10-2-20-1-12v-11l-1-2 3-6 9-2h4l-1-5 3-2v-3l-3 1-14-1-3-9-1-9v-2l-2-8v-4l-3-1-3-7-2-5-4-20 1-9 1-1v-5l-4-1v-7l-4-2-3-4v-9l4 1h-2l2 5h3l1-5 5-1 2-11z" fill="#B34E51"/>
<path transform="translate(312,562)" d="m0 0h6l10 2 6 2 1 2 3 24 2 29-21 2h-25l-3 1-17 1h-21l1-4h5l-7-4v-8l6-2v-12l-6-1-1-5v-19l6-5h10l2 2 10 1 4 1 1-2 6-1h13z" fill="#EFB4BC"/>
<path transform="translate(1e3 524)" d="m0 0h8l2 1 1 6 5 1 6-3 4-4 3-1h8l7 5 4 8 2 8v19l-4 13-5 6-5 2-9-1-5-4-2-5h-2l-5-12-2-3-2 1h-14l1 3v21l-1 1h-7l-1-5-1-14-5 2v2h-3l-1 3-6-7-4-3v7l2 10v5l-2 1-4-2-6-21v-2h-8v24l-1 1h-5l-1-1-1-37v-21l1-1h17l6 4 1 5h2l1 11 5-5 2-5 1-1h5l1 2 3 1v-14z" fill="#EFB6BD"/>
<path transform="translate(541,145)" d="m0 0h5l1 17h3l4 30 1 20 1 37 1 19 3 10 4 7-1 2-2-2h-79l-3-6-1-5v-13l3-12 6-9 4-4-2-1 10-4 6-1h10l9 2 11 8 6 6z" fill="#EEB3BB"/>
<path transform="translate(1201,870)" d="m0 0h4l2 8 2 51 5 115 3 50-9-3-9-4-5-5-6-10-6-9-3-6v-6l4-4 12-6 5-8 2-20v-44l-2-13-3-14-9-15-5-8-12-26-4-5-1-5 4-3z" fill="#4A3336"/>
<path transform="translate(1076,878)" d="m0 0h14l14 2 1 1 3 89 3 61 1 22-7-1-20-8-2-2 1-6 4-11 2-11v-11l-2-20-4-37-5-22-4-12v-4h-2l-5-13v-12l5-4z" fill="#4A3336"/>
<path transform="translate(1019,242)" d="m0 0h5l2 2 7 1v8l2 1v34l-2 4h-94l-4-4v-17l7-3 2-2 1-6 4 3 1 6 6-1 3-14 1-8 1-1 21-2h10l1 1h16l9-1z" fill="#FAFAF9"/>
<path transform="translate(1343,1026)" d="m0 0h1v19l-1 31 4 6v3h2v3h2l5 15 4 8 3 10v8l-4 10-5 6h-2l-2 4-16 10-9 6-36 18-10 4-17 6-20 8-13 5-10 3-39 13-30 7-12 3v2h-42v-2l10-4 13-3 12-1 10-3 5-2 19-5 18-4 12-5 24-8 10-4 9-3 23-9 12-5 16-8 15-8 9-5 15-10 5-4h2l2-4 4-2 2-4 2-6v-6l-1-3h-9l1-2 5-1-1-5v-29z" fill="#B1A39B"/>
<path transform="translate(737,985)" d="m0 0 40 1 14 1 11 3 13 2 23 8 7 4v2l-6 5-11 7-6 2v2l-12 6-9 5-12 4h-10l-9-4-11-6-7-6-9-11-6-3-1-3v-12z" fill="#FCFCFC"/>
<path transform="translate(1058,1037)" d="m0 0h4l5 5 26 10 25 10 21 8 27 11 20 7 14 6 28 11 27 11 1 2-5-1-72-28-16-6h-3l1 3v3l-14 1-7 2-8 2-9 4-11 5-12 1-9 2-7-1-4-2h-5v-2h-2l-3-9v-14l2-23 3-5h2v-2l-5-1-15-6v-3z" fill="#665C5A"/>
<path transform="translate(497,1103)" d="m0 0 4 2-1 4-2 7-1 4v21l3 10 7 10 1 3h2l1 2 3 1v2l4 2 12 8 9 5 14 7 14 6 21 7 20 7 17 3 18 4 9 3 16 3 6 1 11 2 9 1 13 4v2h-69l-1-2-9-3-12-3-7-1-24-8-19-5-16-7-10-5-16-7-11-7-13-9-5-5-10-14-2-17 4-20 3-11 3-3h2v-2h2z" fill="#9A8D86"/>
<path transform="translate(1124,522)" d="m0 0 4 1 2 17v10h2l2 25v7l-12 2-5-1h-7l-3-1-7 3-17-1-5-13-2-5-11 1-2 10-2 6h-5l1-11 7-39 3-9h6l3 9v3l6-2 1-2 2-2h5l2-6 1-1h7l3 5 8 32 1 3 3-13 6-27z" fill="#EB9B9F"/>
<path transform="translate(383,752)" d="m0 0 4 1 2 3-1 2 3 1 1 3 3 1 5 15h2l2 8v22l-2 7-3 11-1 2h-2l-1 4-8 7-7-2-7-10-3-5v-2h-2l-3-5v-2h-2l-2-6h-2l-2-4v-3h-2v-4h-2v-6h-2l-2-11v-8l3-5 5-5 10-5 2 1v-2h8z" fill="#B44E51"/>
<path transform="translate(1061 1e3)" d="m0 0h1v11l-6 2-13 18-7 11-3 6-7 10-6 8-5 6h-2l-2 4-5 2v2h-2v2l-10 5-7 2-6 2-16-1-13-5-8-4-10-6-8-7-10-6-8-4-6-2-10-1-15 5-13 8-1 2h-2v2l-6 4-11 10-5 2v2l-12 8-11 5-16 5-14 1h-12l-12-2-12-4-6-3-7-8-5-4-3-1v8h-1l1-23 2 1 1 5 2 1v2l4 2 6 7 8 6 5 1v2l30 3 21-4 9-4 10-5 7-5h2v-2l4-3h2v-2l5-2 2-4 14-12 16-10 14-4h7l13 4 15 10v2l5 2 2 1v2l5 2 14 9 13 4 6 1 10-1 9-3 9-5 3-1v-2l9-7 8-11 3-3 2-4h2l2-6 4-5 1-3h2l1-4 9-13h2l2-4 5-5 5-2z" fill="#9B8E87"/>
<path transform="translate(1268,802)" d="m0 0h1v27l-2 2v-3l-5 5-4 10-4 6-4 8 2 17 1 4 2 50v102l-1 25-1 8v30l4 15 1 2-10-3-8-4-1-5 2-9 2-7 2-22v-162l-1-22-3-8-9-7 1-6 8-8 2-1 3-5 5-6 4-7 8-16 3-8z" fill="#6A3232"/>
<path transform="translate(736,985)" d="m0 0h1v19l4 4 5 4 8 10 6 5 12 6 7 3h10l15-5 15-9h3v-2l13-7 6-4 2-3h2l-3-3-3-2 7 1 11 2 9 4 4 2v2l-12 4-4 3h-2v2l-11 7-8 6-5 5-6 4-9 7-3 2h-3v2l-13 6-5 1h-12l-11-4-6-4-10-9-6-7-5-8v-4l-3-1-1-2v-36z" fill="#DBD7D3"/>
<path transform="translate(888,77)" d="m0 0h17l-1 7h12v-5h-2v-2h6l1 1v13h-6v-5l-13 1-1 4 2 1 31 1 1 7 1-2v-6h39l-1 8-2 3h-51v24l-22 1-6 2 3 3-4 2-2 3v-12l-1-1v-41z" fill="#675A58"/>
<path transform="translate(178,435)" d="m0 0 4 2 5 6 8 16 5 13 8 33 5 26 5 44 4 20 1 1 2 21 1 35-1 23-3 9-4 24-2 18-6 40-5 16-5 13-3 2 1-7 8-27 3-16 4-36 2-30v-59l-1-27-3-38-4-30-5-25-6-25-6-17-8-16-4-6z" fill="#4F3335"/>
<path transform="translate(98,576)" d="m0 0h17v17l1 4 5 1 1 1v28l-6 1v14l1 8 5 1v8h-26l-1-2v-77l1-3z" fill="#FAF7F7"/>
<path transform="translate(830,530)" d="m0 0h16l8 4 5 6 3 10v21l-4 11-7 7-8 3h-13l-2-4-1-16v-41z" fill="#FDFDFD"/>
<path transform="translate(870,529)" d="m0 0h18l8 4 4 5 3 9v23l-3 9-7 8-7 3h-15l-1-2-1-13v-45z" fill="#FDFDFD"/>
<path transform="translate(921,952)" d="m0 0h1v27l6 2 1 1v5l8 1 1-1h7l9 3 6 3 5 1h14l14-2 11-4h9l1-16h1v30l-1 5h-2v2l-10 6-9 9-4 3h-3l-4-7-13-4-1-9h-6l2 5v8l-2 3-3-1-3-11v-10h4l1 3h2l-2-4h-7l-1 5-1 3-5-4v-2l-4-2-7-3-9 1v-15l-6-3z" fill="#DAD5D1"/>
<path transform="translate(494,1074)" d="m0 0h1v7l-6 8-7 14-8 18-8 14-6 13-1 12 3 10 9 12 8 8 11 8 9 6 2 1v2l9 3 17 8 18 7 10 3 5 2v2h2v2h-25l-4-4-20-8-16-8-13-7-15-11-9-8v-2h-2l-7-10-2-6-1-12 4-13 5-7 3-6 6-9 2-5h2l1-4 8-16 8-13h2l1-4h2l1-5z" fill="#B2A49C"/>
<path transform="translate(896,951)" d="m0 0 3 1-1 16-2 14-2 6-2 20-5 2-2-1v-5l-2 4-4 4v5l-2-1-1-3-10-4-12-5-8-1-14-4-17-6-22-4-3-2v-2h15v-2l-18-3v-3l30 5v-2h9l10 4 13 4 6 2 12 5 2 1v-5l5-5 5-2 4-6h2v-2l10-1z" fill="#4F393B"/>
<path transform="translate(721,532)" d="m0 0h17l6 5 2 4v12l-3 9 5 6 1 4v11l-4 8-4 3-7 2h-12l-2-2-1-15v-46z" fill="#FDFDFD"/>
<path transform="translate(197,681)" d="m0 0 3 2v15l-6 2h-7l2 4 6 2 2 11-2 2-4 2-2 4h6l2 1-1 14-2 3-13 1v17h2v2l2 1h-3l-2 6-1 1-7 1 2 22h-3l-3-14-3-3v-9l4-11v-8l3-14 2-7 2-12 2-8v-10l1-13h4l2-3z" fill="#B34F51"/>
<path transform="translate(932,996)" d="m0 0 7 1 8 5 5 5v-6l2-2h7l2 5h-2l-2-3h-2v10l3 11h2l1-2v-8l-1-5 5-1v6l-1 4 5 2-1 2-5 3-4 12v6l4 4v2h2v2l-6-1-16-4-5-3-2-3-9-3-9 1-7-3 4-1 7 1 10-20 1-5-3-3-10 2-6 3-11 2h-6l1-4 8-1v-2l10-4z" fill="#685E5C"/>
<path transform="translate(753,242)" d="m0 0h1l2 13v7l-1 3h13l32 2 2 1v9h-29l-19-1 1 13h-24l-1-34 2-6 1-1h14l6 1z" fill="#7F7570"/>
<path transform="translate(591,353)" d="m0 0 4 1 1 11 5 1-1-11h3v9h5l4-1 3 7 4 3 1 6h-2v-2h-12v5h2l4 7 4 2v4h-2v2l-3 3v11l8-1 2-2 1-15 1-2h2l-1-6 1-7h3l1 10 3 8-2 8-5 1-2 21h-3v-13l-5 3-2 3-5 1v5l-5-1v-3l4-4h-2v2l-3 1-1-4h-2l-3-6-4-5v-7l-1-1-2-14-2-5-2-2 4-4 3 1v2h2l-2-7z" fill="#B8AFA9"/>
<path transform="translate(1076,878)" d="m0 0h14l10 1v1l-18 1v10l5 19 4 26 3 24 1 20v21l1 19-3 24 2 3-10-3-2-2 1-6 4-11 2-11v-11l-2-20-4-37-5-22-4-12v-4h-2l-5-13v-12l5-4z" fill="#6A3232"/>
<path transform="translate(726,355)" d="m0 0 2 3 1 6-21 1 1 5-13-1v2l8 1 3 1-1 6 5 4v2h2v3l-3 1-2-1 1 7 14 1-1 3-3 1h-10l3 5-1 11v4l-10-1 2-5v-4l-3-1 1-9h-11l-2-2 3-2 7-1 1-1v-6l-6-3 2-4 3-1-2-5v-3h-2l-3-4v-3l-13-1 3 21 2 9v12h5l2 3-7 2v4l5 2 1 2h-11l-1-21-1-5-1-15-1-8-4-3v-3h-7l-5-1v-4h68z" fill="#DCD8D4"/>
<path transform="translate(541,145)" d="m0 0h5l1 17h3l4 30 1 20v57l-3-3-5-8v-3l-3-1-1-2-2-47z" fill="#EA9397"/>
<path transform="translate(942,527)" d="m0 0h17l6 4 2 5v15l-4 6 1 5 3 9 2 10v5l-2 1-4-2-6-21v-2h-8v24l-1 1h-5l-1-1-1-37v-21z" fill="#FCFCFC"/>
<path transform="translate(1031,138)" d="m0 0h13v8h5l-3 2-5 2-1 4h3v4h-8l1 3 14 2v-9l8-2 5 1v2l5 1v1h-5v4l33-2 2-1 1-3h-3l-1-3 4-1h8v9l-1 1-14 2-29 1v15l-3-1-1-7-3-2h-8l-6 2v12l19 1v3l-19 1-2 1 3 2v4h-9l-1 2-1-15-1-5v-24l1-3-1-2z" fill="#6E5F5D"/>
<path transform="translate(1124,522)" d="m0 0 4 1 2 17 2 24v16l-2 1-3-1-1-2-2-34-1-2-5 22-3 15-1 2-4-1-5-18-5-19-1-2-1 40-5 1v-29l1-30h6l3 5 8 32 1 3 3-13 6-27z" fill="#FDFDFD"/>
<path transform="translate(802,530)" d="m0 0 4 1 3 8 7 27 5 19v7h-6l-3-9-2-8h-13l-1 1-3 17h-7l-1-3 11-53 3-6z" fill="#FDFDFD"/>
<path transform="translate(1067,524)" d="m0 0h6l6 19 7 32v7h-4l-5-15-3-1-9 1-2 10-2 6h-5l1-11 7-39z" fill="#FDFDFD"/>
<path transform="translate(1030,531)" d="m0 0h6l4 4 3 6 1 5v19l-3 8-5 5-7-1-5-6-3-12v-11l2-9 4-6z" fill="#EA989C"/>
<path transform="translate(891,1027)" d="m0 0 5 1-2 2-12 5-8 5-5 2-11 8-5 5h-2l-2 4-8 7-5 5-11 9-5 3-1 2-12 3-1 2-3 1-10 2h-18l-10-2-16-8v-2l-4-2-9-10-1-4-3-1v-9l4 3 1 5 3 1 4 7 4 5 5 3v2l5 1 7 3 16 3 13-1 15-4 9-5 5-2v-2l9-6 1-2h2l1-3 3-3h2v-2h3l2-4 5-5h2v-2l13-9 16-8z" fill="#B2A49C"/>
<path transform="translate(834,536)" d="m0 0h10l6 4 4 8 1 5v15l-3 9-4 5-6 3h-5l-2-3-1-30z" fill="#EEB7BE"/>
<path transform="translate(1029,524)" d="m0 0h8l7 5 4 8 2 8v19l-4 13-5 6-5 2-9-1-5-4-4-8-3-12v-13l4-13 4-6 3-3zm1 7-5 4-3 7-1 6v11l3 12 5 6 7 1 6-7 2-6v-19l-3-9-2-4-3-2z" fill="#FCFCFC"/>
<path transform="translate(878,535)" d="m0 0h9l5 5 4 9 1 11-2 12-5 8-8 4-5-1-1-9v-38z" fill="#EEB7BE"/>
<path transform="translate(1059,990)" d="m0 0 1 3-8 5h-2l-2 4h-2l-2 4-2 3h-2l-2 4-5 6-4 7-8 11-9 12-3 1-1 4h-2v2l-3 3-5 3-10 7-10 3-10-1-14-5-11-9-6-7-5-7-9-5 1-3 5-1 10 4 3 5h-2l3 6 3 2v2h2v2l4 2 10 6 10 2 10-1 12-5h2v-2l8-7 7-8 6-8 9-13 4-4h2l1-4 9-10 1-2h3l1-3h2v-2l9-5z" fill="#B1A49C"/>
<path transform="translate(1189,521)" d="m0 0h5l3 7 6 27 4 17 1 5-4 1-3-5-3-11h-11l-3 16-1 1h-5l1-13 8-41z" fill="#FDFDFD"/>
<path transform="translate(924,527)" d="m0 0 9 1v6l-1 1-15 1 1 16h14l1 1v6l-1 1-15 1 1 10v10l17-1 1 7-6 1h-18l-2-35v-25z" fill="#FDFDFD"/>
<path transform="translate(1235,520)" d="m0 0 5 1 1 37v19l-5-1-5-10-7-19-5-10-2-1 1 6 1 23v12h-4l-1-6-1-50h7l6 16 9 22z" fill="#FCFCFC"/>
<path transform="translate(1066,524)" d="m0 0 1 2-4 17-7 40 6-1v2h-7l-2-1v-3l-5 2v2l-10 3-8-1v-1l9-2 5-4 4-10 1-5v-19l-4-14h2l1-3 1 2 7-1 2 1v-2l4-3z" fill="#EB9A9E"/>
<path transform="translate(1269,519)" d="m0 0h3l-1 6-7 15-1 7h2l7 16 3 6 1 6h-6l-8-16-2-7h-5v24h-5l-1-31v-25h5v23h3l1-6 9-17z" fill="#FCF9F9"/>
<path transform="translate(1030,950)" d="m0 0h5l-1 16 6 1 19 1-1 5-4 1-7 3-11 7-3 3h-2l-2 4-5 2-3-6v-20l6-9 2-2z" fill="#DAD6D2"/>
<path transform="translate(1011,559)" d="m0 0 4 5 3 11h2l5 7 5 2v2h-5l-4-1-5 3-11 1-2 1-6-2-4-1 2-2v-24l14-1z" fill="#EB969A"/>
<path transform="translate(200,564)" d="m0 0h3l5 12-2 7 3 1v7h2l1 15 1 2v18l-1 4 1 2-4 8-3 2-2-3-1-8-1-7-2-45z" fill="#EEAFB6"/>
<path transform="translate(908,189)" d="m0 0 7 2v2l-5 1 1 3v39h10l11 2v2l-8 3h-3v2l5 1 5 3v2l-9 1h-15l-3-1 1-4 2-4-6-3 4-2-1-48z" fill="#EDAEB4"/>
<path transform="translate(1044,138)" d="m0 0h1v7h11v-6l5-1 1 1v12h34v4h3l-1 4-5 1-10 1h-20v-4l2-1-3-3-12 1v9l-14-1-1-4h8v-4h-3l1-4 5-3-2-1z" fill="#B9B1AB"/>
<path transform="translate(733,248)" d="m0 0h2v4h-2v6l1 1v15l4 1 1-14 2-1-4-4 1-7h7l4 5 1 4-1 17 2 1-1 2v1l2 5v5h-21l-1-34 2-6z" fill="#665A58"/>
<path transform="translate(232,350)" d="m0 0 3 1 3 15 1 52 1 87 1 48v6h-3l-2-97-1-48-1-28-2-27z" fill="#ECAEB4"/>
<path transform="translate(757,531)" d="m0 0h5l1 1 1 34 1 19 17 1v7l-1 1h-22l-2-2-1-20v-40z" fill="#FDFDFD"/>
<path transform="translate(1028,938)" d="m0 0 4 1-1 3-7 2-1 2h18l-1 2-1 16 6 1v2h-7l-4-1v-9l1-7h-5v6l-5 6-3 5-1 46-6-1v-46l9-13 1-3-4-2-1-4 5-5z" fill="#544142"/>
<path transform="translate(1e3 525)" d="m0 0h7l1 1v6l-1 1-14 1 1 17 13 1 1 4-3 3-11 1v24l-1 1h-5l-2-41v-18z" fill="#FDFDFD"/>
<path transform="translate(699,372)" d="m0 0 8 1-1 6 5 4v2h2v3l-3 1-2-1 1 7 14 1-1 3-3 1h-10l3 5-1 11v4l-10-1 2-5v-4l-3-1 1-9h-11l-2-2 3-2 7-1 1-1v-6l-2-1v-2h-2l1-3 3-1-1-5-1-3z" fill="#C6BFBA"/>
<path transform="translate(312,562)" d="m0 0h6l10 2 6 2 1 2v10l-5-1-5-3h-2v-4h-6l-4-3-3 1v6l-3 1-4-1-4-2-3 2-16-1-3-2h-6l-3 1-3-2-4 1-8 4-1 14h-1v-19l6-5h10l2 2 10 1 4 1 1-2 6-1h13z" fill="#EB969A"/>
<path transform="translate(167,310)" d="m0 0h42l2 2 6 20v5l-2-3-3-8-45-1v-1l41-1v-3h-43l-4-3 2-6z" fill="#B34E51"/>
<path transform="translate(1096,151)" d="m0 0h11v9l-1 1-14 2-29 1v15l-3-1-1-7-3-2h-8l-6 2v12l3 1h-4l-2-9 1-6 3-2 1-4h6v-9l8-2 5 1v2l5 1v1h-5v4l33-2 2-1 1-3h-3l-1-3z" fill="#A18A85"/>
<path transform="translate(541,145)" d="m0 0h5v27l2 85-1-2-3-1-1-2-2-47z" fill="#C74E44"/>
<path transform="translate(1008,525)" d="m0 0h2l1 6 5 1 5-1-4 11-2 14-4 2v-4l-3-1-13-1-1-1-1-17 1-1 14-1z" fill="#EFB6BD"/>
<path transform="translate(952,1009)" d="m0 0 3 2v4h-6l-4 7-2 4h-2l1 13 5 1 3-6 2 4 1 7-11-2-4-5-9-3-9 1-7-3 4-1 7 1 10-20 2-3 9 2 6-1z" fill="#4E3639"/>
<path transform="translate(1170,521)" d="m0 0 4 1v6l-1 1-9 1v49l-4 1-1-1-2-48-1-1-9-1v-7z" fill="#FDFDFD"/>
<path transform="translate(1058,1037)" d="m0 0h4l5 5 26 10 25 10 21 8 27 11 20 7 14 6 28 11 27 11 1 2-5-1-72-28-29-11-27-11-16-6-50-20v-3z" fill="#533335"/>
<path transform="translate(1214,519)" d="m0 0 4 1v1h-5l1 9 1 41 1 6h2v-12l-1-29 4 2 8 19 6 16 3 3 3 1-1-19-1-37-4-2h5l1 1 1 13v45h-7l-6-11-9-2v13l-5 1-2-5-1-34v-20z" fill="#E99FA2"/>
<path transform="translate(625,378)" d="m0 0h3l1 10 3 8-2 8-5 1-2 21h-3v-13l-5 3-2 3-5 1v5l-5-1v-3l4-4h-2v2l-3 1-2-4v-4h8v-15h-2v-2h-6v-3h15l-1 5-3 3v11l8-1 2-2 1-15 1-2h2l-1-6z" fill="#C7C0BB"/>
<path transform="translate(966,1006)" d="m0 0h1v6l-1 4 5 2-1 2-5 3-4 12v6l4 4v2h2v2l-6-1-16-4 4-1 3 1-2-9-3 6-5-1v-3l1-10 3-6h2l2-4 4 1v8l-1 6 1 5 4-13 4-2 1-2v-8l-1-5z" fill="#685A58"/>
<path transform="translate(896,951)" d="m0 0 3 1-1 16-2 14-2 3h-2l-4 12-3 2h-10l-3-1-1-2-4 1 2-1v-5l5-5 5-2 4-6h2v-2l10-1z" fill="#675D5B"/>
<path transform="translate(877,176)" d="m0 0 2 4 3 3-29 3-11 2-48 6-14 1-13 2 2-2 10-2 13-3 12-2 9-2 18-2 20-3 6 1 6-2 13-3z" fill="#744B4A"/>
<path transform="translate(936,92)" d="m0 0h39l-1 8-2 3h-31v-2l-7 1 2-4z" fill="#968D86"/>
<path transform="translate(967,1006)" d="m0 0 2 1v9l11 2 4 4 3 7v7h-8l-4-7-2-1v8h-4l3 7 1 2-6-1-2-2-2-1 1-7 2-9-1 2h-2l2-5 5-4-5-2z" fill="#BFB6B0"/>
<path transform="translate(787,977)" d="m0 0 30 5v-2h9l5 3-4 2-1 10 7 2 1 2-10-3-9-3-22-4-3-2v-2h15v-2l-18-3z" fill="#695957"/>
<path transform="translate(831,983)" d="m0 0 11 3 12 3 2 3h-4v1l1 2v9l-7-1-12-3-3-3-5-2-1-6 2-5z" fill="#C64439"/>
<path transform="translate(1123,540)" d="m0 0 2 4 2 36h4v-30h1l2 25v7l-12 2-5-1h-7l4-1 2-13 5-23z" fill="#E79799"/>
<path transform="translate(907,138)" d="m0 0h14l-1 3v-2l-9 1 2 11v37l-4 1-5-1 1-47z" fill="#EEACB3"/>
<path transform="translate(609,363)" d="m0 0h3l3 7 4 3 1 6h-2v-2h-12v5h2l4 7 4 2-1 4v-3l-8 1-10-1v-2h4l-3-9-2-13h8l1-4z" fill="#C2BBB6"/>
<path transform="translate(1098,540)" d="m0 0 3 3 5 19 5 18 3 2h-7l-7 3-13-1 1-6 3-1 1 5 5-1z" fill="#E79092"/>
<path transform="translate(916,93)" d="m0 0h18v9l7-1v2h-20v24h-21l-4-3h22v-16l-9 1v-2l-2-1h9l-1-4 1-7-2-1z" fill="#594646"/>
<path transform="translate(737,962)" d="m0 0h1v15h29l19 1v-2h5l-4 1v3l16 2 2 1v2h-15v2l-51-1v-1l29-1 5-1-9-2-12-1v-2h-15z" fill="#BDB3AD"/>
<path transform="translate(1030,531)" d="m0 0h6l4 4 3 6 1 5v19h-1l-1-19-7 1-5 2-1 2-6-4 1 21-2-3-1-6v-11l2-9 4-6z" fill="#EEB8BF"/>
<path transform="translate(912,108)" d="m0 0h6v16h-22v-8l1-4-2-1v-2z" fill="#C2B7B1"/>
<path transform="translate(1050,202)" d="m0 0 5 2v33h-2l2 4v5l-1 2 3 2v2h-9v-4-33l1-12z" fill="#EDAAB0"/>
<path transform="translate(217,575)" d="m0 0h1l4 20 1 1 2 21 1 35-1 23-3 9-1 5h-1l1-17 1-5v-33l-2-15-1-2-1-28z" fill="#693333"/>
<path transform="translate(1120,523)" d="m0 0 1 4-7 34-2 3-3-8-6-24 1-4 1 6 8-4 3-1 2-4z" fill="#EB969A"/>
<path transform="translate(663,363)" d="m0 0h9l2 2 1 3 2 1-1-5 1-1h12v1h-11l3 21 2 9v12h5l2 3-7 2v4l5 2 1 2h-11l-1-21-1-5-1-15-1-8-4-3v-3h-7z" fill="#DCD8D4"/>
<path transform="translate(545,146)" d="m0 0h1l1 16h3l4 30 1 20v37h-1l-1-36-1-17-1-2-1 12-3 1-2-35z" fill="#EDB8BE"/>
<path transform="translate(1187,561)" d="m0 0h11l6 16h3l2-3v5h-11l-4-2-9 1v2l-6 1-2-1v-9l1-5h1l-1 13 5-1 3-16z" fill="#E8989A"/>
<path transform="translate(506,251)" d="m0 0h6l6 4 3 4v8l-5 4h-8l-5-4v-13z" fill="#FBF4F5"/>
<path transform="translate(761,267)" d="m0 0h39l2 1v9l-2-2h-21l-15-1-4-1v-5z" fill="#A9A099"/>
<path transform="translate(1048,168)" d="m0 0h8l4 3 1 7 2 1-1 8-1-3h-16l-3-1v-12z" fill="#C9B3B0"/>
<path transform="translate(753,242)" d="m0 0h1l2 13v7l-4 4-1 9h-2v-19l-4-6-7-1v7l1 3 3 1-3 1-1 14-5-1v-15l-1-1v-7l3 1v-4h12l6 1z" fill="#9E918A"/>
<path transform="translate(738,249)" d="m0 0h7l4 5 1 4-1 17-1 1h-10v-8l1-7 2-1-4-4z" fill="#BEB6B0"/>
<path transform="translate(727,566)" d="m0 0h8l5 4 1 2v10l-5 5-2 1h-6l-1-2z" fill="#EDB9BF"/>
<path transform="translate(912,258)" d="m0 0 4 1 1 2 1 18-1 8h-9l-2-1-1-8 1-5 3-6h2z" fill="#EEADB4"/>
<path transform="translate(722,1183)" d="m0 0h6l1 2-9 2h-9l-40 5-11 2-19 1 1-3 33-5 30-3z" fill="#EAACB2"/>
<path transform="translate(948,533)" d="m0 0h8l4 4 1 3v8l-7 7h-5l-2-7v-14z" fill="#EDB8BF"/>
<path transform="translate(191,590)" d="m0 0h8l1 7v13l1 1v-12h1v13l-2 5-10-1 1-8-1-17z" fill="#CE3F33"/>
<path transform="translate(1044,138)" d="m0 0h1v7h11v-6l3 1 1 5-7 2 7 1-1 3 2 1-7 2h-4v9l-14-1-1-4h8v-4h-3l1-4 5-3-2-1z" fill="#D0B4B1"/>
<path transform="translate(900,92)" d="m0 0 16 1v13h-14l-3-1-1-5h-3v-5l5-2z" fill="#9A918B"/>
<path transform="translate(1048,924)" d="m0 0h8l1 1v14l1 5-3 3 1 6h-7l-1-14z" fill="#DCD0CE"/>
<path transform="translate(206,583)" d="m0 0 3 1v7h2l1 15 1 2v18l-1 4 1 2-4 8-3 2-2-3-1-8-1-7v-21h1l1 18 1 5 1 3h2l3-6h-2v-16l-1-13-1-9z" fill="#E98F92"/>
<path transform="translate(888,77)" d="m0 0h17l-1 7h12v-5h-2v-2h6l1 1v13h-6v-5l-13 1-1 4-2 1-3-1v-5l5-1-9-2 1-4-4-1-1 3z" fill="#B2A59F"/>
<path transform="translate(606,377)" d="m0 0h12l3 16v9h-6l-2-1 1-6h2v-4l-5-2-3-5v-2h-2z" fill="#FBFBFB"/>
<path transform="translate(541,563)" d="m0 0 4 1 4 4v7l-10 5h-5l-3-4v-5l3-1 1-3z" fill="#DCD8D4"/>
<path transform="translate(954,999)" d="m0 0h7l2 5h-2l-2-3h-2v10l3 12-3 6-2 9-2-2-1-8 1-7-1-2h-3l-1 2h-2l-2 6-1 11-2-1v-11h2l2-7 4-5 6 1-3-10 1-5z" fill="#6E6461"/>
<path transform="translate(241,611)" d="m0 0 2 2v12l1 31 1 38h-4l-1-79z" fill="#EA9396"/>
<path transform="translate(238,462)" d="m0 0h1l2 85v12h-3l-1-47v-42z" fill="#E99194"/>
<path transform="translate(1031,138)" d="m0 0h13v8h5l-3 2-5 2-1 4h3v4l-4-1h2v-2h-5l3-4 1-4-6-1v11l-2 20h-1v-24l1-3-1-2z" fill="#746A66"/>
<path transform="translate(543,205)" d="m0 0 2 1v5h2l1 46-1-2-3-1-1-2-1-27v-18z" fill="#CE3F33"/>
<path transform="translate(727,539)" d="m0 0h7l5 5v7l-5 6-7 1-1-6v-12z" fill="#EDB9C0"/>
<path transform="translate(899,127)" d="m0 0h21l-1 2 1 7-14-1-1 2-9-3-1-3-3-1 3-2z" fill="#B3AAA4"/>
<path transform="translate(1037,884)" d="m0 0 4 1 1 38-1 7-1 2h-2l-1 5-1-2h-2l-1-14 4-1z" fill="#523436"/>
<path transform="translate(658,359)" d="m0 0h66l2 2-1 1h-67z" fill="#B0A29A"/>
<path transform="translate(220,349)" d="m0 0h1l2 14 1 14 1 38v44h-3l-1-6-1-9-1-2 3 1v-53l-2-34z" fill="#D6BDBA"/>
<path transform="translate(880,896)" d="m0 0 5 1 1 1v13l-1 9h-3l-4-4-6 1-3 2-1-4 2-7h2v-2h6v6l3 1z" fill="#4E383A"/>
<path transform="translate(600,392)" d="m0 0h15l-1 5-3 3v11l1 3 2 1-1 4-5 1v5l-5-1v-3l4-4h-2v2l-3 1-2-4v-4h8v-15h-2v-2h-6z" fill="#9B928C"/>
<path transform="translate(737,978)" d="m0 0h15v2h12l11 3v1l-7 1h-32z" fill="#887E78"/>
<path transform="translate(312,562)" d="m0 0h6l10 2 6 2-2 4-5 1-5-3-3-1v-2h-8l-3 5-5 1-5-1-1 1h-17l4-4 6-1h13z" fill="#E7898A"/>
<path transform="translate(1260,260)" d="m0 0 5 1 3 4v7l-3 5-2 2-4-1-4-5v-9z" fill="#F7E9EA"/>
<path transform="translate(952,1009)" d="m0 0 3 2v4h-6l-4 7-2 4h-2v11h-1v-10l-4-2 1-2-1-7-4 2 2-5 2-3 9 2 6-1z" fill="#663535"/>
<path transform="translate(926,998)" d="m0 0 4 1-1 3h5l2 3h-7l-10 3-3 2-11 2h-6l1-4 8-1v-2l10-4z" fill="#807570"/>
<path transform="translate(134,577)" d="m0 0h17v1l-14 2-8 2v82h-1l-1-13-1-38v-29l5-6z" fill="#E88F91"/>
<path transform="translate(533,538)" d="m0 0h7l5 3 1 11-4 4-4-1-2-6h-2l-3-6z" fill="#DCD8D4"/>
<path transform="translate(1173,521)" d="m0 0h2v8l-1 1-9 1v50l-3 1-4-1-1-15-1-35h-8l-2-1-1-7 2-1v7h9l2 2 2 48h3v-49l1-1 9-1z" fill="#EABCC0"/>
<path transform="translate(591,353)" d="m0 0 4 1 1 11 5 1-1-11h3l2 13-4 1-5-1 4 15 1 7h-7l-2-4 5 1-4-18-1-1z" fill="#807470"/>
<path transform="translate(1028,938)" d="m0 0 4 1-1 3-7 2-1 2h18l-1 2-1 16 6 1v2h-7l-4-1v-9l1-7h-4v-2l-8-1-1 2-2-2 1-5 4-3z" fill="#6A4040"/>
<path transform="translate(729,247)" d="m0 0 4 1-2 7v34l-5-1v-5l1-5-1-18-2-1v-2l2-1 1-7z" fill="#614C4C"/>
<path transform="translate(624,379)" d="m0 0h1v12h-2l-1 17-3 3-8 1-1-1v-11l2-3 2 1-1 3 8 1-1-15 3-1z" fill="#B9B1AC"/>
<path transform="translate(850,261)" d="m0 0 2 1 1 7h6l3-7 4 1v28h-79v-1h78v-19h-13l-1-1z" fill="#D7BDBC"/>
<path transform="translate(1047,923)" d="m0 0h11l3 8v29l-1 5v2h-2v-19l1-1 1-7-4-1v-14l-8-1 1 15-1 16-1 6h-1v-31l-1-6z" fill="#BF9996"/>
<path transform="translate(1009,554)" d="m0 0h2l1 3 3-1 4 16-1 3-5-12-2-3-2 1h-14l1 3v21l-1 1h-7l-1-5v-19h1l1 5v18l5-1v-24l1-1 13-1z" fill="#EBBDC2"/>
<path transform="translate(917,99)" d="m0 0h2l1 5h1v23h-21l-4-3h22v-16l-9 1v-2l-2-1h9l-1-4z" fill="#685B59"/>
<path transform="translate(711,1186)" d="m0 0h19v1l-16 2-15 1-18 3-12 1-1 1-10 1h-11l2-2 17-2 28-4z" fill="#7C5956"/>
<path transform="translate(210,750)" d="m0 0h1v9l-3 14-7 20-4 4 1-7 8-27 2-11z" fill="#573334"/>
<path transform="translate(1049,255)" d="m0 0h4v32l-5-1v-29z" fill="#EDA5AB"/>
<path transform="translate(1074,565)" d="m0 0 4 2 5 16h-2l-3-3-4-2v-2l-6-2v-3h-3l-1 6h-1v-8l2-3z" fill="#EBA1A5"/>
<path transform="translate(1257,551)" d="m0 0 3 1 8 18 2 4h5l1-3 1 5-3 1-6-2-5-10-6-1v12l-2 2-5-1v-1h5v-24z" fill="#E8A0A3"/>
<path transform="translate(973,1028)" d="m0 0 4 2 2 5 4 2-1 5-5 5-4 2h-5v-2l6-2-5-6v-3h4z" fill="#F7F6F5"/>
<path transform="translate(801,544)" d="m0 0h2l4 13 1 10h-10l-1-2z" fill="#E9C0C4"/>
<path transform="translate(1180,1087)" d="m0 0 6 1 14 6 28 11 27 11 1 2-5-1-41-16-28-11v-2z" fill="#5A3234"/>
<path transform="translate(555,109)" d="m0 0 3 2-3 9-2 9-2 14-2 2h-3l1-9 2-13 4-13z" fill="#746865"/>
<path transform="translate(1190,534)" d="m0 0 3 1 4 15v5l-9 1-1-1 1-11z" fill="#EBBDC2"/>
<path transform="translate(1070,537)" d="m0 0h2l4 18v4h-10l1-12 2-9z" fill="#ECB5BB"/>
<path transform="translate(1058,1037)" d="m0 0h4l5 5 26 10 22 9-1 2-9-3-31-12-17-7v-3z" fill="#553335"/>
<path transform="translate(957 1e3)" d="m0 0 4 2v2h2l-1-3 4 2v4h-4l2 5v8l-2 3-3-1-3-11v-10z" fill="#D7D3CF"/>
<path transform="translate(257,565)" d="m0 0h10l2 2 10 1 1 3h5l-3 2-5-2h-6l-3 1-3-2-4 1-8 4-1 14h-1v-19z" fill="#EB969A"/>
<path transform="translate(224,534)" d="m0 0h2l1 11v16l-1 32h-1l-2-25v-25z" fill="#B44E51"/>
<path transform="translate(892,988)" d="m0 0h1v9l-1 11-5 2-2-1v-5l-2 4-4 4v5l-2-1-1-3-2-2 3-2 2-8 5-1 4 1 2-4z" fill="#693232"/>
<path transform="translate(1123,540)" d="m0 0 2 4 2 36 3 1-5-1-2-17-4-1-1 2 1-10z" fill="#EBBCC2"/>
<path transform="translate(942,93)" d="m0 0h22v3l-1 3-4-1-5 3h-8v-5h-2l1 5-1-2-4 1z" fill="#D5D0CC"/>
<path transform="translate(753,262)" d="m0 0 6 4v9h-5l1 14h-3l-3-10-1-2 3-1-3-1h3v-9z" fill="#675B59"/>
<path transform="translate(941,93)" d="m0 0 1 4-2 3 4-2v-2h2v5l8-1 2-2 2 1 1-4 2 4h2l1-2 1 3-1 2h8v1h-31v-2l-7 1 2-4v-4z" fill="#B2ABA4"/>
<path transform="translate(1033,923)" d="m0 0h1v12h2v3l5 2v6h-18l1-3 7-2 1-2h-6l3-3h4z" fill="#A29690"/>
<path transform="translate(747,172)" d="m0 0h7l5 1h5l-4 2h-7v2l-9 1-2 4-1-1-3 6-4-1-3 3 1-5 4-6z" fill="#AC6867"/>
<path transform="translate(905,86)" d="m0 0h10v5l21 1 1 8h-3v-7h-31l-3-2 2-4z" fill="#F2EBEB"/>
<path transform="translate(1143,523)" d="m0 0h2l1 7 3 1-2 6v5l-2 3-5-2-1-1 1-15z" fill="#EB969A"/>
<path transform="translate(738,277)" d="m0 0h10l2 2 2 5v5h-12v-6l2-1-4-2z" fill="#C3BBB6"/>
<path transform="translate(753,242)" d="m0 0h1l2 13v7l-4 4-1 9h-2v-19l-1-7h5z" fill="#978A84"/>
<path transform="translate(489,236)" d="m0 0h2l-1 3-5 5-4 8-2 9v13l1 9-3-3-1-3v-24l2-3 2-6h2l2-5z" fill="#BD615E"/>
<path transform="translate(790,985)" d="m0 0 9 1 14 3 1 1 11 2 1 3 7 2 1 2-10-3-9-3-22-4-3-2z" fill="#5F4343"/>
<path transform="translate(1096,151)" d="m0 0h11v9l-1 1-7 1h-16v-2l13-1 2-1 1-3h-3l-1-3z" fill="#817771"/>
<path transform="translate(1119,527)" d="m0 0h1l-1 9-6 28-2-1-6-23-2-8 1-4 5 18 2 3 3-1z" fill="#EBBCC2"/>
<path transform="translate(1030,950)" d="m0 0h5l-1 16 4 1-9-1-7 1 4-8 3-3z" fill="#D7D3CF"/>
<path transform="translate(238,418)" d="m0 0h1v44l-1 8h-1l-1-8v-36h2z" fill="#ECA0A5"/>
<path transform="translate(1044,925)" d="m0 0h2l1 5v21l-1 15h-1l-2-17-1-5v-12z" fill="#B54C4D"/>
<path transform="translate(1058,152)" d="m0 0 5 1v2l5 1v1h-5v5l2 1h-3v2l-11-1v-4l6 2v-5h-7v-3z" fill="#655A58"/>
<path transform="translate(742,213)" d="m0 0h5l-1 28h-4z" fill="#E99295"/>
<path transform="translate(906,246)" d="m0 0h16l5 3v2l-5 1h-15l-3-1 1-4z" fill="#EEADB4"/>
<path transform="translate(1098,540)" d="m0 0 3 3 5 19-1 4-3-9-2 2v22l-1 2h-6l4-2z" fill="#EABDC2"/>
<path transform="translate(911,94)" d="m0 0 5 2v10h-14l-3-1v-2l5 1v-6l-3 3-1-5h8v7l3 1z" fill="#BAB2AC"/>
<path transform="translate(1050,157)" d="m0 0h7v5l-4-1-2-1v4h7l-4 2-5 1-3 3-4 1v12l3 1h-4l-2-9 1-6 3-2 1-4h6z" fill="#968C86"/>
<path transform="translate(1235,519)" d="m0 0h5l1 1 1 13v45h-7l-4-8 1-4 4 9 5 2-1-19-1-37z" fill="#EABABF"/>
<path transform="translate(994,180)" d="m0 0 13 1 6 4 2 3v3l-11-1-5-5v-2l-5-1z" fill="#C7AFAC"/>
<path transform="translate(1042,187)" d="m0 0 4 1h-2l1 3 4 2 6-1 5-2 3 6-6-1 1 3-3 2h-6l-2-4-4-1-1-4-6-2v-1z" fill="#C8B5B2"/>
<path transform="translate(515,530)" d="m0 0h1l1 21 1 6v18l1 10v5l-2-2-3-38-1-9v-9z" fill="#E7898A"/>
<path transform="translate(972,1022)" d="m0 0 5 1 6 3-1 8h-2l-1-4-6-3v7h-4v-4h-2l1-5z" fill="#8B807A"/>
<path transform="translate(905,238)" d="m0 0 4 3h10l9-2 4-1v2l-8 3h-3v2l5 1 5 3v2h-4l-2-3-3-1-15-1-1-4-5-2z" fill="#E78B8C"/>
<path transform="translate(503,245)" d="m0 0 5 1 10 6 5 5v10l-3 2v-10l-4-5-4-2h-6l-3 4h-2l1-5z" fill="#CE3F33"/>
<path transform="translate(891,113)" d="m0 0 3 4 2 8h12v1l-8 1-7 3 3 3-4 2-2 3v-21z" fill="#4C3639"/>
<path transform="translate(761,267)" d="m0 0 14 1 9 3v2h-24v-5z" fill="#BEB7B1"/>
<path transform="translate(877,176)" d="m0 0 2 4 3 3-18 2h-8l2-4 18-4z" fill="#724645"/>
<path transform="translate(726,355)" d="m0 0 2 3 1 6h-52v5l-4-2-1-3-14-1v-1l67-1-1-2h2z" fill="#C4BAB4"/>
<path transform="translate(1084,156)" d="m0 0h8v3l-9 2h-20v-3z" fill="#DCD9D5"/>
<path transform="translate(1066,524)" d="m0 0 1 2-4 17-7 40 6-1v2h-7l-1-4 2-18 2-3 2-15 5-19z" fill="#ECBCC1"/>
<path transform="translate(734,827)" d="m0 0h8v4l-10 1 1 5h-3l-3-7-1 7-3-1 2-5-5 3v-5z" fill="#EDADB3"/>
<path transform="translate(725,1124)" d="m0 0h1l1 22v10l-3 8v11l-2-1v-12z" fill="#665C5A"/>
<path transform="translate(1050,955)" d="m0 0h6l1 10-3 2-7-1v-10z" fill="#DCD6D2"/>
<path transform="translate(871,897)" d="m0 0h9l1 1 1 15-2 1-3-2 1-6h-6v2h-2l1-3h8v-7l-5 1-17 1h-16v-1z" fill="#B8AFA9"/>
<path transform="translate(543,205)" d="m0 0 2 1v46h-2l-1-27v-18z" fill="#6C3B3A"/>
<path transform="translate(1050,939)" d="m0 0 7 1 1 4-3 3 1 6h-7l-1-13z" fill="#DCD8D4"/>
<path transform="translate(1048,170)" d="m0 0h5l1 1v7l-1 5-9-1 1-5h2l-1-5z" fill="#DEDAD6"/>
<path transform="translate(188,514)" d="m0 0 3 3 2 13v5h-7l1-3h2l-3-7v-8h2z" fill="#9A8D86"/>
<path transform="translate(208,313)" d="m0 0 3 1 3 7 3 11v5l-2-3-3-8-45-1v-1l45-1-5-6z" fill="#C39F9E"/>
<path transform="translate(202,603)" d="m0 0h1l1 18 1 5 1 7h4v-5l2-1 1 5-4 8-3 2-2-3-1-8-1-7z" fill="#E7898A"/>
<path transform="translate(1031,138)" d="m0 0h13v8h5l-3 2-5 2-1 4h3v4l-4-1h2v-2h-5l4-7h3v-2l-4-1 2-1-1-4h-2l-1 2v-2h-4l-1 8h-1z" fill="#988C85"/>
<path transform="translate(701,830)" d="m0 0h8l1 2-7 3-5 5-7 1-7-2 2-6 2 4 2-1 1-4h4l-2 4-2 3 5-2 4-4z" fill="#EA969A"/>
<path transform="translate(653,830)" d="m0 0h9v3l-9 4-2 6-3-1v-2h-2l1-6 3-3z" fill="#FBFBFB"/>
<path transform="translate(966,1024)" d="m0 0 1 2-3 11 1 4 2 1 2 2h3l-2-3 4 2 1 3-8 2-7-7 1-9 2-5h2z" fill="#D6D1CD"/>
<path transform="translate(600,392)" d="m0 0h15l-1 5-3 3-1 13-1 2h-2l1-18h-2v-2h-6z" fill="#716663"/>
<path transform="translate(883,223)" d="m0 0h6l2 2-7 1-5 8-5 1-2-2h-3v-2l7-5z" fill="#B26665"/>
<path transform="translate(734,277)" d="m0 0h4l1 3 4 2-3 1v6h-9l1-7z" fill="#8A7F79"/>
<path transform="translate(1029,965)" d="m0 0 8 2-2 1v3l-8 5-4-1-1-8z" fill="#FDFDFD"/>
<path transform="translate(965,242)" d="m0 0h28l25 1v1l-9 1h-16l-1-1h-10l-11 1h-10z" fill="#8E8580"/>
<path transform="translate(493,233)" d="m0 0h6l1 4 5 4v2l4 2 1 2-7-2v6l-2-3-4-10-7 1 1-3-2-1z" fill="#E8989B"/>
<path transform="translate(589,372)" d="m0 0 3 1v2h2l1-3 1 5v8h-4l-2 2-3-9-2-2z" fill="#CFCAC5"/>
<path transform="translate(601,397)" d="m0 0 5 1 1 14-7-1-4-5v-3l8 2-3-4z" fill="#FCFCFC"/>
<path transform="translate(927,93)" d="m0 0h7v9l7-1v2h-15v-9z" fill="#827873"/>
<path transform="translate(1043,155)" d="m0 0h7v8l-14-1-1-4h8z" fill="#D3CDC9"/>
<path transform="translate(1040,920)" d="m0 0 2 1-1 10-3 1-1 5-1-2h-2l-1-14 4 1z" fill="#693333"/>
<path transform="translate(1048,168)" d="m0 0h8l4 3-1 7-5 5h-1v-12h-6z" fill="#EFB4BC"/>
<path transform="translate(1028,938)" d="m0 0 4 1-1 3-7 2-1 2h18v1l-6 1v2h-4v-2l-8-1-1 2-2-2 1-5 4-3z" fill="#6E6461"/>
<path transform="translate(1254,520)" d="m0 0 2 4 4 5-1 4 1 2-3 8h-3z" fill="#ECA5AA"/>
<path transform="translate(805,983)" d="m0 0 18 4-2 2-6 1-20-4v-1h10z" fill="#817771"/>
<path transform="translate(622,393)" d="m0 0h1v33h-3v-13l-6 3-3-2v-2l9-3 1-1z" fill="#988D87"/>
<path transform="translate(738,249)" d="m0 0h7l4 5 1 4-4 1-7-4z" fill="#BFB7B1"/>
<path transform="translate(187,540)" d="m0 0h6l1 2v10h-5l-2-2z" fill="#C4A4A1"/>
<path transform="translate(1015,525)" d="m0 0h11l-5 6-7 2-4-2v-4z" fill="#EB989C"/>
<path transform="translate(1034,146)" d="m0 0 6 1-1 5-2 2 4 1v2l-6 1 1 4h-2v6l-2 1z" fill="#715956"/>
<path transform="translate(977,1023)" d="m0 0h7l3 6v7h-8l-4-7-2-2 4 1 3 2v4h2l1-8-6-2z" fill="#CCA8A7"/>
<path transform="translate(956,1011)" d="m0 0 2 4 2 8-3 6-2 9-2-2-1-8 3-8z" fill="#847A74"/>
<path transform="translate(592,391)" d="m0 0 8 2v2h6v2h2v15h-1l-1-14-6-1v4h-2l-1-5h-5z" fill="#928681"/>
<path transform="translate(1057,940)" d="m0 0h3v7l-2 5-1 8h-1v-5l-9 1 1-10h1v7h7l-2-6 2-3h2z" fill="#CDB6B4"/>
<path transform="translate(625,378)" d="m0 0h3v11l2 8-1 6h-3l-2-18z" fill="#635352"/>
<path transform="translate(1217,536)" d="m0 0 4 2 8 19-1 3-7-16v-2h-2v23h-1z" fill="#E9C0C4"/>
<path transform="translate(882,1021)" d="m0 0 6 1 21 6v2l4 2-5-1-11-3-9-2-6-4z" fill="#715B58"/>
<path transform="translate(201,599)" d="m0 0h1v13l-2 5-10-1 1-5h10z" fill="#CC3F34"/>
<path transform="translate(238,527)" d="m0 0 2 2 1 24v6h-3z" fill="#EA9396"/>
<path transform="translate(1032,179)" d="m0 0 2 2v7l8 2 1 5h-9l-1 2z" fill="#8C827C"/>
<path transform="translate(1059,929)" d="m0 0 2 2v29l-1 5v2h-2v-19l1-1 1-7-4-1 1-2h2z" fill="#8F7F7A"/>
<path transform="translate(675,831)" d="m0 0h8l-6 3-3 7-3-1 2-2 1-4-5 4-1 2-4 1v-4l5-5z" fill="#EDA8AE"/>
<path transform="translate(1058,1037)" d="m0 0h4l5 5 16 6v1l-9-1-17-7v-3z" fill="#633232"/>
<path transform="translate(331,726)" d="m0 0 2 1-1 7-5 12h-4l1-4 4-9z" fill="#B44E51"/>
<path transform="translate(257,565)" d="m0 0h10l2 2 10 1 1 2-16-2h-5l-4 1v2h-3v18h-1v-19z" fill="#E78A8B"/>
<path transform="translate(737,980)" d="m0 0 25 2 2 2h-27z" fill="#645755"/>
<path transform="translate(1211,522)" d="m0 0h1l1 18v23h-1l-1-17-2-18z" fill="#EB969A"/>
<path transform="translate(758,265)" d="m0 0 27 1 1 2h-25l-1 5-2-4z" fill="#908781"/>
<path transform="translate(1036,176)" d="m0 0 3 2 1 6 20 1v1l-25 1v-10z" fill="#693837"/>
<path transform="translate(957 1e3)" d="m0 0 4 2v2h2l-1-3 4 2v4h-4l-1 3-4-2-1 3v-10z" fill="#B6AEA7"/>
<path transform="translate(896,951)" d="m0 0 3 1-1 16-2 14-2-2 1-9z" fill="#5B3B3C"/>
<path transform="translate(883,897)" d="m0 0 3 1v13l-1 9h-3l-3-4 3-2z" fill="#6A3232"/>
<path transform="translate(671,1191)" d="m0 0h11l-1 2-12 1-1 1-10 1h-11l2-2 17-2z" fill="#835753"/>
<path transform="translate(964,1034)" d="m0 0h9v2h-4l3 7 1 2-6-1-2-2-2-1z" fill="#C1BAB4"/>
<path transform="translate(1022,964)" d="m0 0v3l-1 45h-1l-1-32v-14z" fill="#6E6461"/>
<path transform="translate(847,246)" d="m0 0 3 3 1 8h5l1 3-1 3h-2l-1 3-2-4-3-2z" fill="#AD6868"/>
<path transform="translate(917,78)" d="m0 0h4v13h-6l-1-6h3z" fill="#B4938E"/>
<path transform="translate(241,611)" d="m0 0 2 2v30l-2-3-1-13v-15z" fill="#E7898B"/>
<path transform="translate(1119,562)" d="m0 0 4 1 2 6v6l-3-4-1-2-3-1-2 12-2 1 3-17h2z" fill="#EBA1A6"/>
<path transform="translate(950,1017)" d="m0 0 4 1-1 5-2 4-5 1-1 3v-8l1-2h2z" fill="#6A3635"/>
<path transform="translate(883 1e3)" d="m0 0 4 1v2l-3 2-1 3-4 4v5l-2-1-1-3-2-2 3-2 2-8z" fill="#6D403F"/>
<path transform="translate(788,981)" d="m0 0h9l8 2v2h-18l-3-2z" fill="#C1BAB4"/>
<path transform="translate(614,404)" d="m0 0h7l-1 6-5 2h-4v-7z" fill="#FAFAFA"/>
<path transform="translate(607,382)" d="m0 0 3 4 4 4 2 1-1 4v-3l-8 1-10-1v-2h4l1-3 2 4 2-2 1 1z" fill="#C9C2BD"/>
<path transform="translate(887,1135)" d="m0 0 10 2 1 3 2 1-3 3-5-1 1-2-6-1-1-4z" fill="#685E5C"/>
<path transform="translate(959,1033)" d="m0 0h1l1 8 4 4v2h2v2l-6-1-4-4v-9z" fill="#6B4342"/>
<path transform="translate(134,577)" d="m0 0h17v1l-14 2-8 2-1 16h-1v-16l4-4z" fill="#EDA9B0"/>
<path transform="translate(1053,239)" d="m0 0 2 2v5l-1 2 3 2v2h-9v-4l2-4 3 1-1-5z" fill="#EBA9AE"/>
<path transform="translate(1021,211)" d="m0 0 2 1v9l-1 8-2 1-1-3v-12l-4-3z" fill="#B36868"/>
<path transform="translate(192,705)" d="m0 0 3 1 2 11-2 2-4-1v-12z" fill="#B8AAA4"/>
<path transform="translate(1191,542)" d="m0 0h2l2 5v7l-5 1-1-1 1-11z" fill="#EB969A"/>
<path transform="translate(259,608)" d="m0 0h10v3l-8 1-2 3-5-1 1-5z" fill="#DCD8D4"/>
<path transform="translate(476,257)" d="m0 0h3v17l1 9-3-3-1-3z" fill="#B94B4B"/>
<path transform="translate(546,162)" d="m0 0h3 1l1 9h-1l-1 16-2-4z" fill="#DCD8D4"/>
<path transform="translate(194,652)" d="m0 0 4 1v12h-4l-1-4v-7z" fill="#E1D9D7"/>
<path transform="translate(192,598)" d="m0 0h5l1 2-1 11-4-1-1-7z" fill="#E99194"/>
<path transform="translate(1048,165)" d="m0 0h6v1l-5 1-3 3-4 1v12l3 1h-4l-2-9 1-6z" fill="#978B84"/>
<path transform="translate(872,907)" d="m0 0 2 1 2 5 2 2-7 3h-3l2-10z" fill="#6A3737"/>
<path transform="translate(242,669)" d="m0 0h2l1 25h-4z" fill="#EDA3A9"/>
<path transform="translate(735,248)" d="m0 0h2l-2 10 2 2v7l-3 7h-1v-15l-1-1v-7l3 1z" fill="#817771"/>
<path transform="translate(882,150)" d="m0 0 2 1-1 2h-2l-2 19h-2l-1-16 4-5z" fill="#9F8F89"/>
<path transform="translate(905,127)" d="m0 0h8l1 6h-10l-1-5z" fill="#FDFDFD"/>
<path transform="translate(599,377)" d="m0 0 5 1 1 14-3-2-3-7z" fill="#F0EFED"/>
<path transform="translate(970,1019)" d="m0 0 4 1-5 5-2 5h2v4h-4l1-9-1 2h-2l2-5z" fill="#C6BFB9"/>
<path transform="translate(790,985)" d="m0 0 9 1 11 2v1l-5 1-3 1-11-3z" fill="#6A5F5C"/>
<path transform="translate(1038,941)" d="m0 0 2 1v4h-17l1-3 12-1z" fill="#DEDBD7"/>
<path transform="translate(1e3 183)" d="m0 0 4 1 6 4v3l-11-1v-4l2-1z" fill="#EEDADB"/>
<path transform="translate(899,127)" d="m0 0h6l-1 6h-9v-2l-3-1 3-2z" fill="#BDB6B0"/>
<path transform="translate(915,91)" d="m0 0 21 1 1 8h-3v-7h-31v-1z" fill="#D2CAC7"/>
<path transform="translate(629,810)" d="m0 0h6l-2 4-6 2h-7l-1-4 10 1z" fill="#F3EDED"/>
<path transform="translate(722,1183)" d="m0 0h6l1 2-9 2h-12l-3-3z" fill="#E49699"/>
<path transform="translate(787,977)" d="m0 0 24 4-3 2-11-1-10-2z" fill="#796E6A"/>
<path transform="translate(162,427)" d="m0 0h3l1 2 5 2 2 6-3 1-1-3h-3v-2h-3z" fill="#B44D4F"/>
<path transform="translate(950,1034)" d="m0 0 2 4 1 7-11-2-2-3h7z" fill="#693939"/>
<path transform="translate(699,1178)" d="m0 0 4 1-3 2-24 2 1-2z" fill="#EB9CA1"/>
<path transform="translate(253,617)" d="m0 0 5 1 3 2v4h13v1h-21l1-4h5l-6-3z" fill="#E88D8F"/>
<path transform="translate(1101,556)" d="m0 0 2 1 2 9-2-1-2 1-1 11h-1v-18z" fill="#EB969A"/>
<path transform="translate(893,105)" d="m0 0 14 1 2 1v2h-17v-3z" fill="#625251"/>
<path transform="translate(225,775)" d="m0 0 4 1v7l-3 2-4-1z" fill="#F0DFE0"/>
<path transform="translate(1032,148)" d="m0 0h2v9l-2 20h-1v-24z" fill="#B2A9A3"/>
<path transform="translate(880,898)" d="m0 0h1l1 15-2 1-3-2 1-6h-6v2h-2l1-3h9z" fill="#8E8580"/>
<path transform="translate(1081,551)" d="m0 0 2 4 5 23v5l-5 1 2-2v-7l-4-19z" fill="#EBBCC2"/>
<path transform="translate(850,261)" d="m0 0 2 1 1 7h6l3-7 4 1v7h-1l-1-5-1 5-3 1h-8l-1-1z" fill="#C19F9B"/>
<path transform="translate(594,400)" d="m0 0 2 1 2 6 2 4h5v1h-5l-1 4-3-6-4-5 1-4z" fill="#B2AAA4"/>
<path transform="translate(1106,157)" d="m0 0 1 3-1 1-7 1h-16v-2l18-1h5z" fill="#695E5C"/>
<path transform="translate(646,1191)" d="m0 0h10l3 2-10 2h-8l1-3z" fill="#E6B9BD"/>
<path transform="translate(976,1023)" d="m0 0 7 3-1 8h-2l-1-4-6-5z" fill="#C3453F"/>
<path transform="translate(966,1006)" d="m0 0h1v6l-1 4 5 2-2 2v-2l-5 2-1-8-1-5z" fill="#837973"/>
<path transform="translate(1010,546)" d="m0 0 4 1v10l-3 1-1-7h-2z" fill="#EB969A"/>
<path transform="translate(592,397)" d="m0 0h5l1 4h2l1-4 2 5 1 3-6-1-4-3z" fill="#C6C0BC"/>
<path transform="translate(1057,138)" d="m0 0 5 1v9l-2 2v-2h-7l-1-2 8-1-1-5h-2z" fill="#9F8D87"/>
<path transform="translate(888,77)" d="m0 0h14l-3 5-5 2-2-2 1-3-4-1-1 3z" fill="#978C85"/>
<path transform="translate(753,242)" d="m0 0h1l2 13v6h-3l-1-8-2-4h3z" fill="#765958"/>
<path transform="translate(1059,175)" d="m0 0 4 4-1 8-1-3h-9l5-4z" fill="#C1B9B3"/>
<path transform="translate(947,1016)" d="m0 0h2l-1 5h-2l-2 6-1 11-2-1v-11h2l2-7z" fill="#988D86"/>
<path transform="translate(597,381)" d="m0 0h2l2 4v5h-7l-2-4 5 1z" fill="#6E625F"/>
<path transform="translate(605,370)" d="m0 0h6l5 3v2h-10z" fill="#FDFDFD"/>
<path transform="translate(552,234)" d="m0 0h2v16l-1-4h-3v-8h2z" fill="#E7898A"/>
<path transform="translate(961,1041)" d="m0 0h6v2l5 1-2-3 4 2 1 3-8 2-5-5z" fill="#D8D3CF"/>
<path transform="translate(893,983)" d="m0 0h1v5h-2l-1 9-3 4-3-1v-2l2-1 4-12z" fill="#4D3336"/>
<path transform="translate(119,679)" d="m0 0h5l-3 2v15l3 3v2l2 1-6-1-1-1z" fill="#B76565"/>
<path transform="translate(607,394)" d="m0 0 4 2-1 3v14l-1 2h-2z" fill="#523C3D"/>
<path transform="translate(712,396)" d="m0 0h11l-1 3-3 1h-10l3 5-1 4-3-6v-4l10-1-6-1z" fill="#DCD8D4"/>
<path transform="translate(871,255)" d="m0 0 5 1v4l-2 5-3-2-1-7z" fill="#C1908F"/>
<path transform="translate(942,93)" d="m0 0h6l1 6-1 2h-2v-5h-2l1 5-1-2-4 1z" fill="#D8D3CF"/>
<path transform="translate(1030,950)" d="m0 0h5v7l-1 1h-6z" fill="#BAB3AD"/>
<path transform="translate(178,795)" d="m0 0h3l-1 6-2 4h-2v2h-3l1-4z" fill="#B44E51"/>
<path transform="translate(237,393)" d="m0 0h1v13h-1l-1 8h-1v-20z" fill="#EA9598"/>
<path transform="translate(609,363)" d="m0 0h3l1 7-7-1-2-2 1-3z" fill="#A69D96"/>
<path transform="translate(658,359)" d="m0 0h15v2l-3 1h-12z" fill="#AA9D95"/>
<path transform="translate(941,93)" d="m0 0 1 4-2 3 3-1v2l-9 1 2-4v-4z" fill="#BCB5AF"/>
<path transform="translate(921,93)" d="m0 0h6l-1 10h-2v-2h-3z" fill="#675D5B"/>
<path transform="translate(541,145)" d="m0 0h5l-1 18-2-2-1-9v-3z" fill="#995454"/>
<path transform="translate(596,368)" d="m0 0h5l2 3-1 4h-5z" fill="#F0EEED"/>
<path transform="translate(546,225)" d="m0 0h1l1 32-1-2-3-1v-2h2z" fill="#B64B4B"/>
<path transform="translate(1056,155)" d="m0 0 4 1v7l-2 1h-7v-4l6 2z" fill="#554445"/>
<path transform="translate(900,96)" d="m0 0h8v6l-1 2-3-1v-5l-3 3z" fill="#D1CCC7"/>
<path transform="translate(336,584)" d="m0 0h1l1 13h-5v-8h3z" fill="#EA9497"/>
<path transform="translate(692,366)" d="m0 0h16v3h-16z" fill="#C2BAB5"/>
<path transform="translate(892,110)" d="m0 0 5 1 1 4-1 1-1 7-2-3z" fill="#91867F"/>
<path transform="translate(1034,938)" d="m0 0 5 1 2 1v6l-3-4-2 1h-9v-1h6z" fill="#BEA4A1"/>
<path transform="translate(650,831)" d="m0 0 2 1-3 3-1 4h2l2-4 2 1-2 3-1 4-3-1v-2h-2l1-6z" fill="#EAB5B9"/>
<path transform="translate(739,252)" d="m0 0h7l2 5-5 1-4-3z" fill="#DCD8D4"/>
<path transform="translate(995,210)" d="m0 0 4 1-1 5-7 1 1-5z" fill="#C8BBB8"/>
<path transform="translate(739,178)" d="m0 0 2 1-2 5-2 3h-4l-2 2 1-5z" fill="#B15B5C"/>
<path transform="translate(891,126)" d="m0 0 3 1h5l-6 3 3 3-4 2-2 3v-9z" fill="#726662"/>
<path transform="translate(895,95)" d="m0 0 1 4h2l1-3 3 4 2-3 1 4-1 3-6-2v-2h-3z" fill="#827872"/>
<path transform="translate(858,910)" d="m0 0h7l1 3h2l1-2-1 9-4-2v-6l-6-1z" fill="#BE9D9A"/>
<path transform="translate(726,828)" d="m0 0h3l-1 3h-1l-1 6-3-1 2-5-5 3v-5z" fill="#ECA4AA"/>
<path transform="translate(654,406)" d="m0 0 5 1 1 5-8-1 1-4z" fill="#6A5B59"/>
<path transform="translate(603,375)" d="m0 0h2l3 11-1 5-2-2-2-11z" fill="#827571"/>
<path transform="translate(592,364)" d="m0 0 4 4 2 7v6l-2 2-3-14z" fill="#928782"/>
<path transform="translate(691,832)" d="m0 0h4l-2 4-2 3h-7l2-6 2 4 2-1z" fill="#EDA8AE"/>
<path transform="translate(1096,151)" d="m0 0h7l-2 4v5h-5l3-5h-3l-1-3z" fill="#9D948D"/>
<path transform="translate(890,108)" d="m0 0 5 1-3 1 1 6-2 1-1 8h-1v-15z" fill="#685E5B"/>
<path transform="translate(1129,1067)" d="m0 0 5 1 10 4-1 2-5-1-8-3z" fill="#573334"/>
<path transform="translate(926,1030)" d="m0 0 2 4-4 2-7-1-4-3h11z" fill="#6B4847"/>
<path transform="translate(786,979)" d="m0 0 5 1-2 3h-3l4 2-1 2-8-1-1-4h5z" fill="#A89C94"/>
<path transform="translate(625,378)" d="m0 0h3v13h-2l-1 2-1-8z" fill="#5A4646"/>
<path transform="translate(359,326)" d="m0 0v3l-4 4-3 5-6 4 2-5 5-5z" fill="#B1928D"/>
<path transform="translate(945,260)" d="m0 0 4 3 1 6 7-1v2h-8l-2-6-3 5h-3l3-3z" fill="#E6B1B2"/>
<path transform="translate(729,247)" d="m0 0 4 1-3 8h-3v-7z" fill="#704847"/>
<path transform="translate(902,94)" d="m0 0 9 1v9h-4v-8l-5-1z" fill="#675957"/>
<path transform="translate(977,1046)" d="m0 0h3l-1 3-4 2h-7l-3-2 3-1 7-1z" fill="#B1A69F"/>
<path transform="translate(954,999)" d="m0 0h7l2 5h-2l-2-3h-2l-2 6-2-3z" fill="#635452"/>
<path transform="translate(805,983)" d="m0 0 8 2 1 3-19-2v-1h10z" fill="#9F948D"/>
<path transform="translate(1241,521)" d="m0 0 2 2 1 9-1 10h-1l-1-12z" fill="#EB969A"/>
<path transform="translate(591,377)" d="m0 0h5v8l-4-2-1-1z" fill="#F4F3F2"/>
<path transform="translate(500,242)" d="m0 0 7 1 3 4-7-2v6l-2-3z" fill="#E78B8D"/>
<path transform="translate(715,829)" d="m0 0 2 1-1 6-2 3h-5v-3l4-1z" fill="#ECABB0"/>
<path transform="translate(966,565)" d="m0 0 2 4 3 14-1 5h-2v-7l-2-10z" fill="#EBBDC2"/>
<path transform="translate(944,96)" d="m0 0h2v5h7v2h-12v-2h2z" fill="#9C938C"/>
<path transform="translate(896,86)" d="m0 0h9l-3 1-1 4-2 1-3-1z" fill="#A5918A"/>
<path transform="translate(688,1189)" d="m0 0h8l-1 2-13 1-4-2z" fill="#6A605E"/>
<path transform="translate(965,1034)" d="m0 0h8v2h-4v4h-5z" fill="#AEA49E"/>
<path transform="translate(1028,938)" d="m0 0 4 1-1 3-9 1 1-3z" fill="#664746"/>
<path transform="translate(719,829)" d="m0 0 2 4 4-2-2 7h-5z" fill="#D96966"/>
<path transform="translate(692,806)" d="m0 0h5l-1 3-6 3-3-1v-2h3v-2z" fill="#DAAFAF"/>
<path transform="translate(977,1023)" d="m0 0h7l3 6v7l-2-4-2-3v-3l-6-2z" fill="#A99D96"/>
<path transform="translate(879,984)" d="m0 0v3l-8 5-1 5-3-1h2v-5l5-5z" fill="#867C76"/>
<path transform="translate(734,827)" d="m0 0h8v4h-7z" fill="#F1DCDE"/>
<path transform="translate(160,787)" d="m0 0h1l1 13h-3l-1-7z" fill="#B54D4F"/>
<path transform="translate(202,603)" d="m0 0h1l1 18 1 5-2 1-1-3z" fill="#EA9396"/>
<path transform="translate(238,562)" d="m0 0 5 1 1 4-4 2-2-3z" fill="#EAA1A5"/>
<path transform="translate(178,435)" d="m0 0 4 2 5 6-1 2-4-3-4-4z" fill="#683232"/>
<path transform="translate(906,273)" d="m0 0 2 1v10l6 2v1h-6l-2-1-1-8z" fill="#E88F91"/>
<path transform="translate(965,242)" d="m0 0 17 1v1l-11 1h-10z" fill="#948782"/>
<path transform="translate(1084,156)" d="m0 0h8v3l-6 1-4-1v-2z" fill="#E5E2DF"/>
<path transform="translate(1047,155)" d="m0 0h3v8l-3-1v-3h-3v-3z" fill="#FAFAFA"/>
<path transform="translate(906,135)" d="m0 0h8l4 2-1 1h-11z" fill="#F0ECEB"/>
<path transform="translate(907,110)" d="m0 0 5 1-1 5-6-1 1-4z" fill="#FDFDFD"/>
<path transform="translate(917,99)" d="m0 0h2v8h-12v-1h9l-1-4z" fill="#847973"/>
<path transform="translate(958,93)" d="m0 0h6v3l-1 3-6-1z" fill="#C1BAB4"/>
<path transform="translate(917,78)" d="m0 0h3v9h-5l-1-2h3z" fill="#745B59"/>
<path transform="translate(963,1012)" d="m0 0h1v8l-2 3-3-1 1-4 1 1v-5z" fill="#B2A9A2"/>
<path transform="translate(803,989)" d="m0 0h10l4 2v2l-12-2z" fill="#554344"/>
<path transform="translate(1046,961)" d="m0 0h1v5h7l1 2h-15v-1l5-1z" fill="#C3B3AF"/>
<path transform="translate(610,411)" d="m0 0 4 4-1 4h-5l1-6z" fill="#716562"/>
<path transform="translate(600,412)" d="m0 0 5 1v6l-3 1-2-4z" fill="#726764"/>
<path transform="translate(178,385)" d="m0 0 4 2 2 4-1 4-6-8z" fill="#EB9A9E"/>
<path transform="translate(1042,187)" d="m0 0 4 1h-2l1 3 4 2v1h-5l-4-4-4-2z" fill="#C2BBB6"/>
<path transform="translate(1058,152)" d="m0 0 5 1v2l5 1v1h-5l-1 4-2-6-6-1z" fill="#837973"/>
<path transform="translate(1047,149)" d="m0 0h10v3h-10z" fill="#FDFDFD"/>
<path transform="translate(911,94)" d="m0 0 3 2v9h-3z" fill="#E3E0DD"/>
<path transform="translate(1080,1049)" d="m0 0 8 1 7 3v1l-8-1-7-3z" fill="#583334"/>
<path transform="translate(967,1018)" d="m0 0h2v2l-5 5-2 4-1-3-2-2 4-4z" fill="#6D6360"/>
<path transform="translate(967,1006)" d="m0 0 2 1 1 10-5-1z" fill="#B9B2AC"/>
<path transform="translate(1059,952)" d="m0 0h1l1 8-1 5v2h-2v-14z" fill="#756B67"/>
<path transform="translate(653,830)" d="m0 0h9v3l-8 2 1-3z" fill="#E7BDBF"/>
<path transform="translate(709,382)" d="m0 0 2 1v2h2v3l-3 1-2-1v5l-2-3 2-5z" fill="#D7D2CE"/>
<path transform="translate(600,355)" d="m0 0h3v13l-2-1z" fill="#685B59"/>
<path transform="translate(551,193)" d="m0 0 2 3-1 9h-2v-11z" fill="#EB969A"/>
<path transform="translate(1341,1100)" d="m0 0 3 1v8l-3 2z" fill="#A49A93"/>
<path transform="translate(1033,921)" d="m0 0 3 1v13h-2z" fill="#6B615E"/>
<path transform="translate(1090,577)" d="m0 0 2 2 2 5h-7l1-6z" fill="#E7898A"/>
<path transform="translate(239,571)" d="m0 0 4 1v6l-4 1z" fill="#E78B8D"/>
<path transform="translate(699,372)" d="m0 0h5l1 3-4 1-1 2-3-5z" fill="#C2BCB6"/>
<path transform="translate(882,1021)" d="m0 0 6 1 10 3v1h-7l-8-3z" fill="#6B3B3B"/>
<path transform="translate(884,979)" d="m0 0 1 4-1 3-1 2-3-1 1-5z" fill="#4E3A3C"/>
<path transform="translate(701,830)" d="m0 0h8l1 2-9 3z" fill="#ECAFB4"/>
<path transform="translate(629,810)" d="m0 0h6l-2 4-6 1-2-2h4z" fill="#E9DBDA"/>
<path transform="translate(768,801)" d="m0 0 2 2-5 2h-7l-1-2z" fill="#DAC0BF"/>
<path transform="translate(237,493)" d="m0 0h1v6h2l-2 13h-1z" fill="#E7898A"/>
<path transform="translate(1037,184)" d="m0 0 23 1v1l-23 1z" fill="#524142"/>
<path transform="translate(1154,1077)" d="m0 0 5 1 7 3v2l-5-1-5-2v-2z" fill="#563334"/>
<path transform="translate(913,1007)" d="m0 0h2l-1 3-9 2h-6l4-2z" fill="#664B4A"/>
<path transform="translate(1057,940)" d="m0 0h3v7l-4 2v-5h2z" fill="#BDB4AE"/>
<path transform="translate(1063,924)" d="m0 0h1v9l-5-4v-4l4 1z" fill="#914748"/>
<path transform="translate(1036,875)" d="m0 0 9 1v3l-9-2z" fill="#AF5C5C"/>
<path transform="translate(193,707)" d="m0 0h1l1 11-3-1v-9z" fill="#DEDAD7"/>
<path transform="translate(601,387)" d="m0 0 3 4 2-2 2 1-1 3-10-1v-2h4z" fill="#C1B9B3"/>
<path transform="translate(948,93)" d="m0 0h5v2h-2l1 6h-4z" fill="#BAB3AD"/>
</svg>
