<?xml version="1.0" encoding="iso-8859-1"?>
<!-- Uploaded to: SVG Repo, www.svgrepo.com, Generator: SVG Repo Mixer Tools -->
<svg version="1.1" id="Layer_1" xmlns="http://www.w3.org/2000/svg" xmlns:xlink="http://www.w3.org/1999/xlink" 
	 viewBox="0 0 512 512" xml:space="preserve">
<path style="fill:#797781;" d="M422.831,250.247c0-9.531-7.727-17.258-17.258-17.258h-57.528c-9.531,0-17.258,7.727-17.258,17.258
	c0,7.511,4.807,13.884,11.506,16.255v12.509h69.034v-12.509C418.024,264.131,422.831,257.758,422.831,250.247z"/>
<rect x="342.292" y="267.506" style="fill:#58575D;" width="69.034" height="57.528"/>
<path style="fill:#797781;" d="M399.82,181.213c0-9.531,7.727-17.258,17.258-17.258l0,0c9.531,0,17.258,7.727,17.258,17.258v34.517
	c0,9.531-7.727,17.258-17.258,17.258l0,0c-9.531,0-17.258-7.727-17.258-17.258V181.213z"/>
<path style="fill:#F8E99B;" d="M238.742,71.91h195.596v34.517H204.225C204.225,87.364,219.679,71.91,238.742,71.91z"/>
<rect x="250.247" y="71.91" style="fill:#F6E27D;" width="184.09" height="34.517"/>
<rect x="89.169" y="279.011" style="fill:#EDEDED;" width="34.517" height="138.067"/>
<rect x="112.18" y="117.933" style="fill:#797781;" width="46.022" height="299.146"/>
<polygon style="fill:#58575D;" points="457.348,388.315 388.315,388.315 388.315,319.281 457.348,325.034 "/>
<rect x="192.719" y="244.494" style="fill:#F8E99B;" width="103.551" height="161.079"/>
<rect x="250.247" y="244.494" style="fill:#F6E27D;" width="46.022" height="161.079"/>
<circle style="fill:#797781;" cx="451.596" cy="388.315" r="51.775"/>
<path style="fill:#DBDBDB;" d="M451.596,402.697c-7.931,0-14.382-6.451-14.382-14.382s6.451-14.382,14.382-14.382
	c7.931,0,14.382,6.451,14.382,14.382S459.526,402.697,451.596,402.697z"/>
<circle style="fill:#88888F;" cx="198.472" cy="388.315" r="51.775"/>
<path style="fill:#EDEDED;" d="M198.472,402.697c-7.931,0-14.382-6.451-14.382-14.382s6.451-14.382,14.382-14.382
	s14.382,6.451,14.382,14.382S206.403,402.697,198.472,402.697z"/>
<polygon style="fill:#EFC27B;" points="457.348,336.539 399.82,336.539 399.82,405.573 250.247,405.573 250.247,325.034 
	457.348,279.011 "/>
<path style="fill:#2E2D31;" d="M503.371,431.461h-9.559C505.024,420.488,512,405.205,512,388.315
	c0-28.351-19.638-52.189-46.022-58.66v-50.643c0-52.53-5.994-97.365-17.337-129.66c-5.441-15.491-11.526-26.515-17.742-34.295h3.438
	c4.766,0,8.629-3.864,8.629-8.629V71.91c0-4.766-3.864-8.629-8.629-8.629H238.742c-23.791,0-43.146,19.355-43.146,43.146
	c0,4.766,3.864,8.629,8.629,8.629h6.703c-4.516,6.419-8.909,15.057-12.889,26.618c-9.126,26.507-13.949,62.061-13.949,102.819l0,0
	v85.16c-6.179,1.515-11.987,3.977-17.258,7.234V117.933c0-4.766-3.864-8.629-8.629-8.629H112.18c-4.766,0-8.629,3.864-8.629,8.629
	v152.449H89.169c-4.766,0-8.629,3.864-8.629,8.629v129.438H8.629c-4.766,0-8.629,3.864-8.629,8.629s3.864,8.629,8.629,8.629h141.519
	c0.304,0,0.604-0.017,0.9-0.047c1.612,2.042,3.348,3.982,5.206,5.8h-9.558c-4.766,0-8.629,3.864-8.629,8.629
	s3.864,8.629,8.629,8.629h356.674c4.766,0,8.629-3.864,8.629-8.629S508.136,431.461,503.371,431.461z M494.742,388.315
	c0,23.791-19.355,43.146-43.146,43.146c-23.791,0-43.146-19.355-43.146-43.146s19.355-43.146,43.146-43.146
	C475.387,345.169,494.742,364.523,494.742,388.315z M258.876,331.955l189.843-42.188v38.142H399.82
	c-4.766,0-8.629,3.864-8.629,8.629v60.404H258.876V331.955z M201.348,253.122h86.292v54.761l-39.265,8.726
	c-3.949,0.878-6.757,4.379-6.757,8.423v21.064c-10.346-10.571-24.525-17.372-40.27-18.114V253.122z M425.708,215.73
	c0,4.759-3.87,8.629-8.629,8.629c-4.759,0-8.629-3.87-8.629-8.629v-34.517c0-4.759,3.871-8.629,8.629-8.629
	c4.759,0,8.629,3.87,8.629,8.629V215.73z M405.573,241.618c4.759,0,8.629,3.87,8.629,8.629s-3.87,8.629-8.629,8.629h-57.528
	c-4.759,0-8.629-3.87-8.629-8.629s3.87-8.629,8.629-8.629H405.573z M350.921,276.135h51.775v6.182l-51.775,11.506V276.135z
	 M448.679,272.098l-28.724,6.383v-6.72c6.932-4.651,11.506-12.557,11.506-21.513c0-4.105-0.964-7.987-2.673-11.44
	c8.405-4.282,14.178-13.015,14.178-23.077v-17.044C446.463,220.322,448.398,245.04,448.679,272.098z M238.742,80.539h186.966v17.258
	H214.332C217.893,87.753,227.491,80.539,238.742,80.539z M399.82,115.056c11.747,0,23.606,14.585,32.537,40.013
	c0.819,2.333,1.606,4.748,2.366,7.226c-4.628-4.318-10.83-6.969-17.644-6.969c-14.275,0-25.888,11.613-25.888,25.888v34.517
	c0,3.025,0.526,5.928,1.484,8.629h-44.63c-14.275,0-25.888,11.613-25.888,25.888c0,8.956,4.573,16.864,11.506,21.513v25.897
	l-28.764,6.393v-59.555c0-4.766-3.864-8.629-8.629-8.629h-13.684l36.695-36.695l16.91,16.91c1.684,1.684,3.893,2.528,6.101,2.528
	c2.208,0,4.417-0.842,6.101-2.528c3.37-3.37,3.37-8.834,0-12.203l-46.022-46.022c-3.37-3.37-8.834-3.37-12.203,0
	c-3.37,3.37-3.37,8.834,0,12.203l16.91,16.91l-48.899,48.898h-56.751c1.421-78.885,22.181-120.809,37.314-120.809H399.82z
	 M97.798,287.64h5.753v120.809h-5.753V287.64z M120.809,408.449V279.011V126.562h28.764v226.351
	c-7.228,9.956-11.506,22.185-11.506,35.402c0,7.059,1.228,13.832,3.463,20.135L120.809,408.449L120.809,408.449z M155.326,388.315
	c0-23.791,19.355-43.146,43.146-43.146s43.146,19.355,43.146,43.146s-19.355,43.146-43.146,43.146S155.326,412.106,155.326,388.315z
	 M240.688,431.461c5.065-4.957,9.265-10.79,12.347-17.258H397.03c3.081,6.468,7.283,12.302,12.347,17.258H240.688z"/>
</svg>