<?xml version="1.0" encoding="iso-8859-1"?>
<!-- Uploaded to: SVG Repo, www.svgrepo.com, Generator: SVG Repo Mixer Tools -->
<svg version="1.1" id="Layer_1" xmlns="http://www.w3.org/2000/svg" xmlns:xlink="http://www.w3.org/1999/xlink" 
	 viewBox="0 0 512 512" xml:space="preserve">
<path style="fill:#FFC107;" d="M477.867,298.667V332.8c0,4.693,3.84,8.533,8.533,8.533h8.533V384h-18.261
	c-3.84-14.677-17.067-25.6-32.939-25.6s-29.099,10.923-32.939,25.6H272.299c0.427-2.816,0.768-5.632,0.768-8.533
	c0-26.88-20.907-48.981-47.275-51.029l6.229-15.957l37.888,15.189h0.085l0.085,0.085c0.939,0.341,1.963,0.512,2.987,0.512h179.2
	c4.693,0,8.533-3.84,8.533-8.533v-51.2h34.133v20.309l-12.373,6.229C479.659,292.523,477.867,295.424,477.867,298.667z"/>
<g>
	<circle style="fill:#FFFFFF;" cx="221.867" cy="375.467" r="34.133"/>
	<circle style="fill:#FFFFFF;" cx="443.733" cy="392.533" r="17.067"/>
</g>
<path d="M507.307,297.728c2.901-1.451,4.693-4.352,4.693-7.595V256c0-4.693-3.84-8.533-8.533-8.533H460.8v-153.6
	c0-4.693-3.84-8.533-8.533-8.533H307.2c-3.499,0-6.656,2.133-7.936,5.376l-71.168,181.163l-40.363-13.483V102.4
	c0-4.693-3.84-8.533-8.533-8.533h-34.133c-4.693,0-8.533,3.84-8.533,8.533V256h-25.6c-4.693,0-8.533,3.84-8.533,8.533v110.933H8.533
	C3.84,375.467,0,379.307,0,384s3.84,8.533,8.533,8.533h165.12c7.083,19.883,25.941,34.133,48.213,34.133
	c18.944,0,35.413-10.325,44.288-25.6h144.64c3.84,14.677,17.067,25.6,32.939,25.6s29.099-10.923,32.939-25.6h26.795
	c4.693,0,8.533-3.84,8.533-8.533V332.8c0-4.693-3.84-8.533-8.533-8.533h-8.533v-20.309L507.307,297.728z M136.533,375.467h-17.067
	v-102.4h17.067V375.467z M170.667,375.467H153.6V110.933h17.067V375.467z M313.003,102.4h130.731v170.667h-17.067v-76.8
	c0-4.693-3.84-8.533-8.533-8.533H384c-4.693,0-8.533,3.84-8.533,8.533v42.667h-34.133c-4.693,0-8.533,3.84-8.533,8.533v32.085
	L318.976,307.2h-33.621l21.333-56.747c1.621-4.352-0.512-9.216-4.864-10.923l-2.048-0.853l11.264-22.443l9.387,4.693
	c4.267,2.133,9.387,0.427,11.435-3.755c2.133-4.267,0.427-9.387-3.755-11.435l-17.067-8.533c-4.267-2.133-9.387-0.427-11.435,3.755
	l-15.701,31.403l-18.944-7.595L313.003,102.4z M443.733,290.133V307.2H338.091l8.533-17.067H443.733z M349.867,273.067V256H384
	c4.693,0,8.533-3.84,8.533-8.533V204.8H409.6v68.267H349.867z M258.731,240.64l29.013,11.691l-19.627,52.224l-29.867-11.947
	L258.731,240.64z M187.733,276.395l34.133,11.349l-15.275,38.827c-7.083,2.219-13.483,5.973-18.859,10.837V276.395z M221.867,409.6
	c-18.859,0-34.133-15.275-34.133-34.133c0-18.859,15.275-34.133,34.133-34.133S256,356.608,256,375.467
	C256,394.325,240.725,409.6,221.867,409.6z M443.733,409.6c-9.387,0-17.067-7.68-17.067-17.067s7.68-17.067,17.067-17.067
	s17.067,7.68,17.067,17.067S453.12,409.6,443.733,409.6z M486.4,341.333h8.533V384h-18.261c-3.84-14.677-17.067-25.6-32.939-25.6
	s-29.099,10.923-32.939,25.6H272.299c0.427-2.816,0.768-5.632,0.768-8.533c0-26.88-20.907-48.981-47.275-51.029l6.229-15.957
	l37.888,15.189h0.085l0.085,0.085c0.939,0.341,1.963,0.512,2.987,0.512h179.2c4.693,0,8.533-3.84,8.533-8.533v-51.2h34.133v20.309
	l-12.373,6.229c-2.901,1.451-4.693,4.352-4.693,7.595V332.8C477.867,337.493,481.707,341.333,486.4,341.333z"/>
<g>
	<rect x="119.467" y="273.067" style="fill:#BDBDBD;" width="17.067" height="102.4"/>
	<rect x="153.6" y="110.933" style="fill:#BDBDBD;" width="17.067" height="264.533"/>
</g>
<path style="fill:#FFFFFF;" d="M221.867,287.744l-15.275,38.827c-7.083,2.219-13.483,5.973-18.859,10.837v-61.013L221.867,287.744z"
	/>
<polygon style="fill:#FFC107;" points="287.744,252.331 268.117,304.555 238.251,292.608 258.731,240.64 "/>
<path style="fill:#FFFFFF;" d="M443.733,102.4v170.667h-17.067v-76.8c0-4.693-3.84-8.533-8.533-8.533H384
	c-4.693,0-8.533,3.84-8.533,8.533v42.667h-34.133c-4.693,0-8.533,3.84-8.533,8.533v32.085L318.976,307.2h-33.621l21.333-56.747
	c1.621-4.352-0.512-9.216-4.864-10.923l-2.048-0.853l11.264-22.443l9.387,4.693c4.267,2.133,9.387,0.427,11.435-3.755
	c2.133-4.267,0.427-9.387-3.755-11.435l-17.067-8.533c-4.267-2.133-9.387-0.427-11.435,3.755l-15.701,31.403l-18.944-7.595
	L313.003,102.4H443.733z"/>
<path style="fill:#BDBDBD;" d="M409.6,204.8v68.267h-59.733V256H384c4.693,0,8.533-3.84,8.533-8.533V204.8H409.6z"/>
<polygon style="fill:#FFC107;" points="443.733,290.133 443.733,307.2 338.091,307.2 346.624,290.133 "/>
<g>
	<path style="fill:#F4F4F4;" d="M241.331,347.469c3.849,5.53,6.135,12.22,6.135,19.465c0,18.859-15.275,34.133-34.133,34.133
		c-7.245,0-13.935-2.287-19.465-6.135c6.17,8.849,16.384,14.669,27.998,14.669c18.859,0,34.133-15.275,34.133-34.133
		C256,363.853,250.18,353.638,241.331,347.469z"/>
	<path style="fill:#F4F4F4;" d="M450.722,377.011c0.973,2.142,1.545,4.497,1.545,6.989c0,9.387-7.68,17.067-17.067,17.067
		c-2.492,0-4.847-0.572-6.989-1.545c2.688,5.922,8.627,10.078,15.522,10.078c9.387,0,17.067-7.68,17.067-17.067
		C460.8,385.638,456.644,379.699,450.722,377.011z"/>
</g>
<g>
	<path style="fill:#F9A825;" d="M272.307,366.933c0.469,2.782,0.759,5.623,0.759,8.533c0,2.901-0.341,5.717-0.768,8.533h138.496
		c1.758-6.733,5.564-12.604,10.624-17.067H272.307z"/>
	<path style="fill:#F9A825;" d="M482.475,340.25v26.684h-16.427c5.06,4.463,8.866,10.334,10.624,17.067h18.261v-42.667H486.4
		C484.958,341.333,483.669,340.881,482.475,340.25z"/>
	<polygon style="fill:#F9A825;" points="482.475,264.533 482.475,267.776 482.475,291.132 482.56,291.072 494.933,284.843 
		494.933,264.533 	"/>
</g>
</svg>