<svg xmlns="http://www.w3.org/2000/svg" id="Harness" viewBox="0 0 100 100"><polyline points="36.8 72.13 36.48 72.13 20.26 72.13 20.26 77.84 20.26 83.56 36.83 83.56" style="fill:none;stroke:#222;stroke-miterlimit:10;stroke-width:2.29999995231628px"></polyline><line x1="53.45" y1="83.56" x2="46.55" y2="83.56" style="fill:none;stroke:#222;stroke-miterlimit:10;stroke-width:2.29999995231628px"></line><polyline points="53.41 72.13 53.4 72.13 46.6 72.13 46.59 72.13" style="fill:none;stroke:#222;stroke-miterlimit:10;stroke-width:2.29999995231628px"></polyline><polyline points="63.17 83.56 79.74 83.56 79.74 77.84 79.74 72.13 63.52 72.13 63.21 72.13" style="fill:none;stroke:#222;stroke-miterlimit:10;stroke-width:2.29999995231628px"></polyline><path d="M67.87,22.25a63.25,63.25,0,0,0,1-7.67l5.56.58.34,0A4.75,4.75,0,0,1,79,20.41c-.11,1-.25,2.13-.41,3.28" style="fill:none;stroke:#222;stroke-linejoin:round;stroke-width:2.29999995231628px"></path><path d="M63.52,72.13C69,63,73.9,47.2,76.75,34" style="fill:none;stroke:#222;stroke-miterlimit:10;stroke-width:2.29999995231628px"></path><path d="M65.83,31.52c-1.51,6.1-3.4,12.66-5.24,18.68-1.08,3.54-2.15,6.9-3.12,9.88-2.32,7.12-4.07,12-4.07,12" style="fill:none;stroke:#222;stroke-miterlimit:10;stroke-width:2.29999995231628px"></path><path d="M32.13,22.26a64.75,64.75,0,0,1-1-7.63v-.05H31l-5.48.56A5.12,5.12,0,0,0,21,20.78c.11.92.23,1.89.37,2.91" style="fill:none;stroke:#222;stroke-linejoin:round;stroke-width:2.29999995231628px"></path><path d="M23.26,34C26.1,47.2,31,63,36.48,72.13" style="fill:none;stroke:#222;stroke-miterlimit:10;stroke-width:2.29999995231628px"></path><path d="M46.6,72.13s-1.77-5-4.11-12.18c-1-3-2-6.33-3.12-9.86h0c-1.83-6-3.7-12.49-5.2-18.56h0" style="fill:none;stroke:#222;stroke-miterlimit:10;stroke-width:2.29999995231628px"></path><path d="M68.89,14.58S59.25,19.85,50,31.83c-1.46,1.88-2.9,3.92-4.3,6.13a79.42,79.42,0,0,0-6.29,12.12h0" style="fill:none;stroke:#222;stroke-miterlimit:10;stroke-width:2.29999995231628px"></path><path d="M42.49,60A73.66,73.66,0,0,1,50,44.18c1.37-2.2,2.82-4.27,4.3-6.21h0A89.11,89.11,0,0,1,65.28,26" style="fill:none;stroke:#222;stroke-miterlimit:10;stroke-width:2.29999995231628px"></path><path d="M60.59,50.2A78.57,78.57,0,0,0,54.26,38h0" style="fill:none;stroke:#222;stroke-miterlimit:10;stroke-width:2.29999995231628px"></path><path d="M50,31.83c-8.78-11.32-17.87-16.64-18.85-17.2l-.07,0h0" style="fill:none;stroke:#222;stroke-miterlimit:10;stroke-width:2.29999995231628px"></path><path d="M34.73,26.11A89,89,0,0,1,45.66,38" style="fill:none;stroke:#222;stroke-miterlimit:10;stroke-width:2.29999995231628px"></path><path d="M50,44.18a73.9,73.9,0,0,1,7.51,15.9" style="fill:none;stroke:#222;stroke-miterlimit:10;stroke-width:2.29999995231628px"></path><path d="M57.13,85.42a4.58,4.58,0,0,1-4.57-4.57V74.76a4.5,4.5,0,0,1,4.49-4.49h2.52a4.5,4.5,0,0,1,4.49,4.49v6.09a4.58,4.58,0,0,1-4.57,4.57Z" style="fill:none;stroke:#e71434;stroke-miterlimit:10;stroke-width:2.29999995231628px"></path><path d="M80,30.27a4.57,4.57,0,0,1-5.19,3.86l-6-.88A4.48,4.48,0,0,1,65,28.16l.36-2.49a4.49,4.49,0,0,1,5.09-3.79l6,.88a4.58,4.58,0,0,1,3.87,5.18Z" style="fill:none;stroke:#e71434;stroke-miterlimit:10;stroke-width:2.29999995231628px"></path><path d="M20,30.27a4.57,4.57,0,0,0,5.19,3.86l6-.88A4.48,4.48,0,0,0,35,28.16l-.36-2.49a4.49,4.49,0,0,0-5.09-3.79l-6,.88a4.58,4.58,0,0,0-3.87,5.18Z" style="fill:none;stroke:#e71434;stroke-miterlimit:10;stroke-width:2.29999995231628px"></path><path d="M40.51,85.42a4.58,4.58,0,0,1-4.57-4.57V74.76a4.5,4.5,0,0,1,4.49-4.49H43a4.5,4.5,0,0,1,4.49,4.49v6.09a4.58,4.58,0,0,1-4.57,4.57Z" style="fill:none;stroke:#e71434;stroke-miterlimit:10;stroke-width:2.29999995231628px"></path></svg>