<?xml version="1.0" encoding="iso-8859-1"?>
<!-- Uploaded to: SVG Repo, www.svgrepo.com, Generator: SVG Repo Mixer Tools -->
<svg version="1.1" id="Layer_1" xmlns="http://www.w3.org/2000/svg" xmlns:xlink="http://www.w3.org/1999/xlink" 
	 viewBox="0 0 512 512" xml:space="preserve">
<rect x="30.118" y="10.756" style="fill:#EB4E49;" width="451.765" height="490.487"/>
<rect x="73.143" y="53.782" style="fill:#747D8C;" width="365.714" height="404.437"/>
<g>
	<rect x="395.832" y="231.798" style="fill:#EFEFEF;" width="43.025" height="48.403"/>
	<rect x="73.143" y="142.586" style="fill:#EFEFEF;" width="43.025" height="48.403"/>
	<rect x="73.143" y="321.011" style="fill:#EFEFEF;" width="43.025" height="48.403"/>
</g>
<polygon style="fill:#FAC51C;" points="283.249,327.887 401.03,370.371 283.249,412.856 "/>
<rect x="243.63" y="327.895" style="fill:#FBA026;" width="39.615" height="84.964"/>
<path style="fill:#EFEFEF;" d="M347.429,183.209v5.378c0,19.308-7.831,36.787-20.48,49.436c-12.649,12.66-30.128,20.48-49.436,20.48
	c-38.615,0-69.916-31.301-69.916-69.916v88.772c0,40.573,10.057,51.576,36.034,64.764v49.479c-43.66,0-79.059-35.399-79.059-79.059
	V183.209c0-25.245,10.24-48.102,26.783-64.645C207.898,102.01,230.755,91.78,256,91.78
	C306.49,91.78,347.429,132.719,347.429,183.209z"/>
<g>
	<path style="fill:#231F20;" d="M481.882,0H30.118c-5.94,0-10.756,4.816-10.756,10.756v490.487c0,5.941,4.817,10.756,10.756,10.756
		h451.765c5.94,0,10.756-4.816,10.756-10.756V10.756C492.639,4.816,487.822,0,481.882,0z M471.126,490.487H40.874V21.513h430.252
		V490.487z"/>
	<path style="fill:#231F20;" d="M73.143,468.975h365.714c5.94,0,10.756-4.816,10.756-10.756V53.782
		c0-5.941-4.817-10.756-10.756-10.756H73.143c-5.94,0-10.756,4.816-10.756,10.756v404.437
		C62.387,464.159,67.203,468.975,73.143,468.975z M83.899,331.764h21.513v26.891H83.899V331.764z M428.101,269.445h-21.513v-26.891
		h21.513V269.445z M428.101,64.538v156.504h-32.269c-5.94,0-10.756,4.816-10.756,10.756v48.403c0,5.941,4.817,10.756,10.756,10.756
		h32.269v156.504H83.899v-67.295h32.269c5.94,0,10.756-4.816,10.756-10.756v-48.403c0-5.941-4.817-10.756-10.756-10.756H83.899
		V201.748h32.269c5.94,0,10.756-4.816,10.756-10.756v-48.403c0-5.941-4.817-10.756-10.756-10.756H83.899V64.538H428.101z
		 M83.899,153.345h21.513v26.891H83.899V153.345z"/>
	<path style="fill:#231F20;" d="M232.874,401.691v11.165c0,5.941,4.817,10.756,10.756,10.756h39.615l0,0c0.001,0,0.003,0,0.004,0
		c1.228,0,2.462-0.21,3.65-0.638l117.782-42.485c4.264-1.538,7.106-5.585,7.106-10.118s-2.843-8.58-7.106-10.118L286.9,317.767
		c-1.188-0.428-2.424-0.63-3.653-0.63v-0.003h-0.06c-0.048,0-0.097-0.001-0.145,0H243.63c-4.478,0-8.314,2.737-9.932,6.629
		c-11.112-8.461-15.345-19.494-15.345-46.405v-33.979c14.745,15.907,35.811,25.881,59.16,25.881
		c21.559,0,41.818-8.393,57.042-23.631c15.238-15.238,23.631-35.496,23.631-57.042v-5.378c0-56.345-45.84-102.185-102.185-102.185
		c-27.302,0-52.961,10.632-72.251,29.934c-19.302,19.301-29.934,44.961-29.934,72.251v129.334
		C153.815,358.425,188.405,396.356,232.874,401.691z M294.005,343.2l75.324,27.17l-75.324,27.17V343.2z M254.387,338.647h18.103
		v63.451h-18.103V338.647z M175.328,183.209c0-21.544,8.393-41.8,23.636-57.042c15.228-15.238,35.484-23.631,57.036-23.631
		c44.483,0,80.672,36.19,80.672,80.672v5.378c0,15.799-6.155,30.655-17.333,41.833c-11.163,11.173-26.017,17.326-41.827,17.326
		c-32.621,0-59.16-26.539-59.16-59.16v-5.378c0-10.047,3.917-19.503,11.026-26.621c7.11-7.111,16.565-11.026,26.621-11.026
		c20.759,0,37.647,16.888,37.647,37.647v5.378c0,4.306-1.681,8.362-4.724,11.411c-3.045,3.046-7.098,4.723-11.41,4.723
		c-8.897,0-16.134-7.238-16.134-16.134c0-5.941-4.817-10.756-10.756-10.756s-10.756,4.816-10.756,10.756
		c0,20.759,16.888,37.647,37.647,37.647c10.06,0,19.515-3.915,26.632-11.032c7.103-7.12,11.016-16.571,11.016-26.615v-5.378
		c0-32.621-26.539-59.16-59.16-59.16c-15.801,0-30.659,6.154-41.838,17.333c-11.169,11.183-17.322,26.038-17.322,41.827v5.378
		v88.772c0,42.212,11.176,57.48,36.034,71.242V380c-32.569-5.175-57.546-33.454-57.546-67.456V183.209z"/>
	<path style="fill:#231F20;" d="M395.832,197.819c5.94,0,10.756-4.816,10.756-10.756v-1.434c0-5.941-4.817-10.756-10.756-10.756
		c-5.94,0-10.756,4.816-10.756,10.756v1.434C385.076,193.004,389.892,197.819,395.832,197.819z"/>
	<path style="fill:#231F20;" d="M395.832,153.345c5.94,0,10.756-4.816,10.756-10.756V101.73c0-5.941-4.817-10.756-10.756-10.756
		c-5.94,0-10.756,4.816-10.756,10.756v40.86C385.076,148.529,389.892,153.345,395.832,153.345z"/>
</g>
</svg>