<?xml version="1.0" encoding="iso-8859-1"?>
<!-- Uploaded to: SVG Repo, www.svgrepo.com, Generator: SVG Repo Mixer Tools -->
<!DOCTYPE svg PUBLIC "-//W3C//DTD SVG 1.1//EN" "http://www.w3.org/Graphics/SVG/1.1/DTD/svg11.dtd">
<svg fill="#000000" height="800px" width="800px" version="1.1" id="Capa_1" xmlns="http://www.w3.org/2000/svg" xmlns:xlink="http://www.w3.org/1999/xlink" 
	 viewBox="0 0 453.722 453.722" xml:space="preserve">
<g id="XMLID_138_">
	<path id="XMLID_169_" d="M181.951,378.873H60.711l67.79-157.27l-16.771-36.882L5.361,431.491
		c-3.279,7.607,0.23,16.433,7.837,19.712c1.935,0.834,3.949,1.229,5.93,1.229c5.808,0,11.337-3.394,13.782-9.066l14.868-34.493
		H169.01l-9.755,22.614c-3.281,7.607,0.226,16.434,7.833,19.715c1.936,0.835,3.951,1.23,5.934,1.23
		c5.806,0,11.335-3.392,13.781-9.063l20.709-48.01l-16.767-36.873L181.951,378.873z"/>
	<path id="XMLID_845_" d="M448.021,429.045L278.204,55.419c-15.286-33.632-49.033-55.376-85.976-55.396L149.918,0
		c-0.011,0-0.021,0-0.032,0C108.116,0,80.334,43.201,97.61,81.198L262.354,443.49c2.925,6.431,9.264,10.232,15.898,10.232
		c2.415,0,4.871-0.504,7.213-1.57c8.774-3.99,12.652-14.337,8.662-23.111l-9.171-20.168c18.987,0,103.806,0,115.558,0l15.732,34.613
		c2.924,6.434,9.266,10.235,15.9,10.235c2.414,0,4.868-0.504,7.209-1.568C448.129,448.165,452.009,437.819,448.021,429.045z
		 M209.002,241.842c18.995,0,103.878,0,115.593,0l24.323,53.516c-18.686,0-102.414,0-115.582,0L209.002,241.842z M310.96,211.842
		c-18.694,0-102.438,0-115.6,0l-24.335-53.516c18.703,0,102.456,0,115.611,0L310.96,211.842z M149.887,34.904
		c0.004,0,0.008,0,0.012,0l42.31,0.023c23.298,0.012,44.58,13.725,54.219,34.934l26.573,58.465c-18.999,0-103.898,0-115.617,0
		l-28-61.576C122.603,51.838,133.515,34.904,149.887,34.904z M271.314,378.873l-24.335-53.516c18.995,0,103.864,0,115.575,0
		l24.323,53.516C368.189,378.873,284.491,378.873,271.314,378.873z"/>
</g>
</svg>