<?xml version="1.0" encoding="utf-8"?>

<!DOCTYPE svg PUBLIC "-//W3C//DTD SVG 1.0//EN" "http://www.w3.org/TR/2001/REC-SVG-20010904/DTD/svg10.dtd">
<!-- Uploaded to: SVG Repo, www.svgrepo.com, Generator: SVG Repo Mixer Tools -->
<svg version="1.0" id="Layer_1" xmlns="http://www.w3.org/2000/svg" xmlns:xlink="http://www.w3.org/1999/xlink" 
	 width="800px" height="800px" viewBox="0 0 64 64" enable-background="new 0 0 64 64" xml:space="preserve">
<g>
	<path fill="#394240" d="M54.655,9.34C42.143-3.172,21.85-3.172,9.337,9.344C-3.175,21.854-3.171,42.146,9.341,54.654
		c12.508,12.517,32.801,12.517,45.314,0.004S67.168,21.854,54.655,9.34z M45.905,12.427l-5.812,5.812
		c-4.995-2.941-11.198-2.941-16.193,0.004l-5.812-5.812C26.396,6.513,37.598,6.513,45.905,12.427z M37.66,37.663
		c-3.129,3.129-8.198,3.129-11.327,0c-3.13-3.129-3.13-8.198,0-11.327c3.129-3.13,8.198-3.13,11.327,0
		C40.789,29.465,40.789,34.534,37.66,37.663z M12.423,18.099l5.813,5.808c-2.942,4.995-2.942,11.199,0,16.189l-5.809,5.809
		C6.513,37.604,6.509,26.406,12.423,18.099z M18.091,51.572l5.809-5.812c4.995,2.941,11.194,2.941,16.189,0l5.812,5.812
		C37.59,57.486,26.392,57.486,18.091,51.572z M51.565,45.908l-5.812-5.812c2.945-4.99,2.945-11.198,0.004-16.193l5.812-5.812
		C57.483,26.398,57.483,37.601,51.565,45.908z"/>
	<g>
		<path fill="#F76D57" d="M45.753,40.096l5.812,5.812c5.918-8.308,5.918-19.51,0.004-27.817l-5.812,5.812
			C48.698,28.897,48.698,35.105,45.753,40.096z"/>
		<path fill="#F76D57" d="M18.087,12.431l5.812,5.812c4.995-2.945,11.198-2.945,16.193-0.004l5.812-5.812
			C37.598,6.513,26.396,6.513,18.087,12.431z"/>
		<path fill="#F76D57" d="M18.236,23.906l-5.813-5.808c-5.914,8.308-5.91,19.506,0.004,27.806l5.809-5.809
			C15.294,35.105,15.294,28.901,18.236,23.906z"/>
		<path fill="#F76D57" d="M23.899,45.76l-5.809,5.812c8.301,5.914,19.499,5.914,27.811,0l-5.812-5.812
			C35.094,48.701,28.895,48.701,23.899,45.76z"/>
	</g>
</g>
</svg>