<?xml version="1.0" encoding="utf-8"?>
<!-- Generator: Adobe Illustrator 24.3.0, SVG Export Plug-In . SVG Version: 6.00 Build 0)  -->
<svg version="1.0" id="katman_1" xmlns="http://www.w3.org/2000/svg" xmlns:xlink="http://www.w3.org/1999/xlink" x="0px" y="0px"
	 viewBox="0 0 333.85 333.59" style="enable-background:new 0 0 333.85 333.59;" xml:space="preserve">
<style type="text/css">
	.st0{clip-path:url(#SVGID_2_);fill:#005C8C;}
	.st1{clip-path:url(#SVGID_2_);fill:#FFFFFF;}
</style>
<g>
	<defs>
		<rect id="SVGID_1_" x="0" width="333.85" height="333.59"/>
	</defs>
	<clipPath id="SVGID_2_">
		<use xlink:href="#SVGID_1_"  style="overflow:visible;"/>
	</clipPath>
	<path class="st0" d="M188.26,1.42C271.73,12.29,333.85,83,333.85,166.88c0,92.04-74.68,166.71-166.92,166.71
		C74.68,333.59,0,258.91,0,166.88C0.22,68.14,84.93-8.63,183.03,0.79l-0.22,59.41l-8.99,19.87l5.44,0.21l3.77-8.57l0.21,9.62
		l-3.55-0.63c-0.22,2.3-0.22,4.82-0.22,7.32c0,19.46,3.14,38.91,9.21,57.32l9.2-2.72l-6.06-29.49l15.26,16.94l15.69,41.42
		l14.02-3.77l-15.48-47.48l-27.2-37.45l-5.65-0.83L188.26,1.42z"/>
	<path class="st1" d="M142.66,84.67l-9.62,3.77l-19.46,22.18l-37.02,7.32l2.51,13.81l38.91-5.24l20.09-13.8l10.25,35.77h5.65
		c-3.77-10.04-6.7-20.71-8.79-31.58c-1.46-10.26-2.3-21.14-2.51-31.8V84.67z"/>
	<path class="st1" d="M148.73,100.15c0.42,7.74,1.46,15.48,3.34,23.22l8.37-10.66L148.73,100.15z"/>
	<polygon class="st1" points="151.03,156.84 152.91,161.01 161.28,167.92 156.88,156.63 	"/>
	<polygon class="st1" points="151.65,166.04 108.77,206.2 130.73,273.35 151.65,268.53 136.81,213.52 170.48,191.98 163.79,175.66 	
		"/>
	<path class="st1" d="M173.62,97.22l-6.69,14.64l9.2,6.69C174.67,111.44,173.82,104.33,173.62,97.22"/>
	<path class="st1" d="M168.18,78.18c5.44-3.55,8.57-9.42,8.57-15.68c0-10.46-8.78-18.83-19.45-18.83
		c-10.67,0-19.24,8.37-19.24,18.83c0,8.15,5.44,15.48,13.39,17.99l-3.56,3.76v7.33l14.86,14.64l11.08-22.38v-5.44L168.18,78.18z"/>
	<polygon class="st1" points="164.41,119.18 154.37,131.74 159.39,147.84 182.4,143.03 177.17,126.71 	"/>
	<polygon class="st1" points="162.53,156.21 173.2,185.91 183.45,151.81 	"/>
	<polygon class="st1" points="187.42,158.09 179.06,185.7 191.4,172.1 	"/>
	<polygon class="st1" points="200.39,148.05 191.4,150.56 197.46,170.23 207.08,177.34 	"/>
	<polygon class="st1" points="208.13,184.24 196.21,175.87 176.55,194.91 190.77,238.83 199.14,302.63 220.06,302.63 214.41,238.83 
			"/>
</g>
</svg>
