<?xml version="1.0" encoding="iso-8859-1"?>
<!-- Uploaded to: SVG Repo, www.svgrepo.com, Generator: SVG Repo Mixer Tools -->
<svg version="1.1" id="Layer_1" xmlns="http://www.w3.org/2000/svg" xmlns:xlink="http://www.w3.org/1999/xlink" 
	 viewBox="0 0 512 512" xml:space="preserve">
<path style="fill:#AEACB3;" d="M256,512c-42.623,0-77.299-34.676-77.299-77.299c0-35.481,24.027-65.454,56.667-74.503V20.632
	C235.368,9.237,244.605,0,256,0c11.395,0,20.632,9.237,20.632,20.632v357.403c0,11.395-9.236,20.632-20.632,20.632
	c-19.869,0-36.035,16.165-36.035,36.035S236.13,470.738,256,470.738c19.87,0,36.035-16.165,36.035-36.035
	c0-11.394,9.237-20.632,20.632-20.632s20.632,9.237,20.632,20.632C333.299,477.324,298.623,512,256,512z"/>
<rect x="235.371" y="311.841" style="fill:#555558;" width="41.264" height="40.193"/>
<path style="fill:#CECED1;" d="M410.839,179.629L342.354,61.009c-3.686-6.384-10.497-10.316-17.867-10.316H187.515
	c-7.371,0-14.182,3.932-17.867,10.316l-68.486,118.621c-3.686,6.384-3.686,14.248,0,20.632l68.485,118.62
	c3.686,6.384,10.497,10.316,17.867,10.316h136.971c7.371,0,14.182-3.932,17.867-10.316l68.485-118.62
	C414.525,193.879,414.525,186.013,410.839,179.629z"/>
<path style="fill:#FFDC35;" d="M101.161,179.629c-3.686,6.384-3.686,14.248,0,20.632l32.795,56.802h244.088l32.795-56.802
	c3.686-6.384,3.686-14.248,0-20.632l-39.643-68.666H140.807L101.161,179.629z"/>
<polygon style="fill:#FF9900;" points="383.109,131.6 371.195,110.963 140.807,110.963 128.891,131.6 "/>
<g>
	<polygon style="fill:#272728;" points="106.447,209.417 128.891,248.291 231.699,110.963 180.154,110.963 	"/>
	<polygon style="fill:#272728;" points="181.183,257.063 232.727,257.063 342.103,110.963 290.558,110.963 	"/>
	<polygon style="fill:#272728;" points="343.131,257.063 406.599,172.285 384.155,133.412 291.586,257.063 	"/>
</g>
<g>
	<circle style="fill:#AEACB3;" cx="189.3" cy="91.17" r="12.729"/>
	<circle style="fill:#AEACB3;" cx="320.574" cy="91.17" r="12.729"/>
	<circle style="fill:#AEACB3;" cx="189.3" cy="303.957" r="12.729"/>
	<circle style="fill:#AEACB3;" cx="320.574" cy="303.957" r="12.729"/>
</g>
<g>
	<circle style="fill:#FFFFFF;" cx="189.3" cy="83.364" r="12.729"/>
	<circle style="fill:#FFFFFF;" cx="320.574" cy="83.364" r="12.729"/>
	<circle style="fill:#FFFFFF;" cx="189.3" cy="296.15" r="12.729"/>
	<circle style="fill:#FFFFFF;" cx="320.574" cy="296.15" r="12.729"/>
</g>
</svg>