<?xml version="1.0" encoding="iso-8859-1"?>
<!-- Uploaded to: SVG Repo, www.svgrepo.com, Generator: SVG Repo Mixer Tools -->
<!DOCTYPE svg PUBLIC "-//W3C//DTD SVG 1.1//EN" "http://www.w3.org/Graphics/SVG/1.1/DTD/svg11.dtd">
<svg fill="#000000" height="800px" width="800px" version="1.1" id="Capa_1" xmlns="http://www.w3.org/2000/svg" xmlns:xlink="http://www.w3.org/1999/xlink" 
	 viewBox="0 0 511 511" xml:space="preserve">
<g>
	<path d="M156.621,360.236c-4.011,1.033-6.426,5.123-5.392,9.134c0.512,1.988,0.771,4.05,0.771,6.13c0,13.509-10.991,24.5-24.5,24.5
		S103,389.009,103,375.5s10.991-24.5,24.5-24.5c2.079,0,4.142,0.26,6.131,0.771c4.013,1.033,8.1-1.382,9.133-5.394
		c1.033-4.011-1.382-8.101-5.394-9.133c-3.209-0.826-6.53-1.245-9.87-1.245c-21.78,0-39.5,17.72-39.5,39.5s17.72,39.5,39.5,39.5
		s39.5-17.72,39.5-39.5c0-3.341-0.419-6.663-1.246-9.873C164.721,361.617,160.629,359.203,156.621,360.236z"/>
	<path d="M332.621,360.236c-4.011,1.033-6.426,5.123-5.392,9.134c0.512,1.988,0.771,4.05,0.771,6.13c0,13.509-10.991,24.5-24.5,24.5
		S279,389.009,279,375.5s10.991-24.5,24.5-24.5c2.079,0,4.142,0.26,6.131,0.771c4.012,1.033,8.1-1.382,9.133-5.394
		c1.033-4.011-1.382-8.101-5.394-9.133c-3.209-0.826-6.53-1.245-9.87-1.245c-21.78,0-39.5,17.72-39.5,39.5s17.72,39.5,39.5,39.5
		s39.5-17.72,39.5-39.5c0-3.341-0.419-6.663-1.246-9.873C340.721,361.617,336.629,359.203,332.621,360.236z"/>
	<path d="M509.425,420.086c0.078-0.1,0.155-0.2,0.227-0.303c0.066-0.094,0.127-0.192,0.189-0.29
		c0.068-0.108,0.136-0.217,0.199-0.328c0.058-0.103,0.11-0.209,0.163-0.316c0.055-0.109,0.11-0.218,0.159-0.33
		c0.051-0.115,0.095-0.233,0.14-0.351c0.041-0.108,0.083-0.215,0.118-0.324c0.041-0.123,0.075-0.249,0.109-0.375
		c0.03-0.109,0.06-0.219,0.084-0.329c0.028-0.124,0.05-0.25,0.071-0.376c0.02-0.118,0.04-0.236,0.054-0.355
		c0.014-0.118,0.024-0.238,0.033-0.358c0.01-0.132,0.017-0.264,0.02-0.396c0.001-0.052,0.008-0.103,0.008-0.156
		c0-0.062-0.008-0.123-0.009-0.184c-0.003-0.135-0.01-0.27-0.021-0.405c-0.009-0.116-0.02-0.231-0.035-0.346
		c-0.016-0.127-0.035-0.253-0.058-0.379c-0.021-0.118-0.043-0.236-0.07-0.352c-0.027-0.121-0.059-0.24-0.092-0.359
		c-0.033-0.117-0.067-0.233-0.105-0.347c-0.039-0.117-0.082-0.232-0.127-0.347c-0.044-0.112-0.089-0.224-0.138-0.333
		c-0.05-0.113-0.105-0.224-0.161-0.334c-0.055-0.108-0.111-0.215-0.171-0.321c-0.06-0.105-0.124-0.209-0.19-0.312
		c-0.068-0.107-0.138-0.211-0.211-0.314c-0.067-0.095-0.137-0.188-0.21-0.28c-0.083-0.106-0.169-0.209-0.257-0.311
		c-0.041-0.047-0.076-0.097-0.118-0.143l-88-96c-2.799-3.054-7.544-3.259-10.597-0.461c-3.053,2.799-3.26,7.543-0.461,10.597
		l6.869,7.493c-0.015,0.029-0.033,0.056-0.048,0.085l-7.813,15.626l-27.048-83.286c-2.295-7.332-8.037-13.088-15.356-15.396
		l-56.584-17.869c-0.008-0.216-0.021-0.433-0.048-0.652L295.996,119H311.5c4.142,0,7.5-3.358,7.5-7.5s-3.358-7.5-7.5-7.5H199V87.5
		c0-12.958-10.542-23.5-23.5-23.5S152,74.542,152,87.5v16.899c-13.796,2.191-24.738,13.33-26.326,27.622l-4.4,39.605L62.575,153.09
		c-1.064-0.336-2.146-0.416-3.185-0.286C53.493,147.126,45.768,144,37.559,144H7.5c-4.142,0-7.5,3.358-7.5,7.5v39.998
		c0,0.001,0,0.003,0,0.005v146.897c0,15.822,9.397,30.073,23.94,36.306l33.356,14.295C63.628,421.991,92.691,447,127.5,447
		c34.102,0,62.686-24.005,69.788-56h36.423c7.102,31.995,35.686,56,69.788,56c34.733,0,63.748-24.899,70.166-57.782l7.65,23.045
		c0.316,0.952,0.82,1.782,1.435,2.499c0.159,0.299,0.329,0.595,0.509,0.887c2.845,4.603,7.774,7.351,13.185,7.351H503.5h0.001h0.001
		c0.241,0,0.482-0.013,0.722-0.037c0.09-0.009,0.177-0.024,0.266-0.036c0.148-0.02,0.296-0.039,0.443-0.068
		c0.104-0.02,0.205-0.046,0.307-0.071c0.129-0.031,0.259-0.062,0.387-0.1c0.104-0.031,0.206-0.066,0.308-0.101
		c0.123-0.042,0.245-0.085,0.367-0.134c0.1-0.04,0.198-0.084,0.296-0.129c0.118-0.054,0.236-0.109,0.352-0.169
		c0.097-0.05,0.192-0.104,0.286-0.158c0.11-0.063,0.219-0.129,0.327-0.199c0.096-0.062,0.189-0.126,0.281-0.192
		c0.1-0.071,0.198-0.145,0.296-0.221c0.094-0.074,0.186-0.151,0.277-0.23c0.05-0.043,0.103-0.081,0.151-0.126
		c0.039-0.036,0.072-0.075,0.11-0.111c0.096-0.092,0.189-0.187,0.28-0.284c0.082-0.087,0.163-0.174,0.24-0.263
		C509.276,420.278,509.351,420.183,509.425,420.086z M367.64,269.043l31.778,97.852l-10.432,20.864l-35.149-105.879
		c-0.758-2.284-2.565-4.064-4.86-4.789l-247.798-78.252c-1.547-4.339-4.051-8.317-7.405-11.671l-12.416-12.416l280.703,88.643
		C364.708,264.23,366.785,266.313,367.64,269.043z M169.349,238.377l0.292-2.189L207.045,248h-29.271
		c-2.486,0-4.758-1.03-6.396-2.901S169.021,240.841,169.349,238.377z M103,215.144l12.982,4.1l-2.355,21.196
		c-0.479,4.311-4.111,7.561-8.448,7.561H103V215.144z M175.947,188.892l5.135-38.516c0.561-4.205,4.183-7.376,8.426-7.376h94.371
		l10.408,83.263L175.947,188.892z M175.5,79c4.687,0,8.5,3.813,8.5,8.5V104h-17V87.5C167,82.813,170.813,79,175.5,79z
		 M140.582,133.678c0.93-8.368,7.98-14.678,16.399-14.678h123.898l1.125,9h-92.496c-11.729,0-21.744,8.768-23.294,20.394
		l-4.788,35.913l-25.572-8.075L140.582,133.678z M37.559,159c4.407,0,8.551,1.716,11.667,4.833l33.941,33.941
		c3.116,3.116,4.833,7.26,4.833,11.667V315.94c-18.401,12.244-30.832,32.773-31.915,56.222l-9.123-3.91
		C46.987,368.005,47,367.754,47,367.5V236.755c0-10.551-4.109-20.47-11.569-27.931L15,188.394V159H37.559z M15,338.399V209.606
		l9.824,9.824C29.452,224.058,32,230.21,32,236.755V361.84l-2.151-0.922C20.829,357.053,15,348.213,15,338.399z M127.5,432
		C96.346,432,71,406.654,71,375.5S96.346,319,127.5,319s56.5,25.346,56.5,56.5S158.654,432,127.5,432z M303.5,432
		c-31.154,0-56.5-25.346-56.5-56.5s25.346-56.5,56.5-56.5s56.5,25.346,56.5,56.5S334.654,432,303.5,432z M303.5,304
		c-39.425,0-71.5,32.075-71.5,71.5c0,0.168,0.011,0.333,0.013,0.5h-33.025c0.001-0.167,0.013-0.332,0.013-0.5
		c0-39.425-32.075-71.5-71.5-71.5c-8.603,0-16.854,1.528-24.5,4.326V295h152.5c4.142,0,7.5-3.358,7.5-7.5s-3.358-7.5-7.5-7.5H103
		v-17h2.179c11.991,0,22.032-8.987,23.356-20.905l2.027-18.248l24.557,7.755l-0.639,4.792c-0.896,6.715,1.15,13.489,5.613,18.586
		S171,263,177.775,263h76.771l53.833,17H287.5c-4.142,0-7.5,3.358-7.5,7.5s3.358,7.5,7.5,7.5h54.888l9.161,27.595
		C338.845,311.047,321.98,304,303.5,304z M396.019,407.763c-0.146-0.237-0.068-0.394-0.022-0.487l31.69-63.382L486.451,408h-90.006
		C396.34,408,396.166,408,396.019,407.763z"/>
</g>
</svg>