<?xml version="1.0" encoding="iso-8859-1"?>
<!-- Uploaded to: SVG Repo, www.svgrepo.com, Generator: SVG Repo Mixer Tools -->
<svg version="1.1" id="Layer_1" xmlns="http://www.w3.org/2000/svg" xmlns:xlink="http://www.w3.org/1999/xlink" 
	 viewBox="0 0 512 512" xml:space="preserve">
<g>
	<rect x="35.659" y="177.668" style="fill:#808080;" width="25.547" height="161.796"/>
	<rect x="210.229" y="262.824" style="fill:#808080;" width="25.547" height="76.64"/>
</g>
<path style="fill:#F7D04A;" d="M472.083,258.563H440.15v-71.318c0-26.455-21.445-47.9-47.9-47.9h-63.867
	c-8.818,0-15.967,7.149-15.967,15.967v158.603H7.983v59.609h304.432h191.601v-83.027
	C504.017,272.859,489.72,258.563,472.083,258.563z"/>
<polygon style="fill:#F3B41B;" points="7.983,347.544 7.983,373.523 312.416,373.523 504.017,373.523 504.017,347.544 "/>
<path style="fill:#808080;" d="M392.249,164.891h-54.287v93.672h76.64v-71.318C414.603,174.919,404.576,164.891,392.249,164.891z"/>
<polygon style="fill:#EB6836;" points="257.738,116.956 166.287,76.357 47.831,70.354 8.095,159.861 91.136,245.639 
	182.588,286.238 253.263,268.699 292.998,179.194 "/>
<polygon style="fill:#C74B38;" points="16.203,141.597 8.095,159.861 91.136,245.639 182.588,286.238 253.263,268.699 
	259.541,254.558 "/>
<rect x="81.835" y="131.27" transform="matrix(-0.4058 0.914 -0.914 -0.4058 410.9362 95.4326)" style="fill:#F2F2F2;" width="185.221" height="100.062"/>
<polygon style="fill:#E5E5E5;" points="116.628,188.215 91.136,245.639 182.588,286.238 207.397,230.352 "/>
<circle style="fill:#666666;" cx="425.247" cy="388.429" r="53.222"/>
<circle style="fill:#E5E5E5;" cx="425.247" cy="388.429" r="27.676"/>
<circle style="fill:#666666;" cx="223.002" cy="388.429" r="53.222"/>
<circle style="fill:#E5E5E5;" cx="223.002" cy="388.429" r="27.676"/>
<circle style="fill:#666666;" cx="91.01" cy="388.429" r="53.222"/>
<circle style="fill:#E5E5E5;" cx="91.01" cy="388.429" r="27.676"/>
<path d="M504.017,321.468c4.41,0,7.983-3.573,7.983-7.983v-22.99c0-22.011-17.906-39.917-39.917-39.917h-23.95v-63.335
	c0-30.814-25.07-55.884-55.884-55.884h-63.867c-13.206,0-23.95,10.745-23.95,23.95v150.62h-60.674v-26.646l11.428-2.836
	c2.391-0.594,4.374-2.258,5.373-4.509l39.735-89.506c1.027-2.312,0.897-4.973-0.35-7.174l-35.26-62.238
	c-0.843-1.488-2.143-2.666-3.706-3.36l-13.445-5.968c-4.028-1.789-8.747,0.027-10.535,4.058c-1.789,4.029,0.027,8.747,4.058,10.535
	l6.148,2.729l-68.673,154.689l-76.859-34.12l68.671-154.689l36.645,16.268c4.032,1.793,8.748-0.027,10.535-4.058
	c1.789-4.029-0.027-8.747-4.058-10.535l-43.94-19.507c-0.895-0.398-1.856-0.627-2.835-0.677L48.234,62.381
	c-3.304-0.179-6.361,1.714-7.7,4.734L0.799,156.621c-1.321,2.975-0.704,6.454,1.56,8.792l25.316,26.15V305.93H7.983
	c-4.41,0-7.983,3.573-7.983,7.983v59.609c0,4.41,3.573,7.983,7.983,7.983h22.224c-0.257,2.273-0.402,4.579-0.402,6.919
	c0,33.749,27.456,61.206,61.206,61.206s61.206-27.456,61.206-61.206c0-2.34-0.145-4.646-0.402-6.919h10.384
	c-0.257,2.273-0.402,4.579-0.402,6.919c0,33.749,27.456,61.206,61.206,61.206s61.206-27.456,61.206-61.206
	c0-2.34-0.145-4.646-0.402-6.919h80.637c-0.257,2.273-0.402,4.579-0.402,6.919c0,33.749,27.456,61.206,61.206,61.206
	s61.206-27.456,61.206-61.206c0-2.34-0.145-4.646-0.402-6.919h17.968c4.41,0,7.983-3.573,7.983-7.983v-25.979
	c0-4.41-3.573-7.983-7.983-7.983c-4.41,0-7.983,3.573-7.983,7.983v17.996h-14.036c-9.083-22.442-31.09-38.32-56.75-38.32
	s-47.667,15.878-56.75,38.32h-88.745c-9.083-22.442-31.09-38.32-56.75-38.32s-47.667,15.878-56.75,38.32H147.76
	c-9.083-22.442-31.09-38.32-56.75-38.32s-47.667,15.878-56.75,38.32H15.967v-43.642h296.449c4.41,0,7.983-3.573,7.983-7.983V155.31
	c0-4.403,3.581-7.983,7.983-7.983h63.867c22.011,0,39.917,17.906,39.917,39.917v71.318c0,4.41,3.573,7.983,7.983,7.983h31.933
	c13.206,0,23.95,10.745,23.95,23.95v22.99C496.033,317.895,499.607,321.468,504.017,321.468z M425.247,343.186
	c24.945,0,45.239,20.294,45.239,45.239c0,24.945-20.294,45.239-45.239,45.239s-45.239-20.294-45.239-45.239
	C380.008,363.48,400.302,343.186,425.247,343.186z M223.002,343.186c24.945,0,45.239,20.294,45.239,45.239
	c0,24.945-20.294,45.239-45.239,45.239s-45.239-20.294-45.239-45.239C177.763,363.48,198.057,343.186,223.002,343.186z
	 M91.01,343.186c24.945,0,45.239,20.294,45.239,45.239c0,24.945-20.294,45.239-45.239,45.239s-45.239-20.295-45.239-45.239
	C45.771,363.481,66.065,343.186,91.01,343.186z M227.792,305.931h-9.58v-20.306l9.58-2.377V305.931z M85.4,251.192
	c0.713,0.736,1.56,1.327,2.497,1.744l91.451,40.599c1.613,0.717,3.449,0.877,5.163,0.452l17.735-4.401v16.345H69.189v-71.484
	L85.4,251.192z M284.071,179.631l-36.519,82.262l-51.046,12.666l62.098-139.879L284.071,179.631z M52.902,78.605l101.373,5.136
	L88.642,231.585l-71.064-73.408L52.902,78.605z M43.642,208.058l9.58,9.896v87.977h-9.58V208.058z"/>
<path d="M422.586,258.563v-71.318c0-16.728-13.609-30.337-30.337-30.337h-54.287c-4.41,0-7.983,3.573-7.983,7.983v93.672
	c0,4.41,3.573,7.983,7.983,7.983h76.64C419.013,266.546,422.586,262.972,422.586,258.563z M406.62,250.579h-60.674v-77.705h46.304
	c7.924,0,14.37,6.446,14.37,14.37V250.579z"/>
<path d="M337.963,273.997c-4.41,0-7.983,3.573-7.983,7.983c0,4.41,3.573,7.983,7.983,7.983h25.547c4.41,0,7.983-3.573,7.983-7.983
	c0-4.41-3.573-7.983-7.983-7.983H337.963z"/>
<path d="M425.247,424.084c19.662,0,35.659-15.997,35.659-35.659c0-19.663-15.997-35.659-35.659-35.659s-35.659,15.997-35.659,35.659
	C389.588,408.088,405.585,424.084,425.247,424.084z M425.247,368.733c10.858,0,19.692,8.834,19.692,19.692
	c0,10.858-8.834,19.692-19.692,19.692s-19.692-8.834-19.692-19.692C405.555,377.567,414.389,368.733,425.247,368.733z"/>
<path d="M223.002,424.084c19.663,0,35.659-15.997,35.659-35.659c0-19.663-15.997-35.659-35.659-35.659s-35.659,15.997-35.659,35.659
	C187.343,408.088,203.34,424.084,223.002,424.084z M223.002,368.733c10.858,0,19.692,8.834,19.692,19.692
	c0,10.858-8.834,19.692-19.692,19.692c-10.858,0-19.692-8.834-19.692-19.692C203.31,377.567,212.144,368.733,223.002,368.733z"/>
<path d="M91.01,424.084c19.662,0,35.659-15.997,35.659-35.659c0-19.663-15.997-35.659-35.659-35.659s-35.659,15.997-35.659,35.659
	C55.351,408.088,71.348,424.084,91.01,424.084z M91.01,368.733c10.858,0,19.692,8.834,19.692,19.692
	c0,10.858-8.834,19.692-19.692,19.692s-19.692-8.834-19.692-19.692C71.318,377.567,80.152,368.733,91.01,368.733z"/>
</svg>