<?xml version="1.0" encoding="iso-8859-1"?>
<!-- Uploaded to: SVG Repo, www.svgrepo.com, Generator: SVG Repo Mixer Tools -->
<svg fill="#000000" height="800px" width="800px" version="1.1" id="Layer_1" xmlns="http://www.w3.org/2000/svg" xmlns:xlink="http://www.w3.org/1999/xlink" 
	 viewBox="0 0 512 512" xml:space="preserve">
<g>
	<g>
		<g>
			<path d="M89.825,404.211c-9.926,0-17.965,8.039-17.965,17.965c0,9.917,8.039,17.965,17.965,17.965
				c9.926,0,17.965-8.048,17.965-17.965C107.789,412.25,99.75,404.211,89.825,404.211z"/>
			<path d="M404.211,404.211c-9.926,0-17.965,8.039-17.965,17.965c0,9.917,8.039,17.965,17.965,17.965
				c9.926,0,17.965-8.048,17.965-17.965C422.175,412.25,414.136,404.211,404.211,404.211z"/>
			<path d="M504.166,257.395h0.009l-78.049-85.863c-5.695-6.261-13.815-9.845-22.268-9.845h-44.562v107.789h151.444
				C509.484,265.039,507.337,260.871,504.166,257.395z"/>
			<path d="M449.123,314.386H512v-26.947H356.774c-8.515,0-15.441-6.925-15.441-15.441V161.684h-20.211
				c-13.626,0-24.702,11.075-24.702,24.702v110.745l-36.945-67.737l18.639-65.249c0.898-3.126,0.018-6.503-2.291-8.812
				l-53.895-53.895c-0.979-0.979-2.183-1.725-3.512-2.165l-43.475-14.498l-46.08,124.066c-3.8-1.374-7.833-2.246-12.09-2.246
				c-2.219,0-4.383,0.269-6.494,0.656l47.607-128.162l-20.309-6.764c-1.689-0.575-3.503-0.62-5.201-0.153l-41.4,11.291l24.612-43.08
				c1.59-2.776,1.581-6.189-0.027-8.964c-1.608-2.776-4.572-4.473-7.77-4.473H8.982C4.015,26.947,0,30.963,0,35.93v161.684v125.754
				v8.982v77.096c0,11.974,9.737,21.711,21.711,21.711h5.955c4.383,30.415,30.549,53.895,62.159,53.895
				c31.609,0,57.775-23.48,62.159-53.895h190.069c4.383,30.415,30.549,53.895,62.159,53.895c31.609,0,57.775-23.48,62.159-53.895
				h23.92c11.974,0,21.711-9.737,21.711-21.711v-77.096h-62.877c-4.967,0-8.982-4.015-8.982-8.982
				C440.14,318.401,444.156,314.386,449.123,314.386z M35.93,323.368H17.965v-97.729L35.93,250.79V323.368z M33.567,99.121
				c-2.991,0.817-5.345,3.117-6.243,6.09l-9.36,31.196V44.912h74.339L66.461,90.157L33.567,99.121z M80.842,279.848v43.52H53.895
				v-53.32L80.842,279.848z M89.825,467.088c-24.765,0-44.912-20.148-44.912-44.912c0-24.765,20.148-44.912,44.912-44.912
				c24.765,0,44.912,20.148,44.912,44.912C134.737,446.94,114.589,467.088,89.825,467.088z M134.737,293.16v30.208h-35.93v-49.808
				v-31.034c0-9.908,8.057-17.965,17.965-17.965s17.965,8.057,17.965,17.965V293.16z M152.702,323.368v-17.965
				c0.332,0,0.656-0.018,0.988-0.054l80.842-8.982c3.629-0.404,6.647-2.955,7.653-6.467l10.258-35.894l37.834,69.362H152.702z
				 M449.123,422.175c0,24.765-20.148,44.912-44.912,44.912c-24.765,0-44.912-20.148-44.912-44.912
				c0-24.765,20.148-44.912,44.912-44.912C428.975,377.263,449.123,397.411,449.123,422.175z"/>
		</g>
	</g>
</g>
</svg>