<?xml version="1.0" encoding="iso-8859-1"?>
<!-- Uploaded to: SVG Repo, www.svgrepo.com, Generator: SVG Repo Mixer Tools -->
<svg height="800px" width="800px" version="1.1" id="Layer_1" xmlns="http://www.w3.org/2000/svg" xmlns:xlink="http://www.w3.org/1999/xlink" 
	 viewBox="0 0 512.898 512.898" xml:space="preserve">
<g transform="translate(1 1)">
	<path style="fill:#FFFFFF;" d="M7.982,197.063V331.8h35.93v-84.435L7.982,197.063z"/>
	<path style="fill:#FFE100;" d="M25.947,197.063V331.8h17.965v-84.435L25.947,197.063z"/>
	<path style="fill:#FFFFFF;" d="M71.758,97.358l35.032-61.979H7.982v161.684l26.947-89.825L71.758,97.358z"/>
	<g>
		<path style="fill:#FFE100;" d="M71.758,97.358l35.032-61.979H25.947v161.684l8.982-89.825L71.758,97.358z"/>
		<path style="fill:#FFE100;" d="M115.772,215.028c-14.372,0-26.947,12.575-26.947,26.947V331.8h53.895v-89.825
			C142.719,227.604,130.144,215.028,115.772,215.028"/>
	</g>
	<path style="fill:#FECC00;" d="M214.579,107.239l-80.842-26.947L34.93,107.239L7.982,197.063l44.912,62.877l35.93,13.474v-31.439
		c0-14.372,12.575-26.947,26.947-26.947s26.947,12.575,26.947,26.947v50.302l8.982,3.593l80.842-8.982l35.93-125.754
		L214.579,107.239z"/>
	<path style="fill:#FFE100;" d="M469.681,262.635l-78.147-86.232c-3.593-3.593,17.067-6.288,11.677-6.288h-82.639
		c-8.982,0-16.168,7.186-16.168,16.168V331.8H34.93v77.249c0,7.186,5.389,12.575,12.575,12.575h14.372
		c0-29.642-2.695-53.895,26.947-53.895s53.895,24.253,53.895,53.895h161.684h44.912c0-29.642,24.253-53.895,53.895-53.895
		c29.642,0,44.912,24.253,44.912,53.895h14.372c7.186,0,12.575-5.389,12.575-12.575V277.007
		C475.07,271.618,473.274,267.126,469.681,262.635"/>
	<path style="fill:#FFFFFF;" d="M34.93,409.049V331.8H7.982v77.249c0,7.186,5.389,12.575,12.575,12.575H34.93
		c0-2.695,0-5.389,0.898-8.982C34.93,411.744,34.93,409.947,34.93,409.049"/>
	<path style="fill:#FFA800;" d="M496.628,262.635l-78.147-86.232c-3.593-4.491-8.982-6.288-14.372-7.186
		c0,0.898-16.168,2.695-12.575,7.186l78.147,86.232c3.593,3.593,5.389,8.982,5.389,14.372v132.042
		c0,7.186-5.389,12.575-12.575,12.575h26.947c7.186,0,12.575-5.389,12.575-12.575V277.007
		C502.018,271.618,500.221,266.228,496.628,262.635"/>
	<path style="fill:#63D3FD;" d="M391.533,177.302c-3.593-4.491-9.881-7.186-15.27-7.186h-19.761c-3.593,0-6.288,2.695-6.288,6.288
		v95.214c0,3.593,2.695,6.288,6.288,6.288H475.07v-0.898c0-5.389-1.797-9.881-5.389-14.372L391.533,177.302z"/>
	<path style="fill:#3DB9F9;" d="M496.628,262.635l-78.147-86.232c-3.593-3.593-9.881-6.288-15.27-6.288h-26.947
		c6.288,0,11.677,2.695,15.27,7.186l78.147,86.232c3.593,3.593,5.389,8.982,5.389,14.372v0h26.947v-0.898
		C502.018,271.618,500.221,267.126,496.628,262.635"/>
	<path style="fill:#FECC00;" d="M430.158,421.625c0,29.642-17.965,53.895-40.421,53.895s-40.421-24.253-40.421-53.895
		s17.965-53.895,40.421-53.895S430.158,391.982,430.158,421.625"/>
	<path style="fill:#FFA800;" d="M403.211,367.73c-2.695,0-5.389,0-8.084,0.898c19.761,3.593,35.032,26.049,35.032,52.996
		s-15.27,49.404-35.032,52.997c2.695,0,5.389,0.898,8.084,0.898c29.642,0,53.895-24.253,53.895-53.895
		S432.853,367.73,403.211,367.73"/>
	<path style="fill:#FECC00;" d="M115.772,421.625c0,29.642-17.965,53.895-40.421,53.895S34.93,451.267,34.93,421.625
		s17.965-53.895,40.421-53.895S115.772,391.982,115.772,421.625"/>
	<path style="fill:#FFA800;" d="M88.825,367.73c-2.695,0-5.389,0-8.084,0.898c19.761,3.593,35.032,26.049,35.032,52.996
		s-15.27,49.404-35.032,52.997c2.695,0.898,5.389,0.898,8.084,0.898c29.642,0,53.895-24.253,53.895-53.895
		S118.467,367.73,88.825,367.73"/>
	<path d="M403.211,484.502c-35.032,0-62.877-27.846-62.877-62.877s27.846-62.877,62.877-62.877s62.877,27.846,62.877,62.877
		S438.242,484.502,403.211,484.502z M403.211,376.712c-25.151,0-44.912,19.761-44.912,44.912s19.761,44.912,44.912,44.912
		c25.151,0,44.912-19.761,44.912-44.912S428.361,376.712,403.211,376.712z"/>
	<path d="M88.825,484.502c-35.032,0-62.877-27.846-62.877-62.877s27.846-62.877,62.877-62.877s62.877,27.846,62.877,62.877
		S123.856,484.502,88.825,484.502z M88.825,376.712c-25.151,0-44.912,19.761-44.912,44.912s19.761,44.912,44.912,44.912
		s44.912-19.761,44.912-44.912S113.975,376.712,88.825,376.712z"/>
	<path d="M502.018,331.8h-53.895c-5.389,0-8.982-3.593-8.982-8.982s3.593-8.982,8.982-8.982h53.895c5.389,0,8.982,3.593,8.982,8.982
		C511,328.207,507.407,331.8,502.018,331.8z"/>
	<path d="M489.442,430.607h-41.319v-8.982c0-25.151-19.761-44.912-44.912-44.912c-25.151,0-44.912,19.761-44.912,44.912v8.982
		H133.737v-8.982c0-25.151-19.761-44.912-44.912-44.912s-44.912,19.761-44.912,44.912v8.982H20.558
		C8.881,430.607-1,420.726-1,409.049v-86.232h296.421V185.386c0-13.474,10.779-25.151,25.151-25.151h82.639
		c8.084,0,16.168,3.593,22.456,9.881l78.147,86.232c5.389,5.389,8.084,12.575,8.084,20.66v132.042
		C511,420.726,501.119,430.607,489.442,430.607z M465.189,412.642h24.253c1.796,0,3.593-1.797,3.593-3.593V277.007
		c0-2.695-0.898-6.288-3.593-8.084l0,0l-77.249-86.232c-2.695-2.695-5.389-3.593-8.982-3.593h-82.639
		c-3.593,0-7.186,2.695-7.186,7.186v154.498H16.965v68.267c0,1.796,1.796,3.593,3.593,3.593h6.288
		c4.491-30.54,30.54-53.895,61.979-53.895s57.488,23.354,61.979,53.895h189.53c4.491-30.54,30.54-53.895,61.979-53.895
		S460.698,382.102,465.189,412.642z"/>
	<path d="M106.789,421.625c0,9.881-8.084,17.965-17.965,17.965s-17.965-8.084-17.965-17.965s8.084-17.965,17.965-17.965
		S106.789,411.744,106.789,421.625"/>
	<path d="M421.175,421.625c0,9.881-8.084,17.965-17.965,17.965c-9.881,0-17.965-8.084-17.965-17.965s8.084-17.965,17.965-17.965
		C413.091,403.66,421.175,411.744,421.175,421.625"/>
	<path d="M502.018,286.888H355.604c-8.084,0-15.27-7.186-15.27-15.27v-95.214c0-8.084,7.186-15.27,15.27-15.27h47.607
		c8.084,0,16.168,3.593,22.456,9.881l78.147,86.232c5.389,5.389,8.084,12.575,8.084,20.66v8.982H502.018z M358.298,268.923h131.144
		l-77.249-86.232c-2.695-2.695-5.389-3.593-8.982-3.593h-44.912V268.923z"/>
	<path d="M304.404,340.782c-3.593,0-6.288-1.797-8.084-4.491l-53.895-98.807c-2.695-4.491-0.898-9.881,3.593-12.575
		s9.881-0.898,12.575,3.593l53.895,98.807c2.695,4.491,0.898,9.881-3.593,12.575C307.098,340.782,306.2,340.782,304.404,340.782z"/>
	<path d="M43.912,340.782H7.982C2.593,340.782-1,337.189-1,331.8V197.063c0-3.593,2.695-7.186,6.288-8.982
		c3.593-0.898,8.084,0,9.881,3.593l35.93,50.302c0.898,1.796,1.796,3.593,1.796,5.389V331.8
		C52.895,337.189,49.302,340.782,43.912,340.782z M16.965,322.818H34.93V250.06l-17.965-25.151V322.818z"/>
	<path d="M7.982,206.046H7.084C2.593,205.147-1,201.554-1,197.063V35.379c0-5.389,3.593-8.982,8.982-8.982h98.807
		c3.593,0,6.288,1.796,8.084,4.491c1.796,2.695,1.796,6.288,0,8.982l-35.93,61.979c-0.898,1.796-2.695,3.593-5.389,4.491
		l-31.439,8.982l-25.151,84.435C15.168,203.351,11.575,206.046,7.982,206.046z M16.965,44.361v91.621l8.982-31.439
		c0.898-2.695,3.593-5.389,6.288-6.288l33.235-8.982l26.049-44.912H16.965z M71.758,97.358L71.758,97.358L71.758,97.358z"/>
	<path d="M142.719,340.782H88.825c-5.389,0-8.982-3.593-8.982-8.982v-89.825c0-19.761,16.168-35.93,35.93-35.93
		s35.93,16.168,35.93,35.93V331.8C151.702,337.189,148.109,340.782,142.719,340.782z M97.807,322.818h35.93v-80.842
		c0-9.881-8.084-17.965-17.965-17.965s-17.965,8.084-17.965,17.965V322.818z"/>
	<path d="M151.702,304.853c-0.898,0-1.796,0-2.695-0.898l-8.982-3.593c-3.593-0.898-6.288-4.491-6.288-8.084v-50.302
		c0-9.881-8.084-17.965-17.965-17.965s-17.965,8.084-17.965,17.965v31.439c0,2.695-1.796,5.389-3.593,7.186
		c-2.695,1.797-5.389,1.797-8.084,0.898L50.2,268.025c-1.796-0.898-3.593-1.797-4.491-3.593L0.796,201.554
		C-1,199.758-1,197.063-1,194.368l26.947-89.825c0.898-2.695,3.593-5.389,6.288-6.288l98.807-26.947c1.796-0.898,3.593,0,5.389,0
		l80.842,26.947c0.898,0,2.695,0.898,3.593,1.796l53.895,53.895c2.695,2.695,3.593,5.389,2.695,8.982l-35.93,125.754
		c-0.898,3.593-3.593,6.288-8.084,6.288l-80.842,8.982C152.6,304.853,151.702,304.853,151.702,304.853z M151.702,285.989h0.898
		l72.758-8.084l33.235-114.975l-48.505-48.505l-76.351-25.151l-91.621,25.151l-24.253,80.842l40.421,56.589l21.558,8.084v-17.965
		c0-19.761,16.168-35.93,35.93-35.93s35.93,16.168,35.93,35.93V285.989z"/>
	<path d="M115.772,224.011c-0.898,0-1.796,0-2.695-0.898c-4.491-1.796-7.186-7.186-5.389-11.677L152.6,85.681
		c1.796-4.491,7.186-7.186,11.677-5.389c4.491,1.796,7.186,7.186,5.389,11.677l-44.912,125.754
		C122.958,221.316,119.365,224.011,115.772,224.011z"/>
</g>
</svg>