<?xml version="1.0" encoding="iso-8859-1"?>
<!-- Uploaded to: SVG Repo, www.svgrepo.com, Generator: SVG Repo Mixer Tools -->
<svg version="1.1" id="Layer_1" xmlns="http://www.w3.org/2000/svg" xmlns:xlink="http://www.w3.org/1999/xlink" 
	 viewBox="0 0 511.987 511.987" xml:space="preserve">
<polygon style="fill:#434A54;" points="321.318,314.269 221.454,314.269 311.913,252.819 340.021,304.006 "/>
<path style="fill:#E9573F;" d="M42.691,341.129c-11.78,0-21.327-4.766-21.327-10.672V229.74c0-5.891,9.547-10.671,21.327-10.671
	c11.781,0,21.328,4.781,21.328,10.671v100.716C64.019,336.363,54.473,341.129,42.691,341.129z"/>
<path style="fill:#FC6E51;" d="M310.569,173.195c-9.391-20.874-22.28-32.78-22.827-33.265c-1.297-1.188-2.859-2.031-4.547-2.469
	c-6.609-1.672-162.458-41.265-219.895-41.265c-7.453,0-24.906,0-29.358,12.14l-33,89.92c-4.75,12.906,8.844,25.483,32.297,41.593
	c16.827,11.562,40.796,25.937,71.248,42.734c51.577,28.42,104.826,54.436,105.357,54.686c1.469,0.719,3.062,1.078,4.688,1.078
	c0.125,0,0.25,0,0.375,0c0.734-0.031,18.266-0.766,38.937-10.594c19.055-9.078,44.694-27.904,58.726-66.139
	C326.599,223.397,319.224,192.429,310.569,173.195z"/>
<g>
	<path style="fill:#E9573F;" d="M287.742,139.93c-1.297-1.188-2.859-2.031-4.547-2.469c-0.844-0.203-4.141-1.047-9.344-2.344
		l-72.647,197.887c5.391,2.672,8.516,4.203,8.641,4.266c1.469,0.719,3.062,1.078,4.688,1.078c0.125,0,0.25,0,0.375,0
		c0.281-0.016,2.984-0.125,7.359-0.797l70.568-192.261C289.93,141.946,287.945,140.117,287.742,139.93z"/>
	<path style="fill:#E9573F;" d="M158.471,109.227L96.487,278.131c2.609,1.469,5.281,2.953,8,4.453c3.641,2,7.266,3.984,10.906,5.953
		l64.233-175.028C172.627,112.04,165.533,110.602,158.471,109.227z"/>
</g>
<path style="fill:#CCD1D9;" d="M330.662,309.129H32.02c-5.891,0-10.656,4.781-10.656,10.672v42.656
	c0,5.891,4.766,10.672,10.656,10.672h298.642c5.891,0,10.672-4.781,10.672-10.672v-42.656
	C341.334,313.91,336.553,309.129,330.662,309.129z"/>
<polygon style="fill:#E6E9ED;" points="330.678,362.457 330.787,170.366 441.394,170.273 481.129,249.475 501.315,289.865 
	501.128,362.457 "/>
<polygon style="fill:#4FC2E9;" points="481.129,249.475 441.394,170.273 330.787,170.366 330.74,249.475 "/>
<path style="fill:#E6E9ED;" d="M490.66,244.694l-42.688-85.092l-127.842,0.109l-0.125,213.418h191.763l0.219-85.764L490.66,244.694z
	 M490.504,351.801H341.349l0.094-170.778l93.373-0.078l36.766,73.296l19.062,38.125L490.504,351.801z"/>
<g>
	<circle style="fill:#434A54;" cx="394.664" cy="362.46" r="53.33"/>
	<path style="fill:#434A54;" d="M181.346,309.129c-17.453,0-32.938,8.375-42.671,21.328c-9.719-12.953-25.203-21.328-42.656-21.328
		c-29.452,0-53.327,23.875-53.327,53.328s23.875,53.326,53.327,53.326c17.453,0,32.938-8.373,42.656-21.326
		c9.733,12.953,25.218,21.326,42.671,21.326c29.452,0,53.327-23.873,53.327-53.326S210.798,309.129,181.346,309.129z"/>
</g>
<g>
	<path style="fill:#F5F7FA;" d="M383.99,362.457c0,5.891,4.781,10.672,10.671,10.672c5.891,0,10.656-4.781,10.656-10.672
		s-4.766-10.656-10.656-10.656C388.771,351.801,383.99,356.566,383.99,362.457z"/>
	<path style="fill:#F5F7FA;" d="M85.348,362.457c0,5.891,4.78,10.672,10.671,10.672s10.672-4.781,10.672-10.672
		s-4.781-10.656-10.672-10.656S85.348,356.566,85.348,362.457z"/>
	<path style="fill:#F5F7FA;" d="M170.674,362.457c0,5.891,4.781,10.672,10.672,10.672s10.655-4.781,10.655-10.672
		s-4.765-10.656-10.655-10.656S170.674,356.566,170.674,362.457z"/>
</g>
<rect x="362.524" y="180.99" style="fill:#3BAFDA;" width="21.328" height="68.48"/>
</svg>