<?xml version="1.0" encoding="iso-8859-1"?>
<!-- Uploaded to: SVG Repo, www.svgrepo.com, Generator: SVG Repo Mixer Tools -->
<svg height="800px" width="800px" version="1.1" id="Layer_1" xmlns="http://www.w3.org/2000/svg" xmlns:xlink="http://www.w3.org/1999/xlink" 
	 viewBox="0 0 512 512" xml:space="preserve">
<g transform="translate(1 1)">
	<g>
		<path style="fill:#FFE100;" d="M92.867,502.467h-51.2V18.627c0-5.973,5.12-11.093,11.093-11.093h28.16
			c6.827,0,11.947,5.12,11.947,11.093V502.467z"/>
		<path style="fill:#FFE100;" d="M417.133,502.467h51.2V18.627c0-5.973-5.12-11.093-11.093-11.093h-28.16
			c-6.827,0-11.947,5.12-11.947,11.093V502.467z"/>
	</g>
	<path style="fill:#FFA800;" d="M457.24,7.533h-17.067c5.973,0,11.093,5.12,11.093,11.093v483.84h17.067V18.627
		C468.333,12.653,463.213,7.533,457.24,7.533"/>
	<path style="fill:#FFFFFF;" d="M52.76,7.533h17.067c-5.973,0-11.093,5.12-11.093,11.093v483.84H41.667V18.627
		C41.667,12.653,46.787,7.533,52.76,7.533"/>
	<g>
		<polygon style="fill:#FFE100;" points="306.2,50.2 297.667,50.2 92.867,50.2 92.867,92.867 297.667,92.867 306.2,92.867 
			417.133,92.867 417.133,50.2 		"/>
		<polygon style="fill:#FFE100;" points="468.333,92.867 502.467,92.867 502.467,50.2 468.333,50.2 		"/>
		<polygon style="fill:#FFE100;" points="7.533,92.867 41.667,92.867 41.667,50.2 7.533,50.2 		"/>
		<polygon style="fill:#FFE100;" points="92.867,127 417.133,127 417.133,92.867 92.867,92.867 		"/>
	</g>
	<polygon style="fill:#63D3FD;" points="178.2,391.533 331.8,391.533 331.8,323.267 178.2,323.267 	"/>
	<polygon style="fill:#3DB9F9;" points="306.2,391.533 331.8,391.533 331.8,323.267 306.2,323.267 	"/>
	<g>
		<path style="fill:#FFE100;" d="M263.533,212.333c-5.12,0-8.533-3.413-8.533-8.533v-25.6c0-5.12,3.413-8.533,8.533-8.533
			c5.12,0,8.533,3.413,8.533,8.533v25.6C272.067,208.92,268.653,212.333,263.533,212.333z"/>
		<path style="fill:#FFE100;" d="M263.533,263.533c-5.12,0-8.533-3.413-8.533-8.533s3.413-8.533,8.533-8.533
			c9.387,0,17.067-7.68,17.067-17.067s-7.68-17.067-17.067-17.067c-5.12,0-8.533-3.413-8.533-8.533c0-5.12,3.413-8.533,8.533-8.533
			c18.773,0,34.133,15.36,34.133,34.133S282.307,263.533,263.533,263.533z"/>
		<path style="fill:#FFE100;" d="M314.733,331.8L314.733,331.8h-102.4c-3.413,0-5.973-1.707-7.68-5.12
			c-1.707-3.413-0.853-5.973,0.853-8.533l51.2-68.267c3.413-4.267,10.24-4.267,13.653,0l50.347,67.413
			c1.707,1.707,2.56,3.413,2.56,5.973C323.267,328.387,319.853,331.8,314.733,331.8z M229.4,314.733h68.267l-34.133-45.227
			L229.4,314.733z"/>
	</g>
	<path d="M272.067,186.733h-34.133c-5.12,0-8.533-3.413-8.533-8.533v-10.24c0-17.92,6.827-34.987,19.627-46.933
		c3.413-3.413,8.533-3.413,11.947,0c12.8,12.8,19.627,29.013,19.627,46.933v10.24C280.6,183.32,277.187,186.733,272.067,186.733z
		 M246.467,169.667h17.067v-1.707c0-10.24-2.56-19.627-8.533-28.16c-5.973,8.533-8.533,17.92-8.533,28.16V169.667z"/>
	<path d="M255,212.333c-5.12,0-8.533-3.413-8.533-8.533v-25.6c0-5.12,3.413-8.533,8.533-8.533s8.533,3.413,8.533,8.533v25.6
		C263.533,208.92,260.12,212.333,255,212.333z"/>
	<path d="M255,263.533c-5.12,0-8.533-3.413-8.533-8.533s3.413-8.533,8.533-8.533c9.387,0,17.067-7.68,17.067-17.067
		s-7.68-17.067-17.067-17.067c-5.12,0-8.533-3.413-8.533-8.533c0-5.12,3.413-8.533,8.533-8.533c18.773,0,34.133,15.36,34.133,34.133
		S273.773,263.533,255,263.533z"/>
	<path d="M331.8,400.067H178.2c-5.12,0-8.533-3.413-8.533-8.533v-68.267c0-5.12,3.413-8.533,8.533-8.533h153.6
		c5.12,0,8.533,3.413,8.533,8.533v68.267C340.333,396.653,336.92,400.067,331.8,400.067z M186.733,383h136.533v-51.2H186.733V383z"
		/>
	<path d="M306.2,331.8L306.2,331.8H203.8c-3.413,0-5.973-1.707-7.68-5.12c-1.707-3.413-0.853-5.973,0.853-8.533l51.2-68.267
		c3.413-4.267,10.24-4.267,13.653,0l50.347,67.413c1.707,1.707,2.56,3.413,2.56,5.973C314.733,328.387,311.32,331.8,306.2,331.8z
		 M220.867,314.733h68.267L255,269.507L220.867,314.733z"/>
	<path d="M101.4,511H33.133V18.627C33.133,7.533,41.667-1,52.76-1h28.16c11.947,0,20.48,8.533,20.48,19.627V511z M50.2,493.933
		h34.133V18.627c0-1.707-0.853-2.56-2.56-2.56H52.76c-1.707,0-2.56,0.853-2.56,2.56V493.933z"/>
	<path d="M476.867,511H408.6V18.627C408.6,7.533,417.133-1,428.227-1h28.16c11.947,0,20.48,8.533,20.48,19.627V511z
		 M425.667,493.933H459.8V18.627c0-1.707-0.853-2.56-2.56-2.56h-28.16c-2.56,0-3.413,0.853-3.413,2.56V493.933z"/>
	<path d="M417.133,101.4H92.867c-5.12,0-8.533-3.413-8.533-8.533V50.2c0-5.12,3.413-8.533,8.533-8.533h324.267
		c5.12,0,8.533,3.413,8.533,8.533v42.667C425.667,97.987,422.253,101.4,417.133,101.4z M101.4,84.333h307.2v-25.6H101.4V84.333z"/>
	<path d="M502.467,101.4h-34.133c-5.12,0-8.533-3.413-8.533-8.533V50.2c0-5.12,3.413-8.533,8.533-8.533h34.133
		c5.12,0,8.533,3.413,8.533,8.533v42.667C511,97.987,507.587,101.4,502.467,101.4z M476.867,84.333h17.067v-25.6h-17.067V84.333z"/>
	<path d="M41.667,101.4H7.533C2.413,101.4-1,97.987-1,92.867V50.2c0-5.12,3.413-8.533,8.533-8.533h34.133
		c5.12,0,8.533,3.413,8.533,8.533v42.667C50.2,97.987,46.787,101.4,41.667,101.4z M16.067,84.333h17.067v-25.6H16.067V84.333z"/>
	<path d="M92.867,417.133h-51.2c-5.12,0-8.533-3.413-8.533-8.533c0-5.12,3.413-8.533,8.533-8.533h51.2
		c5.12,0,8.533,3.413,8.533,8.533C101.4,413.72,97.987,417.133,92.867,417.133z"/>
	<path d="M468.333,417.133h-51.2c-5.12,0-8.533-3.413-8.533-8.533c0-5.12,3.413-8.533,8.533-8.533h51.2
		c5.12,0,8.533,3.413,8.533,8.533C476.867,413.72,473.453,417.133,468.333,417.133z"/>
	<path d="M417.133,135.533H92.867c-5.12,0-8.533-3.413-8.533-8.533V92.867c0-5.12,3.413-8.533,8.533-8.533h324.267
		c5.12,0,8.533,3.413,8.533,8.533V127C425.667,132.12,422.253,135.533,417.133,135.533z M101.4,118.467h307.2V101.4H101.4V118.467z"
		/>
</g>
</svg>