<?xml version="1.0" ?>
<!DOCTYPE svg  PUBLIC '-//W3C//DTD SVG 1.1//EN'  'http://www.w3.org/Graphics/SVG/1.1/DTD/svg11.dtd'>
<!-- Uploaded to: SVG Repo, www.svgrepo.com, Generator: SVG Repo Mixer Tools -->
<svg fill="#000000" width="800px" height="800px" viewBox="0 0 846.66 846.66" style="shape-rendering:geometricPrecision; text-rendering:geometricPrecision; image-rendering:optimizeQuality; fill-rule:evenodd; clip-rule:evenodd" version="1.1" xml:space="preserve" xmlns="http://www.w3.org/2000/svg" xmlns:xlink="http://www.w3.org/1999/xlink">
<defs>
<style type="text/css">
   <![CDATA[
    .fil0 {fill:black;fill-rule:nonzero}
   ]]>
  </style>
</defs>
<g id="Layer_x0020_1">
<path class="fil0" d="M93.28 100.89l69.12 0 0 -71.08c0,-11.44 9.28,-20.71 20.72,-20.71l414.03 0c97.36,0 176.94,79.58 176.94,176.94l0 539.02c0,11.44 -9.27,20.71 -20.71,20.71l-69.12 0 0 71.08c0,11.44 -9.28,20.71 -20.72,20.71l-570.26 0c-11.44,0 -20.71,-9.27 -20.71,-20.71l0 -695.25c0,-11.44 9.27,-20.71 20.71,-20.71zm148.42 178.12c-27.24,0 -27.24,-41.42 0,-41.42l273.42 0c27.24,0 27.24,41.42 0,41.42l-273.42 0zm0 216.78c-27.24,0 -27.24,-41.42 0,-41.42l273.42 0c27.24,0 27.24,41.42 0,41.42l-273.42 0zm0 -108.39c-27.24,0 -27.24,-41.42 0,-41.42l273.42 0c27.24,0 27.24,41.42 0,41.42l-273.42 0zm-37.87 -286.51l303.48 0c97.36,0 176.95,79.58 176.95,176.94l0 426.52 48.41 0 0 -518.31c0,-74.49 -61.03,-135.52 -135.52,-135.52l-393.32 0 0 50.37zm11.51 478.47l326.15 0c11.43,0 20.71,9.28 20.71,20.71l0 105.46c0,11.44 -9.28,20.72 -20.71,20.72l-326.15 0c-11.44,0 -20.71,-9.28 -20.71,-20.72l0 -105.46c0,-11.43 9.27,-20.71 20.71,-20.71zm305.43 41.42l-284.72 0 0 64.04 284.72 0 0 -64.04zm-13.46 -478.47l-393.32 0 0 653.83 528.84 0 0 -518.31c0,-74.49 -61.02,-135.52 -135.52,-135.52z"/>
</g>
</svg>