<?xml version="1.0" encoding="iso-8859-1"?>
<!-- Uploaded to: SVG Repo, www.svgrepo.com, Generator: SVG Repo Mixer Tools -->
<svg version="1.1" id="Layer_1" xmlns="http://www.w3.org/2000/svg" xmlns:xlink="http://www.w3.org/1999/xlink" 
	 viewBox="0 0 313.487 313.487" xml:space="preserve">
<g id="XMLID_1095_">
	<path id="XMLID_1096_" style="fill:#2B7B57;" d="M295.632,157.578l-52.059,25.261V168.76c0-9.175-9.6-15.188-17.855-11.182
		l-52.059,25.261v-12.63c0-9.516-10.256-15.502-18.542-10.822l-75.603,42.704v111.135h208.308c14.174,0,25.665-11.49,25.665-25.665
		V168.76C313.487,159.585,303.886,153.572,295.632,157.578z"/>
	<path id="XMLID_1098_" style="fill:#9FCBA5;" d="M83.836,202.122l-8.996-155.1C73.825,29.521,59.337,15.85,41.807,15.85l0,0
		c-17.804,0-32.417,14.088-33.066,31.881L0.017,286.625c-0.531,14.532,11.106,26.601,25.648,26.601h12.297h7.012H83.89V202.091
		L83.836,202.122z"/>
	<g id="XMLID_1099_">
		<rect id="XMLID_33_" x="126.885" y="231.07" style="fill:#9FCBA5;" width="56.124" height="50.189"/>
		<rect id="XMLID_32_" x="209.992" y="231.07" style="fill:#9FCBA5;" width="56.124" height="50.189"/>
	</g>
	<g id="XMLID_1100_">
		<path id="XMLID_15_" style="fill:#49B86E;" d="M250.646,119.082c-31.547,24.074-78.215,16.027-99.685,10.46
			c-6.969-1.807-11.608-8.606-11.034-16.169c1.769-23.301,9.253-72.672,40.8-96.747s78.215-16.027,99.685-10.46
			c6.969,1.807,11.608,8.606,11.034,16.169C289.677,45.636,282.193,95.008,250.646,119.082z"/>
		<g id="XMLID_1101_">
			<path id="XMLID_9_" style="fill:#2B7B57;" d="M118.933,141.688L118.933,141.688c-3.999-5.86-2.669-14.099,2.971-18.402
				l76.33-58.249c5.64-4.304,13.453-3.042,17.452,2.817l0,0c3.999,5.86,2.669,14.099-2.971,18.402l-76.33,58.249
				C130.746,148.809,122.932,147.548,118.933,141.688z"/>
		</g>
	</g>
</g>
</svg>