<?xml version="1.0" encoding="UTF-8" standalone="no"?>
<!-- Created with Inkscape (http://www.inkscape.org/) -->

<svg
   xmlns:dc="http://purl.org/dc/elements/1.1/"
   xmlns:cc="http://creativecommons.org/ns#"
   xmlns:rdf="http://www.w3.org/1999/02/22-rdf-syntax-ns#"
   xmlns:svg="http://www.w3.org/2000/svg"
   xmlns="http://www.w3.org/2000/svg"
   xmlns:sodipodi="http://sodipodi.sourceforge.net/DTD/sodipodi-0.dtd"
   xmlns:inkscape="http://www.inkscape.org/namespaces/inkscape"
   width="183.17188mm"
   height="219.86172mm"
   viewBox="0 0 649.0342 779.0376"
   id="svg43564"
   version="1.1"
   inkscape:version="0.91 r13725"
   sodipodi:docname="OSHA-ladder.svg">
  <defs
     id="defs43566" />
  <sodipodi:namedview
     id="base"
     pagecolor="#ffffff"
     bordercolor="#666666"
     borderopacity="1.0"
     inkscape:pageopacity="0.0"
     inkscape:pageshadow="2"
     inkscape:zoom="0.43705627"
     inkscape:cx="-160.00799"
     inkscape:cy="289.41241"
     inkscape:document-units="px"
     inkscape:current-layer="layer1"
     showgrid="false"
     fit-margin-top="0"
     fit-margin-left="0"
     fit-margin-right="0"
     fit-margin-bottom="0"
     inkscape:window-width="1916"
     inkscape:window-height="1035"
     inkscape:window-x="4"
     inkscape:window-y="1"
     inkscape:window-maximized="1" />
  <metadata
     id="metadata43569">
    <rdf:RDF>
      <cc:Work
         rdf:about="">
        <dc:format>image/svg+xml</dc:format>
        <dc:type
           rdf:resource="http://purl.org/dc/dcmitype/StillImage" />
        <dc:title></dc:title>
      </cc:Work>
    </rdf:RDF>
  </metadata>
  <g
     inkscape:label="Layer 1"
     inkscape:groupmode="layer"
     id="layer1"
     transform="translate(-40.722275,-42.736994)">
    <g
       id="g44123"
       inkscape:transform-center-x="1115.3825"
       inkscape:transform-center-y="221.6662"
       transform="matrix(1.128277,0,0,1.2314788,1216.3733,-150.13233)">
      <path
         style="fill:#f11214"
         d="m -907.12463,782.01406 c 0,-3.96291 11.94892,-47.04098 26.62846,-95.72903 21.66477,-71.85823 30.98677,-92.14907 37.35263,-83.45815 4.31369,5.88858 14.17524,15.84637 11.2655,35.45117 l -7.85872,52.94924 86.56954,0 86.56933,0 4.4647,-15.85166 c 5.79828,-20.58583 10.69852,-36.46274 15.12164,-48.99604 3.07787,-8.71893 -1.84351,-10.08742 -36.27427,-10.08742 -18.40597,0 -36.57233,1.2086 -45.90651,-2.3544 -9.33419,-3.56299 -9.83619,-11.89758 -9.83619,-19.70213 0,-1.32583 28.32707,-1.00043 54.33106,-1.00043 45.62535,0 47.43823,-0.55509 51.77527,-15.85166 2.47236,-8.71841 7.44044,-24.93033 11.04139,-36.0265 3.60021,-11.09616 6.56501,-21.95846 6.5869,-24.13838 0,-2.17998 -35.25002,-5.03299 -78.38331,-6.34003 -78.57662,-2.38098 -126.17119,-8.84033 -127.01963,-17.2386 -0.24804,-2.46686 3.24348,-16.08488 7.76239,-30.26226 7.04285,-22.10044 10.87068,-31.41795 26.8393,-31.41795 14.31916,0 17.74793,-0.48854 14.83201,7.26696 -2.08644,5.54808 -5.97263,25.76429 -8.63614,34.58323 l -4.8426,16.0345 89.67565,-1.6239 89.67566,-1.62384 9.35034,-31.70332 c 5.14244,-17.43683 9.48896,-33.64875 9.65894,-36.0265 0.16779,-2.37775 -27.59509,-4.32318 -61.70048,-4.32318 -34.10539,0 -62.00979,-2.2763 -62.00979,-5.05841 0,-11.9212 22.5453,-17.57874 76.41576,-19.17613 l 57.48601,-1.70454 8.60477,-30.26226 8.60477,-30.26226 -34.58104,0 c -14.2225,0 -31.49819,-0.51134 -37.1492,-2.20808 -5.65101,-1.69673 -2.49778,-7.39931 -4.067,-12.14086 -3.49298,-10.55386 2.59431,-8.70802 41.48904,-8.70802 l 42.48401,0 7.89932,-29.10491 c 4.34506,-16.0077 7.90004,-31.57115 7.90004,-34.58544 0,-3.15823 -36.87321,-5.48052 -87.02017,-5.48052 l -87.02017,0 -8.9068,31.44917 c -5.91938,20.89727 -10.24454,35.32118 -24.06397,45.78212 -15.60896,11.81588 -26.43754,14.85497 -26.43754,7.93961 0,-8.03811 43.63593,-160.99729 46.84293,-164.20059 0.66387,-0.66681 8.70034,0.33433 17.8508,2.22528 16.89949,3.49175 17.26864,7.76755 3.77311,43.66003 -3.46963,9.22906 3.97082,10.08742 87.44257,10.08742 l 91.23611,0 4.92285,-25.93908 c 4.25315,-22.40981 7.29163,-25.93908 22.33228,-25.93908 9.86759,0 17.41017,3.4171 17.41017,7.88738 0,4.33805 -22.79699,84.10078 -50.66055,177.25037 -27.86355,93.14966 -59.13619,197.89598 -69.4962,232.76963 -58.99394,198.59253 -63.32295,210.39475 -77.1701,210.39475 -19.97518,0 -21.84788,-6.62466 -11.03045,-39.02488 5.40798,-16.19821 8.82655,-30.25609 7.59656,-31.2397 -1.22998,-0.98361 -41.78876,-0.98897 -90.13087,-0.0115 l -87.89583,1.77648 -8.52744,34.25002 c -7.54331,30.29321 -10.52562,34.24961 -25.81723,34.24961 -9.50866,0 -17.31678,-3.24238 -17.34961,-7.2053 z"
         id="path44127"
         inkscape:connector-curvature="0"
         sodipodi:nodetypes="sscscccscsssscccsccscscccccssscccsscsccsscccscccscsssscssssccscs" />
      <path
         style="fill:#060606"
         d="m -1019.6199,774.39702 c -14.7693,-11.66964 -15.1909,-8.13345 13.0184,-109.10881 23.62648,-84.56999 23.86285,-86.76466 10.77951,-100.2105 -17.84641,-18.34129 -16.85281,-39.15648 4.98194,-104.42001 23.6892,-70.80297 30.56864,-75.60354 127.66067,-89.07907 l 75.29981,-10.45091 46.00543,-33.81649 c 25.30292,-18.59907 51.01218,-33.81649 57.13218,-33.81649 17.13586,0 41.47215,22.35471 38.93267,35.76267 -1.24968,6.59827 -27.31568,29.88269 -57.92372,51.74322 -49.63483,35.44915 -60.34574,40.43614 -99.06612,46.12574 l -43.41437,6.37934 -12.18748,36.13803 c -6.7029,19.87591 -12.18675,38.95462 -12.18675,42.3972 0,3.72202 15.80593,6.25915 38.99322,6.25915 28.26428,0 42.2588,2.851 50.86065,10.36111 17.11179,14.94022 48.89728,122.29215 40.12326,135.51157 -8.94619,13.47823 -23.45575,17.64595 -45.92154,13.19071 -17.77128,-3.52431 -26.70069,-19.95666 -43.53182,-80.11325 -4.26409,-15.23984 -6.47091,-16.06026 -38.76634,-14.41059 l -34.24546,1.74921 -25.84787,92.22784 c -14.21556,50.72531 -28.43842,95.47022 -31.6053,99.43313 -8.10359,10.13965 -45.39267,8.97049 -59.09097,-1.8528 z m 96.12103,-434.69717 c -24.31367,-15.11141 -30.04265,-35.69373 -16.87031,-60.60383 25.76033,-48.71469 114.79983,-38.27006 125.46625,14.7176 6.00714,29.83853 -24.02989,57.32352 -62.64449,57.32352 -16.42968,0 -34.97644,-4.61652 -45.95145,-11.43729 z"
         id="path44125"
         inkscape:connector-curvature="0" />
    </g>
  </g>
</svg>
