<?xml version="1.0" encoding="iso-8859-1"?>
<!-- Uploaded to: SVG Repo, www.svgrepo.com, Generator: SVG Repo Mixer Tools -->
<svg height="800px" width="800px" version="1.1" id="Layer_1" xmlns="http://www.w3.org/2000/svg" xmlns:xlink="http://www.w3.org/1999/xlink" 
	 viewBox="0 0 512 512" xml:space="preserve">
<path style="fill:#D9472B;" d="M511.988,305.639V125.234c0-9.222-7.478-16.695-16.695-16.695c-9.217,0-16.695,7.473-16.695,16.695
	v180.405H511.988z"/>
<g>
	<path style="fill:#E6563A;" d="M33.29,305.639V125.234c0-9.222-7.367-16.695-16.584-16.695s-16.695,7.473-16.695,16.695v180.405
		H33.29z"/>
	<path style="fill:#E6563A;" d="M122.441,197.123c-9.217,0-16.695-7.473-16.695-16.695V75.356c0-9.222,7.478-16.695,16.695-16.695
		s16.584,7.473,16.584,16.695v105.071C139.024,189.65,131.658,197.123,122.441,197.123z"/>
</g>
<path style="fill:#D9472B;" d="M389.559,197.123c-9.217,0-16.695-7.473-16.695-16.695V75.356c0-9.222,7.478-16.695,16.695-16.695
	s16.584,7.473,16.584,16.695v105.071C406.142,189.65,398.777,197.123,389.559,197.123z"/>
<path style="fill:#E6563A;" d="M256,172.08c-9.217,0-16.695-7.473-16.695-16.695V55.216c0-9.222,7.478-16.695,16.695-16.695
	s16.584,7.473,16.584,16.695v100.169C272.583,164.608,265.218,172.08,256,172.08z"/>
<path style="fill:#D9472B;" d="M272.583,155.385V55.216c0-9.222-7.367-16.695-16.584-16.695V172.08
	C265.218,172.08,272.583,164.608,272.583,155.385z"/>
<path style="fill:#736056;" d="M511.877,305.639v8.681c0,0.89-0.223,1.669-0.334,2.449H391.451
	c-26.933-47.525-78.465-79.022-135.45-79.022c-59.212,0-109.63,33.501-135.45,79.022H0.348c-0.111-0.779-0.334-1.558-0.334-2.449
	v-8.681c0-92.044,114.862-166.949,255.988-166.949S511.877,213.594,511.877,305.639z"/>
<path style="fill:#665247;" d="M511.877,305.639v8.681c0,0.89-0.223,1.669-0.334,2.449H391.451
	c-26.933-47.525-78.465-79.022-135.45-79.022v-99.056C397.127,138.691,511.877,213.594,511.877,305.639z"/>
<path style="fill:#61DAF2;" d="M502.529,462.905c-33.835,16.25-74.349,13.356-105.513-7.457c-24.82-16.472-56.873-16.472-81.691,0
	c-18.032,12.02-38.622,18.03-59.324,18.03s-41.292-6.01-59.324-18.03c-24.82-16.584-56.873-16.472-81.691,0
	c-31.164,20.813-71.678,23.707-105.513,7.457c-8.236-3.895-11.797-13.912-7.791-22.26c3.895-8.236,13.912-11.798,22.26-7.791
	c23.262,11.13,51.086,9.127,72.566-5.231c36.061-23.929,82.586-23.929,118.647,0c12.353,8.237,26.599,12.466,40.846,12.466
	s28.494-4.228,40.846-12.466c36.061-23.929,82.586-23.929,118.647,0c21.48,14.358,49.304,16.361,72.566,5.231
	c8.347-4.007,18.364-0.445,22.26,7.791C514.325,448.993,510.764,459.009,502.529,462.905z"/>
<path style="fill:#45C7E6;" d="M502.529,462.905c-33.835,16.25-74.349,13.356-105.513-7.457c-24.82-16.472-56.873-16.472-81.691,0
	c-18.032,12.02-38.622,18.03-59.324,18.03v-33.39c14.246,0,28.494-4.228,40.846-12.466c36.061-23.929,82.586-23.929,118.647,0
	c21.48,14.358,49.304,16.361,72.566,5.231c8.347-4.007,18.364-0.445,22.26,7.791C514.325,448.993,510.764,459.009,502.529,462.905z"
	/>
<path style="fill:#61DAF2;" d="M502.529,397.823c-33.835,16.25-74.349,13.356-105.513-7.457c-24.82-16.472-56.873-16.472-81.691,0
	c-18.032,12.02-38.622,18.03-59.324,18.03s-41.292-6.01-59.324-18.03c-24.82-16.584-56.873-16.472-81.691,0
	c-31.164,20.813-71.678,23.707-105.513,7.457c-8.236-3.895-11.797-13.912-7.791-22.26c3.895-8.236,13.912-11.798,22.26-7.791
	c23.262,11.13,51.086,9.127,72.566-5.231c36.061-23.929,82.586-23.929,118.647,0c12.353,8.237,26.599,12.466,40.846,12.466
	s28.494-4.228,40.846-12.466c36.061-23.929,82.586-23.929,118.647,0c21.48,14.358,49.304,16.361,72.566,5.231
	c8.347-4.007,18.364-0.445,22.26,7.791C514.325,383.911,510.764,393.926,502.529,397.823z"/>
<path style="fill:#45C7E6;" d="M502.529,397.823c-33.835,16.25-74.349,13.356-105.513-7.457c-24.82-16.472-56.873-16.472-81.691,0
	c-18.032,12.02-38.622,18.03-59.324,18.03v-33.39c14.246,0,28.494-4.228,40.846-12.466c36.061-23.929,82.586-23.929,118.647,0
	c21.48,14.358,49.304,16.361,72.566,5.231c8.347-4.007,18.364-0.445,22.26,7.791C514.325,383.911,510.764,393.926,502.529,397.823z"
	/>
<path style="fill:#E6563A;" d="M507.759,178.757c-6.12,6.901-16.695,7.568-23.595,1.447C431.407,133.347,346.152,105.3,256,105.3
	S80.592,133.347,27.836,180.204c-6.901,6.121-17.475,5.454-23.595-1.447c-6.12-6.789-5.565-17.363,1.336-23.484
	C64.342,103.074,157.944,71.91,256,71.91s191.657,31.164,250.423,83.363C513.324,161.394,513.88,171.968,507.759,178.757z"/>
<path style="fill:#D9472B;" d="M507.759,178.757c-6.12,6.901-16.695,7.568-23.595,1.447C431.407,133.347,346.152,105.3,256,105.3
	V71.91c98.056,0,191.657,31.164,250.423,83.363C513.324,161.394,513.88,171.968,507.759,178.757z"/>
<path style="fill:#61DAF2;" d="M502.529,331.043c-33.835,16.25-74.349,13.356-105.513-7.457c-24.82-16.472-56.873-16.472-81.691,0
	c-18.032,12.02-38.622,18.031-59.324,18.031s-41.292-6.01-59.324-18.031c-24.82-16.584-56.873-16.472-81.691,0
	c-31.164,20.813-71.678,23.707-105.513,7.457c-8.236-3.895-11.797-13.912-7.791-22.26c3.895-8.236,13.912-11.798,22.26-7.791
	c23.262,11.13,51.086,9.127,72.566-5.231c36.061-23.929,82.586-23.929,118.647,0c12.353,8.237,26.599,12.466,40.846,12.466
	s28.494-4.228,40.846-12.466c36.061-23.929,82.586-23.929,118.647,0c21.48,14.358,49.304,16.361,72.566,5.231
	c8.347-4.007,18.364-0.445,22.26,7.791C514.325,317.131,510.764,327.147,502.529,331.043z"/>
<path style="fill:#45C7E6;" d="M502.529,331.043c-33.835,16.25-74.349,13.356-105.513-7.457c-24.82-16.472-56.873-16.472-81.691,0
	c-18.032,12.02-38.622,18.031-59.324,18.031v-33.39c14.246,0,28.494-4.228,40.846-12.466c36.061-23.929,82.586-23.929,118.647,0
	c21.48,14.358,49.304,16.361,72.566,5.231c8.347-4.007,18.364-0.445,22.26,7.791C514.325,317.131,510.764,327.147,502.529,331.043z"
	/>
</svg>