<?xml version="1.0" encoding="utf-8"?>

<!DOCTYPE svg PUBLIC "-//W3C//DTD SVG 1.1//EN" "http://www.w3.org/Graphics/SVG/1.1/DTD/svg11.dtd">
<!-- Uploaded to: SVG Repo, www.svgrepo.com, Generator: SVG Repo Mixer Tools -->
<svg height="800px" width="800px" version="1.1" id="_x32_" xmlns="http://www.w3.org/2000/svg" xmlns:xlink="http://www.w3.org/1999/xlink" 
	 viewBox="0 0 512 512"  xml:space="preserve">
<style type="text/css">
	.st0{fill:#000000;}
</style>
<g>
	<path class="st0" d="M158.358,495.159c0,9.301,7.54,16.841,16.841,16.841c9.3,0,16.84-7.54,16.84-16.841l6.364-115.794
		l-43.812-12.745L158.358,495.159z"/>
	<path class="st0" d="M199.063,379.55l6.356,115.608c0,9.301,7.54,16.841,16.84,16.841c9.301,0,16.841-7.54,16.841-16.841
		l3.758-128.506l-43.533,12.974L199.063,379.55z"/>
	<path class="st0" d="M198.724,200.886c-31.989,0-78.914,12.077-78.914,57.817l0.144,86.946
		c-0.339,7.134,5.162,13.185,12.296,13.523c7.126,0.339,13.176-5.162,13.515-12.287l5.949-53.873l1.718,39.859h90.593l1.71-39.859
		l5.958,53.873c0.339,7.125,6.389,12.626,13.515,12.287c7.125-0.338,12.626-6.389,12.287-13.523l0.153-86.946
		C277.647,212.963,230.713,200.886,198.724,200.886z"/>
	<path class="st0" d="M198.724,184.842c19.303,0,34.951-15.639,34.951-34.943c0-19.294-15.648-34.942-34.951-34.942
		c-19.303,0-34.942,15.648-34.942,34.942C163.782,169.203,179.422,184.842,198.724,184.842z"/>
	<path class="st0" d="M377.98,0h-30.778c-5.814,0-13.032,2.987-17.145,7.108l-12.44,12.432l-0.982-0.982l-35.746-0.034l-7.954,7.954
		l48,48l7.946-7.955l-0.025-35.746l-1.193-1.194l12.441-12.44c1.43-1.43,5.077-2.937,7.1-2.937h30.778v198.873h-14.226v-16.392
		c0-2.886-2.336-5.221-5.221-5.221c-2.877,0-5.214,2.336-5.214,5.221v43.228c0,2.886,2.336,5.222,5.214,5.222
		c2.886,0,5.221-2.336,5.221-5.222v-16.392h14.226V512h14.209V14.208C392.19,6.372,385.817,0,377.98,0z"/>
	<path class="st0" d="M278.95,49.684c-1.904,1.447-2.285,4.129-0.863,6c1.422,1.879,4.113,2.234,6.017,0.787
		c1.905-1.447,2.294-4.138,0.872-6.009C283.554,48.584,280.846,48.237,278.95,49.684z"/>
	<path class="st0" d="M267.916,68.767c1.904-1.447,2.293-4.138,0.872-6.008c-1.422-1.879-4.122-2.226-6.025-0.779
		c-1.905,1.438-2.285,4.13-0.864,6C263.32,69.859,266.012,70.206,267.916,68.767z"/>
	<path class="st0" d="M251.726,81.055c1.904-1.438,2.294-4.13,0.872-6.009c-1.422-1.87-4.122-2.217-6.026-0.778
		c-1.904,1.447-2.285,4.138-0.863,6.016C247.131,82.155,249.822,82.502,251.726,81.055z"/>
	<path class="st0" d="M235.537,93.351c1.904-1.438,2.302-4.138,0.872-6.008c-1.421-1.87-4.122-2.226-6.017-0.77
		c-1.912,1.438-2.293,4.13-0.872,6.009C230.942,94.452,233.642,94.798,235.537,93.351z"/>
	<path class="st0" d="M219.348,105.648c1.904-1.438,2.293-4.13,0.872-6.009c-1.422-1.879-4.122-2.217-6.026-0.778
		c-1.896,1.447-2.285,4.138-0.864,6.008C214.753,106.748,217.452,107.095,219.348,105.648z"/>
	<path class="st0" d="M273.01,43.303c2.064-0.854,3.021-3.308,2.124-5.484c-0.897-2.174-3.31-3.25-5.382-2.394
		c-2.074,0.863-3.021,3.317-2.124,5.492C268.525,43.092,270.936,44.158,273.01,43.303z"/>
	<path class="st0" d="M255.365,50.59c2.074-0.855,3.03-3.317,2.133-5.484c-0.897-2.175-3.309-3.242-5.382-2.387
		c-2.064,0.854-3.021,3.309-2.124,5.484C250.897,50.378,253.301,51.444,255.365,50.59z"/>
	<path class="st0" d="M237.738,57.876c2.064-0.854,3.021-3.308,2.124-5.484c-0.897-2.175-3.309-3.241-5.382-2.386
		c-2.074,0.854-3.022,3.308-2.124,5.492C233.261,57.665,235.664,58.739,237.738,57.876z"/>
	<path class="st0" d="M220.101,65.171c2.074-0.863,3.021-3.317,2.124-5.492c-0.897-2.175-3.309-3.25-5.382-2.386
		c-2.065,0.854-3.021,3.309-2.124,5.484C215.616,64.96,218.028,66.026,220.101,65.171z"/>
	<path class="st0" d="M202.464,72.457c2.074-0.863,3.03-3.317,2.125-5.492c-0.898-2.175-3.31-3.241-5.382-2.386
		c-2.074,0.855-3.022,3.317-2.125,5.484C197.988,72.246,200.392,73.312,202.464,72.457z"/>
	<path class="st0" d="M184.829,79.743c2.073-0.854,3.021-3.308,2.124-5.492c-0.897-2.174-3.308-3.25-5.374-2.386
		c-2.082,0.855-3.03,3.318-2.133,5.484C180.352,79.532,182.755,80.599,184.829,79.743z"/>
	<path class="st0" d="M297.754,68.488c1.447-1.904,1.1-4.604-0.77-6.017c-1.879-1.431-4.57-1.042-6.018,0.863
		c-1.438,1.904-1.091,4.594,0.779,6.025C293.625,70.781,296.316,70.392,297.754,68.488z"/>
	<path class="st0" d="M278.68,79.523c-1.447,1.905-1.1,4.596,0.778,6.018c1.87,1.43,4.562,1.041,6-0.863
		c1.447-1.896,1.1-4.604-0.77-6.026C282.809,77.23,280.118,77.619,278.68,79.523z"/>
	<path class="st0" d="M273.17,100.858c1.438-1.895,1.092-4.586-0.778-6.017c-1.878-1.422-4.57-1.032-6.009,0.872
		c-1.447,1.895-1.1,4.595,0.779,6.025C269.032,103.16,271.723,102.771,273.17,100.858z"/>
	<path class="st0" d="M254.088,111.893c-1.447,1.913-1.101,4.604,0.778,6.026c1.87,1.422,4.562,1.032,6-0.863
		c1.456-1.904,1.108-4.596-0.77-6.025C258.225,109.608,255.535,109.997,254.088,111.893z"/>
	<path class="st0" d="M248.578,133.236c1.447-1.896,1.1-4.587-0.778-6.018c-1.87-1.421-4.562-1.032-6.009,0.872
		c-1.447,1.896-1.091,4.587,0.779,6.018C244.44,135.538,247.131,135.14,248.578,133.236z"/>
	<path class="st0" d="M309.62,72.305c-2.175-0.897-4.629,0.06-5.484,2.132c-0.863,2.065,0.212,4.468,2.387,5.374
		c2.174,0.898,4.628-0.05,5.484-2.124C312.86,75.614,311.795,73.21,309.62,72.305z"/>
	<path class="st0" d="M302.333,89.941c-2.175-0.897-4.629,0.05-5.484,2.133c-0.863,2.065,0.212,4.468,2.386,5.374
		c2.175,0.897,4.629-0.059,5.484-2.124C305.574,93.25,304.508,90.838,302.333,89.941z"/>
	<path class="st0" d="M295.046,107.577c-2.174-0.897-4.628,0.051-5.492,2.133c-0.854,2.065,0.22,4.477,2.386,5.374
		c2.184,0.898,4.638-0.05,5.492-2.124C298.288,110.886,297.221,108.475,295.046,107.577z"/>
	<path class="st0" d="M287.76,125.214c-2.175-0.897-4.629,0.051-5.492,2.124c-0.854,2.074,0.22,4.485,2.395,5.382
		c2.175,0.897,4.629-0.059,5.484-2.124C291.001,128.522,289.935,126.11,287.76,125.214z"/>
	<path class="st0" d="M280.474,142.85c-2.175-0.898-4.638,0.05-5.492,2.124c-0.854,2.073,0.211,4.477,2.386,5.374
		c2.175,0.906,4.638-0.051,5.492-2.116C283.715,146.159,282.649,143.747,280.474,142.85z"/>
	<path class="st0" d="M270.082,167.984c2.175,0.906,4.637-0.05,5.492-2.116c0.854-2.074-0.212-4.485-2.395-5.382
		c-2.167-0.897-4.63,0.051-5.484,2.124C266.841,164.684,267.907,167.086,270.082,167.984z"/>
</g>
</svg>