<?xml version="1.0" encoding="utf-8"?>
<!-- Uploaded to: SVG Repo, www.svgrepo.com, Generator: SVG Repo Mixer Tools -->
<svg width="800px" height="800px" viewBox="0 0 1024 1024" class="icon"  version="1.1" xmlns="http://www.w3.org/2000/svg"><path d="M65.1 231.9c0-92.7 75.1-167.8 167.8-167.8H792c92.7 0 167.8 75.1 167.8 167.8v559.2c0 92.7-75.1 167.8-167.8 167.8H232.8c-92.7 0-167.8-75.1-167.8-167.8V231.9h0.1z" fill="#5E676F" /><path d="M121 231.9v559.2c0 61.8 50.1 111.8 111.8 111.8H792c61.8 0 111.8-50.1 111.8-111.8V231.9c0-61.8-50.1-111.8-111.8-111.8H232.8C171.1 120.1 121 170.2 121 231.9z" fill="#FFFFFF" /><path d="M176.9 315.9c0-77.2 62.5-139.9 139.9-139.9h391.3C785.3 176 848 238.5 848 315.9v391.3c0 77.2-62.5 139.9-139.9 139.9H316.7c-77.2 0-139.9-62.5-139.9-139.9l0.1-391.3z" fill="#5E676F" /><path d="M204.9 315.9v391.3c0 61.9 50.1 111.9 111.9 111.9h391.3C770 819.1 820 769 820 707.2V315.9C820 254 769.9 204 708.1 204H316.7c-61.8 0-111.8 50-111.8 111.9z" fill="#FFFFFF" /><path d="M512.4 763.2c-139 0-251.6-112.7-251.6-251.6S373.5 260 512.4 260 764 372.5 764 511.5 651.4 763.2 512.4 763.2z" fill="#5E676F" /><path d="M512.4 735.2c123.5 0 223.7-100.1 223.7-223.7S635.9 287.8 512.4 287.8 288.7 388 288.7 511.5s100.2 223.7 223.7 223.7z" fill="#FFFFFF" /><path d="M372.6 567.4c0-15.4 12.4-28 28.2-28h55.4c15.6 0 28.2 12.4 28.2 28 0 15.4-12.4 28-28.2 28h-55.4c-15.6 0-28.2-12.4-28.2-28zM540.4 567.4c0-15.4 12.4-28 28.2-28H624c15.6 0 28.2 12.4 28.2 28 0 15.4-12.4 28-28.2 28h-55.4c-15.6 0-28.2-12.4-28.2-28zM512.4 483.6c-15.4 0-28-12.4-28-28.2V400c0-15.6 12.4-28.2 28-28.2 15.4 0 28 12.4 28 28.2v55.4c0 15.5-12.4 28.2-28 28.2z" fill="#5E676F" /></svg>