<?xml version="1.0" encoding="iso-8859-1"?>
<!-- Uploaded to: SVG Repo, www.svgrepo.com, Generator: SVG Repo Mixer Tools -->
<svg height="800px" width="800px" version="1.1" id="Capa_1" xmlns="http://www.w3.org/2000/svg" xmlns:xlink="http://www.w3.org/1999/xlink" 
	 viewBox="0 0 18.505 18.505" xml:space="preserve">
<g>
	<path style="fill:#030104;" d="M17.285,5.404c-1.574-2.782-3.801-3.147-3.934-3.164h-1.499l0.159-0.708
		c0.008-0.041,0.012-0.082,0.01-0.121c-0.012-0.267-0.268-0.446-0.5-0.446c-0.212,0-1.39,0.004-2.514,0.008
		c-2.639,0.01-2.639,0.01-2.661,0.453c-0.002,0.035,0,0.07,0.009,0.122l0.038,0.177C6.435,1.93,6.471,2.1,6.5,2.241l-1.106,0
		C2.819,2.448,1.513,4.868,1.463,4.963C0.465,6.69,0,9.356,0,13.354c0,0.258,0.209,0.467,0.467,0.467h2.271
		c0.257,0,0.467-0.209,0.467-0.467c0-2.856,0.175-4.649,0.592-5.857l0.759,3.513l-0.147,3.633c-0.003,0.08,0.014,0.159,0.049,0.229
		l0.795,1.579c0.036,0.07,0.089,0.131,0.155,0.176c0.056,0.037,1.383,0.913,3.638,0.913c1.3,0,2.645-0.293,3.995-0.872
		c0.101-0.042,0.184-0.12,0.234-0.22l0.801-1.605c0.032-0.07,0.049-0.147,0.045-0.224l-0.137-3.754l0.738-3.334
		c0.406,1.199,0.578,2.983,0.578,5.824c0,0.258,0.209,0.467,0.467,0.467h2.271c0.258,0,0.467-0.209,0.467-0.467
		C18.505,9.417,18.142,7.041,17.285,5.404z M16.23,12.886c-0.047-3.405-0.344-5.316-1.018-6.562L15.21,6.325
		c-0.092-0.227-0.375-0.631-0.693-0.631c-0.092,0-0.262,0.032-0.389,0.246l-1.071,4.786c-0.007,0.038-0.011,0.074-0.009,0.111
		l0.135,3.695l-0.667,1.34c-1.179,0.484-2.347,0.73-3.47,0.73c-1.617,0-2.702-0.522-3.021-0.698l-0.678-1.348l0.145-3.569
		c0.002-0.036-0.001-0.075-0.01-0.118L4.441,6.05L3.953,5.344L3.094,6.72c-0.633,1.305-0.783,3.186-0.819,6.166H0.939
		c0.035-3.034,0.214-5.228,0.943-6.733c0.039-0.079,0.077-0.156,0.116-0.232C2.021,5.89,2.043,5.856,2.067,5.818
		C3.153,4.089,4.45,3.174,5.828,3.174l1.507,0.765c0.14,0,0.274-0.07,0.367-0.192C7.789,3.635,7.819,3.476,7.78,3.331
		C7.766,3.28,7.445,2.198,7.386,1.913c0.901-0.004,2.651-0.01,3.583-0.013c-0.068,0.306-0.396,1.395-0.406,1.433
		c-0.043,0.141-0.018,0.297,0.07,0.415c0.088,0.119,0.229,0.19,0.377,0.19l1.9-0.767c0.1,0.011,2.404,0.274,3.643,2.835L16.552,6.01
		l0.111,0.235c0.701,1.476,0.869,3.562,0.904,6.642L16.23,12.886L16.23,12.886z"/>
</g>
</svg>