<?xml version="1.0" encoding="iso-8859-1"?>
<!-- Uploaded to: SVG Repo, www.svgrepo.com, Generator: SVG Repo Mixer Tools -->
<svg version="1.1" id="Layer_1" xmlns="http://www.w3.org/2000/svg" xmlns:xlink="http://www.w3.org/1999/xlink" 
	 viewBox="0 0 509 509" xml:space="preserve">
<circle style="fill:#646B79;" cx="254.5" cy="254.5" r="254.5"/>
<polygon style="fill:#F8B517;" points="474.5,364 344.1,364 344.1,165.1 420.4,165.1 474.5,264.6 "/>
<polygon style="fill:#0090FF;" points="452.4,257.7 410.8,181.3 360.2,181.3 360.2,257.7 "/>
<rect x="34.5" y="312.6" style="fill:#EA7417;" width="309.6" height="51.4"/>
<polygon style="fill:#FF9021;" points="402.8,109.2 395.6,88.9 334,110.9 310.3,145.6 34.5,145.6 34.5,280.6 325.1,280.6 325.1,162 
	347.8,128.8 "/>
<rect x="64.7" y="280.6" style="fill:#D54232;" width="224.1" height="32"/>
<rect x="64.7" y="280.6" style="fill:#AF2C22;" width="224.1" height="9.9"/>
<g>
	<path style="fill:#EA7711;" d="M65,159.2c-3.7,0-6.7,3.1-6.7,7v91.4c0,3.9,3,7,6.7,7c3.7,0,6.7-3.1,6.7-7v-91.4
		C71.7,162.3,68.7,159.2,65,159.2z"/>
	<path style="fill:#EA7711;" d="M103.2,159.2c-3.7,0-6.7,3.1-6.7,7v91.4c0,3.9,3,7,6.7,7s6.7-3.1,6.7-7v-91.4
		C109.9,162.3,106.9,159.2,103.2,159.2z"/>
	<path style="fill:#EA7711;" d="M141.3,159.2c-3.7,0-6.7,3.1-6.7,7v91.4c0,3.9,3,7,6.7,7s6.7-3.1,6.7-7v-91.4
		C148,162.3,145,159.2,141.3,159.2z"/>
	<path style="fill:#EA7711;" d="M179.5,159.2c-3.7,0-6.7,3.1-6.7,7v91.4c0,3.9,3,7,6.7,7s6.7-3.1,6.7-7v-91.4
		C186.2,162.3,183.2,159.2,179.5,159.2z"/>
	<path style="fill:#EA7711;" d="M217.7,159.2c-3.7,0-6.7,3.1-6.7,7v91.4c0,3.9,3,7,6.7,7s6.7-3.1,6.7-7v-91.4
		C224.3,162.3,221.4,159.2,217.7,159.2z"/>
	<path style="fill:#EA7711;" d="M255.8,159.2c-3.7,0-6.7,3.1-6.7,7v91.4c0,3.9,3,7,6.7,7c3.7,0,6.7-3.1,6.7-7v-91.4
		C262.5,162.3,259.5,159.2,255.8,159.2z"/>
	<path style="fill:#EA7711;" d="M294,159.2c-3.7,0-6.7,3.1-6.7,7v91.4c0,3.9,3,7,6.7,7s6.7-3.1,6.7-7v-91.4
		C300.7,162.3,297.7,159.2,294,159.2z"/>
</g>
<circle style="fill:#4F5565;" cx="409.9" cy="364" r="42.5"/>
<circle style="fill:#DEDEDF;" cx="409.9" cy="364" r="23.2"/>
<circle style="fill:#4F5565;" cx="107.2" cy="364" r="42.5"/>
<circle style="fill:#DEDEDF;" cx="107.2" cy="364" r="23.2"/>
<circle style="fill:#4F5565;" cx="202.2" cy="364" r="42.5"/>
<circle style="fill:#DEDEDF;" cx="202.2" cy="364" r="23.2"/>
<path style="fill:#F1F3F7;" d="M469.8,296.6c-6.9,0-12.5,5.6-12.5,12.5s5.6,12.5,12.5,12.5h4.7v-24.9h-4.7V296.6z"/>
</svg>