<?xml version="1.0" encoding="iso-8859-1"?>
<!-- Uploaded to: SVG Repo, www.svgrepo.com, Generator: SVG Repo Mixer Tools -->
<!DOCTYPE svg PUBLIC "-//W3C//DTD SVG 1.1//EN" "http://www.w3.org/Graphics/SVG/1.1/DTD/svg11.dtd">
<svg fill="#000000" height="800px" width="800px" version="1.1" id="Capa_1" xmlns="http://www.w3.org/2000/svg" xmlns:xlink="http://www.w3.org/1999/xlink" 
	 viewBox="0 0 350 350" xml:space="preserve">
<g>
	<path d="M86.78,318h110.437c10.907,0,19.781-8.874,19.781-19.781V107.98c0-10.907-8.874-19.781-19.781-19.781H86.78
		c-10.907,0-19.781,8.874-19.781,19.781v190.238C66.999,309.126,75.873,318,86.78,318z M74.999,107.98
		c0-6.496,5.285-11.781,11.781-11.781h110.437c6.496,0,11.781,5.285,11.781,11.781v190.238c0,6.496-5.285,11.781-11.781,11.781
		H86.78c-6.496,0-11.781-5.285-11.781-11.781V107.98z"/>
	<path d="M84.999,145.039h57.982c2.209,0,4-1.791,4-4v-26.18c0-2.209-1.791-4-4-4H84.999c-2.209,0-4,1.791-4,4v26.18
		C80.999,143.248,82.79,145.039,84.999,145.039z M88.999,118.859h49.982v18.18H88.999V118.859z"/>
	<path d="M161.499,118.859h37.742c2.209,0,4-1.791,4-4s-1.791-4-4-4h-37.742c-2.209,0-4,1.791-4,4S159.29,118.859,161.499,118.859z"
		/>
	<path d="M161.499,131.949h37.742c2.209,0,4-1.791,4-4c0-2.209-1.791-4-4-4h-37.742c-2.209,0-4,1.791-4,4
		C157.499,130.158,159.29,131.949,161.499,131.949z"/>
	<path d="M161.499,145.039h37.742c2.209,0,4-1.791,4-4c0-2.209-1.791-4-4-4h-37.742c-2.209,0-4,1.791-4,4
		C157.499,143.248,159.29,145.039,161.499,145.039z"/>
	<path d="M177.499,248c11.579,0,21-9.421,21-21s-9.421-21-21-21c-11.58,0-21,9.421-21,21S165.919,248,177.499,248z M177.499,214
		c7.168,0,13,5.832,13,13s-5.832,13-13,13c-7.168,0-13-5.832-13-13S170.33,214,177.499,214z"/>
	<circle cx="177.499" cy="227" r="5.845"/>
	<circle cx="177.499" cy="279" r="5.845"/>
	<path d="M177.499,300c11.579,0,21-9.421,21-21s-9.421-21-21-21c-11.58,0-21,9.421-21,21S165.919,300,177.499,300z M177.499,266
		c7.168,0,13,5.832,13,13s-5.832,13-13,13c-7.168,0-13-5.832-13-13S170.33,266,177.499,266z"/>
	<path d="M145.499,275h-6v-6c0-2.209-1.791-4-4-4s-4,1.791-4,4v6h-6c-2.209,0-4,1.791-4,4s1.791,4,4,4h6v6c0,2.209,1.791,4,4,4
		s4-1.791,4-4v-6h6c2.209,0,4-1.791,4-4S147.708,275,145.499,275z"/>
	<path d="M125.499,223c-2.209,0-4,1.791-4,4s1.791,4,4,4h20c2.209,0,4-1.791,4-4s-1.791-4-4-4H125.499z"/>
	<path d="M293.001,7h-8.369V4c0-2.209-1.791-4-4-4c-2.209,0-4,1.791-4,4v3h-6.5V4c0-2.209-1.791-4-4-4c-2.209,0-4,1.791-4,4v3
		h-122.13c-2.209,0-4,1.791-4,4s1.791,4,4,4h122.13v6.906h-0.27c-2.209,0-4,1.791-4,4v117.832c0,2.209,1.791,4,4,4h7.52v86.48
		c0,19.54-15.897,35.437-35.438,35.437h-2.946V55c0-2.209-1.791-4-4-4h-170c-2.209,0-4,1.791-4,4v273c0,2.209,1.791,4,4,4h8.5v14
		c0,2.209,1.791,4,4,4h17c2.209,0,4-1.791,4-4v-14h103v14c0,2.209,1.791,4,4,4h17c2.209,0,4-1.791,4-4v-14h8.5c2.209,0,4-1.791,4-4
		v-50.344h2.946c23.951,0,43.438-19.486,43.438-43.437v-86.48h7.52c2.209,0,4-1.791,4-4V25.906c0-2.209-1.791-4-4-4h-0.27V15h8.369
		c2.209,0,4-1.791,4-4S295.21,7,293.001,7z M82.499,342h-9v-10h9V342z M210.499,342h-9v-10h9V342z M222.999,324h-162V59h162V324z
		 M280.902,110.2h-15.039v-7h15.039V110.2z M265.863,118.2h15.039v7h-15.039V118.2z M280.902,29.906V95.2h-15.039V29.906H280.902z
		 M265.863,139.738V133.2h15.039v6.538H265.863z M276.632,21.906h-6.5V15h6.5V21.906z"/>
</g>
</svg>